<?xml version="1.0" standalone="no"?>
<!DOCTYPE svg PUBLIC "-//W3C//DTD SVG 1.1//EN" "http://www.w3.org/Graphics/SVG/1.1/DTD/svg11.dtd" >
<svg xmlns="http://www.w3.org/2000/svg" xmlns:xlink="http://www.w3.org/1999/xlink" version="1.1">
<metadata>
Created by FontForge 20170731 at Fri Jan  1 02:30:17 1904
 By Aleksey,,,
AzBuki press 1991
</metadata>
<defs>
<font id="BaskervilleLight" horiz-adv-x="692" >
  <font-face 
    font-family="Baskerville"
    font-weight="300"
    font-stretch="normal"
    units-per-em="2048"
    panose-1="2 2 4 0 0 0 0 0 0 0"
    ascent="1638"
    descent="-410"
    x-height="776"
    cap-height="1182"
    bbox="6 -494 1794 1571"
    underline-thickness="49"
    underline-position="-224"
    unicode-range="U+0020-2219"
  />
<missing-glyph horiz-adv-x="1536" 
d="M256 0v1280h1024v-1280h-1024zM1247 33v1214h-958v-1214h958z" />
    <glyph glyph-name=".notdef" horiz-adv-x="1536" 
d="M256 0v1280h1024v-1280h-1024zM1247 33v1214h-958v-1214h958z" />
    <glyph glyph-name=".null" horiz-adv-x="0" 
 />
    <glyph glyph-name="nonmarkingreturn" horiz-adv-x="0" 
 />
    <glyph glyph-name="space" unicode=" " 
 />
    <glyph glyph-name="exclam" unicode="!" horiz-adv-x="473" 
d="M371 25q-9 -25 -35.5 -41.5t-56.5 -16.5h-15q-32 6 -55 34t-23 58q0 4 11 37q8 26 33 42t53 16q21 0 53 -15q39 -24 39 -80q0 -24 -4 -34zM307 293h-43q0 149 -5.5 251.5t-17.5 194.5t-42 246q-1 10 -5 38.5t-4 45.5q0 139 93 139h14q82 -8 82 -131q0 -61 -14 -129
q-26 -146 -39.5 -240.5t-16.5 -195.5q-4 -70 -4 -111q1 -26 1.5 -48.5t0.5 -59.5z" />
    <glyph glyph-name="quotedbl" unicode="&#x22;" horiz-adv-x="625" 
d="M184 743h-28l-56 396q-4 20 -4 30q0 91 74 91q72 0 72 -95q0 -8 -0.5 -13.5t-1.5 -12.5zM524 1139l-59 -396h-27l-55 396q0 9 -0.5 14t-1.5 10q0 47 22 73t50 26q29 0 51 -26t22 -73q0 -7 -0.5 -12t-1.5 -12z" />
    <glyph glyph-name="numbersign" unicode="#" horiz-adv-x="1384" 
d="M690 1253h115l-146 -405h248l144 405h112l-141 -405h264l-35 -100h-266l-88 -246h287l-37 -101h-285l-143 -401h-115l144 401h-246l-144 -401h-112l141 401h-278l36 101h279l86 246h-301l39 100h299zM872 748h-249l-86 -246h247z" />
    <glyph glyph-name="dollar" unicode="$" horiz-adv-x="987" 
d="M387 -248v248q-149 13 -221 67t-72 113q0 33 19.5 52.5t50.5 19.5q22 0 33 -4q47 -14 47 -68q0 -15 -0.5 -25t-1.5 -22q0 -38 29.5 -64t115.5 -30v557q-80 38 -132 71.5t-87 85.5t-35 128v6q3 111 71.5 177t184.5 103v142h49v-131h129v131h43v-135q77 -11 134.5 -42.5
t84.5 -71t27 -73.5q0 -28 -17.5 -44.5t-47.5 -16.5l-5 -2q-59 0 -59 75q1 7 1.5 12.5t0.5 12.5v20q0 48 -30.5 66t-88.5 23v-465q134 -63 203.5 -137.5t69.5 -188.5q0 -37 -13 -104q-25 -93 -89 -143t-171 -85v-258h-45v248h-129v-248h-49zM438 37q9 0 27 -2t27 -2
q11 0 28.5 2t42.5 4v479q-20 11 -56.5 26.5t-68.5 28.5v-536zM610 492v-435q160 46 160 215v2q0 81 -40 130.5t-120 87.5zM389 770v354h-2q-69 0 -105 -62.5t-36 -131.5q0 -49 46 -104.5t97 -55.5zM438 748q87 -41 127 -58v449q-33 6 -67 6q-31 0 -60 -6v-391z" />
    <glyph glyph-name="percent" unicode="%" horiz-adv-x="1481" 
d="M358 -86h-75l700 1192q-103 -59 -207 -59q-72 0 -160 34q15 -59 15 -125q0 -51 -8 -92q-15 -71 -44 -134.5t-75 -113t-105 -71.5q-48 -17 -92 -17q-55 0 -105.5 24.5t-84.5 68.5q-56 74 -56 174q0 65 29 147q42 109 132.5 185t201.5 83h22q41 0 67.5 -12t58.5 -36t59 -40
q62 -35 131 -35t147 31q111 44 176 150h66zM319 567q6 0 9.5 -0.5t7.5 -1.5q54 0 102.5 36.5t83 95.5t54.5 132t20 136q0 52 -11.5 92t-34 67.5t-61.5 38.5q-20 4 -34 4q-50 0 -96.5 -39t-85 -103.5t-59.5 -140.5t-21 -139q0 -74 31.5 -123t94.5 -55zM1012 -23
q-103 20 -155 95.5t-52 175.5q0 56 16 114q32 119 134 210.5t216 91.5q42 0 91 -17q56 -21 87 -86t31 -145q0 -101 -41.5 -204t-115 -171t-164.5 -68q-15 0 -47 4zM1036 23q21 -7 43 -7q71 0 133 61.5t98 155t36 181.5q0 65 -22 118t-64 74q-36 19 -68 19q-77 0 -136 -87
t-91 -184q-29 -83 -29 -170q0 -59 24.5 -102.5t75.5 -58.5z" />
    <glyph glyph-name="ampersand" unicode="&#x26;" horiz-adv-x="1405" 
d="M743 147q-60 -72 -163 -124t-203 -52q-84 0 -141 37q-50 33 -77.5 83.5t-27.5 105.5q0 61 29 122q38 77 102.5 134t157.5 112q-127 196 -127 334q0 55 18 105q31 91 101.5 147.5t160.5 56.5q33 0 68 -6q75 -21 122.5 -84.5t47.5 -142.5q0 -102 -68 -185t-176 -161
q57 -80 121 -159.5t133 -154.5q31 44 59.5 93.5t61.5 107t60.5 96t56.5 60.5q53 41 108 41q56 0 88 -31q37 -27 37 -82q0 -38 -27 -69t-69 -31q-2 1 -3.5 1.5t-4.5 0.5q-43 3 -53.5 27t-13.5 66t-19 42h-2q-26 0 -58.5 -47.5t-96.5 -161.5t-93 -147q184 -211 291 -211
q3 1 5 1.5t3 0.5q53 5 78.5 25.5t48.5 41.5q3 1 5 1.5t5 0.5q6 0 11.5 -4.5t5.5 -13.5v-2q0 -40 -66 -86q-79 -55 -186 -55q-84 0 -156.5 44t-153.5 123zM715 180q-90 95 -154.5 176t-122.5 172q-79 -50 -120.5 -120.5t-41.5 -139.5q0 -88 57 -149.5t144 -61.5
q118 0 238 123zM541 659q157 125 157 277v8q0 89 -33 155t-112 66h-16q-65 -6 -102.5 -59.5t-37.5 -122.5q0 -13 4 -37q7 -51 28.5 -101t48.5 -93t63 -93z" />
    <glyph glyph-name="quotesingle" unicode="'" horiz-adv-x="340" 
d="M184 743h-28l-58 396q0 9 -0.5 14.5t-1.5 11.5q0 46 22 71.5t50 25.5q29 0 50.5 -26t21.5 -73v-24z" />
    <glyph glyph-name="parenleft" unicode="(" horiz-adv-x="645" 
d="M502 -367q-110 115 -191.5 236t-126.5 258.5t-45 286.5q0 3 -0.5 4t-1.5 2q0 117 27 220.5t75 198.5t111 182t152 189l37 -32q-140 -164 -202.5 -346t-62.5 -404q0 -163 25 -288.5t83 -239.5t157 -236z" />
    <glyph glyph-name="parenright" unicode=")" horiz-adv-x="606" 
d="M137 1210q81 -82 149 -174t114.5 -185t74 -200t27.5 -225q0 -225 -94.5 -409.5t-270.5 -383.5l-35 33q93 110 151 227t83.5 245t25.5 276q0 160 -24 288t-80.5 242t-155.5 234z" />
    <glyph glyph-name="asterisk" unicode="*" horiz-adv-x="872" 
d="M451 872q-1 60 -9 88t-26.5 71t-24.5 81q0 4 -0.5 7t-1.5 7q0 31 21.5 56.5t50.5 25.5h10q29 -4 44 -27.5t15 -54.5q0 -11 -0.5 -17t-1.5 -13q-11 -41 -25 -71t-21.5 -59t-10.5 -94q66 38 107 93.5t68.5 76.5t60.5 21q44 0 61 -33q6 -15 6 -33q0 -25 -17.5 -46.5
t-41.5 -28.5q-36 -14 -73.5 -18t-70 -12t-90.5 -38q53 -30 84 -37t75 -12t79 -19q23 -9 39 -31t16 -46q0 -16 -6 -31q-21 -35 -61 -35q-27 0 -64 25q-28 24 -51.5 56.5t-46.5 56t-74 55.5q1 -62 11.5 -96t28.5 -78t19 -74q0 -36 -18 -61t-51 -25t-53.5 24t-20.5 54q0 3 2 11
t2 11q7 37 23 74t25 68.5t12 91.5q-47 -27 -67.5 -47.5t-53 -61.5t-56.5 -59q-35 -25 -65 -25q-29 0 -49 25q-17 20 -17 41q0 26 22 51t52 33q19 5 55.5 8t53.5 6q31 8 112 47q-53 30 -86 38t-73.5 12t-73.5 18q-27 12 -44.5 32.5t-17.5 44.5q0 17 11 33q20 33 57 33
q38 0 65 -25q29 -24 53.5 -56t49 -57t72.5 -55z" />
    <glyph glyph-name="plus" unicode="+" horiz-adv-x="1366" 
d="M705 1051h102v-473h463v-101h-463v-477h-102v477h-467v101h467v473z" />
    <glyph glyph-name="comma" unicode="," horiz-adv-x="494" 
d="M307 14q-35 -14 -57 -14q-37 0 -62.5 29t-25.5 63q0 29 17.5 55.5t51.5 36.5q26 4 39 4q36 0 65 -20t45.5 -54t16.5 -75q0 -78 -59.5 -160t-181.5 -141l-23 26q180 115 180 213q0 19 -6 37z" />
    <glyph glyph-name="hyphen" unicode="-" horiz-adv-x="625" 
d="M100 334v119h428v-119h-428z" />
    <glyph glyph-name="period" unicode="." horiz-adv-x="455" 
d="M311 150q39 -25 39 -80q0 -25 -4 -35q-9 -24 -36 -39.5t-56 -15.5h-14q-32 5 -55 32.5t-23 57.5q0 11 10 36q8 26 33 42t53 16q31 0 53 -14z" />
    <glyph glyph-name="slash" unicode="/" horiz-adv-x="627" 
d="M84 -162h-66l445 1370h67z" />
    <glyph glyph-name="zero" unicode="0" horiz-adv-x="1004" 
d="M109 596q2 134 43.5 275t131 239.5t226.5 99.5q105 0 182.5 -61t125 -156.5t69.5 -200.5t22 -204q0 -134 -40.5 -275.5t-131 -241t-227.5 -100.5q-136 0 -227 98.5t-132.5 243t-41.5 277.5v6zM281 592q0 -5 -0.5 -10t-1.5 -11q0 -561 227 -561h2q143 0 186 160t43 377v65
q0 127 -13 247t-64 216t-152 96q-229 0 -229 -565q1 -3 1.5 -6t0.5 -8z" />
    <glyph glyph-name="one" unicode="1" horiz-adv-x="739" 
d="M297 166v823q0 61 -20.5 84.5t-79.5 26.5q-7 1 -28.5 2t-33.5 3.5t-20 10.5q-4 4 -4 8t5.5 9.5t10.5 5.5q39 9 96.5 15.5t87.5 14.5q69 16 113 41q17 12 25 13q12 0 12 -25v-6q0 -35 -4 -107t-4 -108v-805q0 -67 19 -97t38.5 -34t62.5 -6.5t56 -16.5q4 -4 4 -12
q0 -12 -29 -12h-35q-20 0 -59.5 1.5l-79 3t-59.5 1.5q-31 0 -46.5 -0.5t-40 -1.5t-53.5 -2.5t-53 -1.5h-33q-30 0 -30 12q0 6 6 12q14 14 56 16.5t61.5 6.5t39 32.5t19.5 92.5z" />
    <glyph glyph-name="two" unicode="2" horiz-adv-x="967" 
d="M268 150q215 -7 273 -7q60 0 176 4q9 0 27.5 2t32 3.5t20.5 1.5q47 0 47 -33v-10l-41 -197q-4 -18 -19 -18q-14 0 -14 32v29q0 28 -14 35.5t-49 7.5h-539q-3 0 -18 -2t-21 -2q-18 0 -18 10v2q5 31 73 116.5t115 137.5q28 32 126.5 130t152 164.5t86.5 150.5q32 82 32 180
q0 115 -49 186q-31 47 -81.5 70.5t-110.5 23.5q-53 0 -101.5 -21.5t-78.5 -63t-33 -97.5q0 -7 -0.5 -11.5t-1.5 -10.5q0 -99 71 -156q38 -27 72 -27q16 0 42 7.5t42 9.5h2q8 0 8 -11v-8q-15 -32 -55.5 -51t-79.5 -22q-2 0 -10.5 -1t-16.5 -2q-87 0 -138.5 63.5t-51.5 149.5
q0 82 47 152q50 70 133.5 107.5t175.5 37.5q76 0 146 -23t125 -65.5t87.5 -106t32.5 -143.5v-4q0 -118 -61.5 -205t-158.5 -163t-214 -170t-170 -182z" />
    <glyph glyph-name="three" unicode="3" horiz-adv-x="967" 
d="M522 674q226 0 312 -139q34 -61 34 -146q0 -98 -45 -174q-41 -71 -106.5 -126.5t-146 -85.5t-167.5 -30q-67 0 -131.5 19.5t-105.5 56.5q-45 45 -45 98q0 28 15.5 49t47.5 27h19q31 0 48.5 -22t35 -68.5t22.5 -54.5q41 -68 123 -68q42 0 84.5 17t77.5 45.5t51 58.5
q22 40 35.5 103.5t13.5 130.5q0 109 -39 184.5t-123 85.5q-6 1 -11.5 1.5t-14.5 0.5q-45 0 -68.5 -19.5t-52 -60.5t-51.5 -55q-5 0 -8.5 -0.5t-8.5 -1.5q-13 0 -25.5 10t-12.5 22q1 3 1.5 5t0.5 4q1 11 10.5 22t24 20t24.5 15q85 48 126 76t77 69q35 39 57.5 107t22.5 131
q0 50 -16.5 93.5t-51.5 66.5q-40 30 -98 30q-68 0 -125 -48.5t-60 -116.5q0 -3 -0.5 -4.5t-1.5 -2.5q0 -50 34 -89.5t79 -39.5q3 0 11 2t12 2q1 0 18.5 6.5t28.5 6.5q12 0 12 -4v-4q0 -11 -12 -22.5t-22 -17.5l-30 -18q-41 -22 -84 -22q-61 0 -106 46t-45 107q0 46 27 95
q44 76 132 120.5t185 44.5q75 0 138.5 -27t101.5 -83q34 -54 34 -117q0 -57 -28 -115q-24 -40 -60.5 -75t-78.5 -62.5t-95 -58.5z" />
    <glyph glyph-name="four" unicode="4" horiz-adv-x="1042" 
d="M555 387h-467l-4 -2q-27 0 -27 23q0 30 31 69l567 711q24 29 39 29q21 0 21 -43v-723q21 1 41 1.5t67 0.5q111 0 113 -31v-4q0 -13 -16.5 -21t-28.5 -8h-180v-229q0 -45 10 -72t47 -41q13 -4 42 -5t51.5 -3.5t33.5 -9.5q6 -6 6 -13q0 -6 -8.5 -12t-15.5 -6q-17 -2 -56 -2
q-29 0 -92 4t-90 4q-40 0 -122 -4t-124 -4q-8 0 -20.5 5.5t-12.5 12.5q0 6 5 13q12 14 69 16t89 19.5t32 84.5v240zM563 451v544l-434 -544h434z" />
    <glyph glyph-name="five" unicode="5" horiz-adv-x="967" 
d="M268 631q37 43 81 70.5t92.5 41t99.5 13.5q84 0 158.5 -39t119.5 -114t45 -177v-2q0 -140 -71 -243t-181 -155.5t-225 -52.5q-61 0 -117.5 18t-97.5 50q-59 44 -59 111q0 30 18.5 51.5t50.5 21.5h21q39 -7 59 -58.5t42 -94t83 -52.5q14 -2 45 -2q91 0 150.5 55.5
t86.5 145t27 184.5q0 76 -12 138q-13 76 -70 117.5t-131 41.5q-59 0 -110 -27.5t-80 -80.5q-6 -12 -6 -37v-41q0 -51 -29 -53l-6 -2q-37 0 -37 57q0 18 4 47t4 33l21 582q0 34 20 34q17 0 52 -27t42 -30q79 -35 164 -35q75 0 131 29q29 14 43.5 28t26.5 30.5t22 23.5
q5 2 13 2q6 0 6 -14q0 -31 -41 -113q-82 -127 -277 -127q-71 0 -165 22z" />
    <glyph glyph-name="six" unicode="6" horiz-adv-x="1024" 
d="M279 614q67 68 124.5 105.5t128.5 44.5q10 1 18.5 1.5t20.5 0.5q129 0 220 -72q127 -102 127 -284q0 -132 -73.5 -250t-191.5 -162q-79 -27 -153 -27q-84 0 -162 35q-122 69 -178 209t-56 301q1 3 1.5 6t0.5 6q2 118 29 240t84 222t145 159t209 59q38 0 74 -6
q64 -8 118 -37t66 -80q3 -10 3 -30q0 -37 -25 -51q-24 -19 -49 -19q-26 0 -50.5 20t-39.5 48q-19 38 -37.5 63t-50.5 37q-21 10 -56 10q-45 0 -80 -18q-106 -58 -135.5 -200.5t-31.5 -330.5zM281 551q0 -12 -1.5 -34.5t-3.5 -54.5t-2 -50q0 -350 183 -396q40 -8 55 -8
q69 0 119.5 42.5t77.5 109t32 141.5q4 70 4 113q0 229 -129 282q-40 17 -79 17q-71 0 -133.5 -44.5t-122.5 -117.5z" />
    <glyph glyph-name="seven" unicode="7" horiz-adv-x="987" 
d="M795 1034h-463q-43 0 -70 -14.5t-42.5 -41t-29 -73t-18.5 -61.5q-3 -23 -20 -23q-8 0 -15.5 11t-7.5 22q1 2 1.5 4t0.5 4l88 428q7 27 25 27q16 0 16 -27v-6q0 -24 -0.5 -36.5t-1.5 -26.5q0 -23 15 -33t55 -10h530q29 0 29 -15v-2q-12 -37 -64 -147q-8 -18 -31.5 -76
t-41 -106.5t-37.5 -102.5q-38 -101 -67.5 -198t-59.5 -220t-51 -211q-25 -112 -89 -125q-8 -2 -24 -2q-55 0 -70 43q-8 26 -8 41q0 27 7.5 52.5t22 63.5t17.5 46q42 98 83.5 187t92.5 191t122 236t106 201z" />
    <glyph glyph-name="eight" unicode="8" horiz-adv-x="987" 
d="M375 604q-107 54 -161 133.5t-54 165.5q0 77 43 147t121 113.5t178 44.5h8q90 0 166.5 -36.5t119 -98t42.5 -133.5q0 -73 -46 -146.5t-137 -134.5q115 -71 175.5 -145.5t60.5 -189.5q0 -155 -114 -251.5t-275 -99.5q-88 0 -171 27.5t-141.5 86.5t-66.5 146q0 11 -0.5 18
t-1.5 15q0 74 34.5 135t89 108.5t130.5 94.5zM414 588q-84 -63 -124 -132.5t-40 -160.5q0 -9 2 -28.5t4 -43.5q13 -100 81 -155.5t165 -55.5q7 1 12.5 1.5t13.5 0.5q70 3 126 35t88 88.5t32 122.5v27q-7 82 -62.5 135t-129.5 87.5t-168 78.5zM616 680q107 98 107 250
q0 62 -26 119.5t-76 92t-119 34.5q-29 0 -58 -7q-47 -9 -87.5 -37.5t-64.5 -70.5t-24 -88q0 -30 15 -68q20 -53 76.5 -97t117 -72t139.5 -56z" />
    <glyph glyph-name="nine" unicode="9" horiz-adv-x="1024" 
d="M743 565q-40 -43 -84 -77t-95 -53.5t-109 -20.5h-15q-138 0 -235 100q-103 103 -103 256q0 103 47 200.5t131.5 161.5t192.5 74q12 1 22 1.5t25 0.5q105 0 182 -48.5t123 -128.5t68 -177t22 -203q0 -51 -2 -76q-6 -107 -37.5 -215t-87 -194t-142 -139.5t-197.5 -53.5h-39
q-197 23 -217 123q-7 19 -7 27q0 36 27 53t47 17q28 0 54 -19.5t38 -46.5q9 -15 19 -33t20.5 -30.5t20.5 -21.5t28 -17q27 -11 54 -11q40 0 84 21q105 57 135 201t30 329zM743 629q1 36 1.5 66t0.5 81q0 262 -108 350q-52 43 -127 43q-34 0 -78 -14q-108 -45 -143 -213
q-15 -118 -15 -147q0 -38 13 -127q22 -158 143 -191q35 -10 57 -10q125 0 256 162z" />
    <glyph glyph-name="colon" unicode=":" horiz-adv-x="473" 
d="M264 -33q-32 6 -55 34t-23 58q0 4 11 37q8 26 33 42t53 16q21 0 53 -15q39 -24 39 -80q0 -24 -4 -34q-9 -25 -35.5 -41.5t-56.5 -16.5h-15zM338 758q19 -9 30 -31.5t11 -46.5q0 -13 -4 -37q-9 -24 -36 -40.5t-56 -16.5q-4 1 -7 1.5t-8 0.5q-33 5 -55.5 32t-22.5 60
q0 5 4.5 19.5t4.5 15.5q10 27 34.5 42t53.5 15q31 0 51 -14z" />
    <glyph glyph-name="semicolon" unicode=";" horiz-adv-x="512" 
d="M324 14q-37 -14 -58 -14q-39 0 -63.5 28t-24.5 64q0 29 18.5 55.5t51.5 36.5q24 4 37 4q35 0 64 -20t46 -54.5t17 -76.5q0 -80 -58.5 -160t-181.5 -139l-22 26q180 121 180 213q0 19 -6 37zM330 764q19 -12 30 -34t11 -46q0 -20 -6 -35q-9 -24 -36 -40.5t-55 -16.5h-14
q-33 6 -55.5 33.5t-22.5 58.5q0 15 8 35q11 27 34.5 43t51.5 16q24 0 54 -14z" />
    <glyph glyph-name="less" unicode="&#x3c;" horiz-adv-x="1366" 
d="M1262 985v-108l-861 -351l861 -350v-110l-1014 415v88z" />
    <glyph glyph-name="equal" unicode="=" horiz-adv-x="1366" 
d="M238 741h1032v-100h-1032v100zM238 412h1032v-101h-1032v101z" />
    <glyph glyph-name="greater" unicode="&#x3e;" horiz-adv-x="1366" 
d="M248 985l1014 -416v-88l-1014 -415v110l860 350l-860 351v108z" />
    <glyph glyph-name="question" unicode="?" horiz-adv-x="797" 
d="M283 274v351q21 0 35.5 -0.5t31.5 -1.5q108 0 180 27t93 108q8 29 8 69q0 44 -14 91.5t-39 80.5q-61 76 -172 76q-36 0 -92 -7t-68 -7q-57 0 -76 39q-10 20 -10 28q0 20 13.5 40t35.5 30q35 14 70 14q49 0 108.5 -23t110.5 -54q55 -39 97 -99.5t66.5 -132t24.5 -141.5
q0 -125 -84.5 -206t-263.5 -81q-3 1 -6 1.5t-8 0.5v-203h-41zM367 162q41 -27 41 -80q0 -21 -7 -35q-9 -24 -35.5 -39.5t-54.5 -15.5h-14q-33 5 -55.5 32t-22.5 58q0 17 8 37q11 27 34.5 42t51.5 15q30 0 54 -14z" />
    <glyph glyph-name="at" unicode="@" horiz-adv-x="1745" 
d="M948 831q-98 -12 -174.5 -153.5t-99.5 -267.5q-10 -48 -10 -95q0 -61 24 -102q38 -63 111 -63q23 0 59 12q64 27 122 108.5t92 183t34 191.5q0 85 -34 135.5t-103 50.5h-21zM1044 289q-111 -180 -264 -180q-26 0 -41 2q-97 13 -147.5 97t-50.5 191q0 41 6 74
q31 153 158.5 274t252.5 121q67 0 118 -42.5t73 -127.5l45 156h123l-146 -526q-14 -51 -14 -86q0 -97 76 -97q20 0 65 15q135 52 216 192.5t81 304.5q0 107 -38.5 208.5t-118.5 181.5t-199 122q-118 41 -244 41q-143 0 -282 -53t-240 -149q-97 -94 -153 -216.5t-70 -256.5
q-2 -34 -4 -59t-2 -42q0 -142 49 -258q52 -120 154.5 -204t232.5 -125.5t266 -41.5q69 0 119 9q82 10 150 32t132 56t132 80l26 -31q-105 -74 -215 -120.5t-227 -61.5q-63 -7 -139 -7q-103 0 -206 21.5t-197 67t-167 114.5q-53 50 -92.5 107.5t-64.5 119t-38.5 127.5
t-13.5 136q0 99 26.5 198.5t78 189t123.5 161.5q79 77 178 133t208 84t224 28q80 0 160 -12q105 -17 199 -68.5t158 -125t99 -168t35 -207.5v-9q0 -91 -24 -180t-72 -166t-121 -133q-44 -34 -97 -55t-101 -21q-70 0 -118 46t-57 139z" />
    <glyph glyph-name="A" unicode="A" horiz-adv-x="1384" 
d="M383 481h410l-199 510zM809 430h-447l-75 -194q-27 -60 -27 -103q0 -11 8 -37q10 -24 26 -34.5t46 -17.5t47 -15q10 -7 10 -15q0 -6 -6.5 -11t-15.5 -5h-23q-25 0 -76 4t-75 4q-12 0 -20.5 -0.5t-27.5 -1.5t-42 -2.5t-41 -1.5q-41 0 -52 6q-10 7 -10 12q0 11 15.5 18
t27.5 7q69 8 111 63t74 138l393 938q13 32 28 32q22 0 37 -36l389 -981q28 -71 58.5 -103.5t52.5 -39t53.5 -11t38.5 -18.5q2 -2 2 -9q0 -16 -53 -16q-36 0 -108 2t-105 2q-68 0 -100 -2q-5 0 -10 -0.5t-18.5 -1.5t-29.5 -2.5t-30 -1.5q-53 0 -64 16v4q0 9 17 16t26 7
q105 8 105 72q0 25 -27 104z" />
    <glyph glyph-name="B" unicode="B" horiz-adv-x="1251" 
d="M475 205l-2 -6q0 -158 193 -158l2 -2q81 0 143 36t95.5 100.5t33.5 143.5q0 157 -95.5 219.5t-262.5 65.5h-54q-53 0 -53 -53v-346zM287 991q0 73 -21 109.5t-86 42.5q-67 6 -67 22q0 15 43 15h16q56 -2 98.5 -4t69.5 -2q10 1 18 1.5t21 0.5q23 0 67 1.5t87.5 3t66.5 1.5
h23q288 -9 374 -146q31 -52 31 -127q0 -90 -45 -151q-66 -83 -242 -123q118 -16 197 -40.5t137 -86.5q35 -38 53.5 -90.5t18.5 -108.5q0 -68 -25 -125q-34 -73 -106.5 -115t-163 -56.5t-203.5 -14.5q-55 0 -153 4t-134 4h-6q-6 0 -84 -4t-112 -4q-10 1 -18 1.5t-15 0.5
q-14 7 -14 14t13 15t24 8q78 6 107.5 39.5t29.5 111.5v803zM565 643q140 10 207.5 62.5t67.5 185.5q0 125 -67.5 188.5t-192.5 63.5h-33q-41 0 -56.5 -11t-15.5 -55v-383q0 -53 47 -53q11 1 20 1.5t23 0.5z" />
    <glyph glyph-name="C" unicode="C" horiz-adv-x="1270" 
d="M1178 45q0 -9 -7 -14.5t-14 -5.5q-18 0 -18 20q-8 45 -41 45h-13q-19 -5 -40.5 -19t-49.5 -32q-64 -31 -135.5 -47.5t-144.5 -18.5h-6q-119 0 -224.5 36.5t-188.5 108.5t-130.5 169.5t-56.5 218.5q0 14 -2.5 31t-2.5 26q0 151 64 289t180 230t268 116q78 8 115 8
q122 0 225 -39q17 -6 56 -25.5t63 -25.5l2 -2q11 0 17 10t13 29.5t11 24.5q8 4 10 4q9 0 16 -13.5t7 -25.5l8 -258v-23q0 -26 -18 -26q-12 0 -29.5 55.5t-21.5 64.5q-28 66 -81.5 116t-120 76t-138.5 26q-105 0 -199 -58t-156 -179.5t-71 -303.5v-64q0 -146 43 -269.5
t143 -203.5q102 -80 233 -80q77 0 148 27.5t120.5 77t94.5 158.5q7 17 18.5 56.5t22.5 65.5q3 13 12 13q5 0 12 -6t7 -13v-350z" />
    <glyph glyph-name="D" unicode="D" horiz-adv-x="1384" 
d="M467 283q0 -5 -0.5 -9t-1.5 -8q0 -178 127 -215q48 -12 88 -12q50 0 107.5 12t97.5 33q112 57 151 174t39 272v19q0 189 -44.5 321t-151.5 204.5t-287 72.5h-21q-43 -2 -64 -9t-30.5 -28t-9.5 -61v-766zM281 199v800q0 125 -74 146q-26 3 -64.5 10t-38.5 19q0 8 17 14
q6 2 37 2q22 0 61 -2t41 -2q26 0 42 -0.5t34 -1.5q29 0 83.5 1.5l109 3t83.5 1.5q100 0 193 -12q120 -22 211.5 -77.5t152 -135t91 -180.5t30.5 -212q0 -54 -10 -122q-21 -152 -117 -266.5t-241 -157.5q-108 -29 -269 -29q-37 1 -68.5 1.5t-82.5 0.5q-128 4 -191 4
q-75 0 -110 -2q-9 0 -29 -2t-29 -2q-16 0 -22 2q-12 6 -12 16q0 14 12 17q16 7 48.5 11t47.5 9q41 16 52.5 53t11.5 93z" />
    <glyph glyph-name="E" unicode="E" horiz-adv-x="1194" 
d="M471 303q0 -7 -0.5 -12t-1.5 -12q0 -101 25 -155t116 -69q78 -12 140 -12q84 0 152.5 20t107.5 68q26 30 42.5 86.5t28.5 56.5h6q13 -2 13 -75q0 -32 -0.5 -49t-1.5 -42.5t-2.5 -45.5t-1.5 -27q0 -22 -9.5 -28.5t-33.5 -8.5q-47 0 -70 2q-190 6 -385 6h-176
q-117 0 -174 -2q-11 0 -41 -4t-45 -4t-31 4q-10 5 -10 16q0 12 10 17q17 7 49.5 11t46.5 9q41 16 52.5 51t11.5 95v792q0 58 -13.5 96.5t-58.5 49.5q-13 4 -45 6t-45 8q-10 7 -10 12q0 4 5.5 10.5t10.5 6.5q9 1 17 1.5t22 0.5q23 0 35.5 -0.5t32 -1.5t38 -2.5t29.5 -1.5
q37 0 60.5 -0.5t50.5 -1.5q61 0 154 2t219 4q26 1 47.5 1.5t58.5 0.5q43 0 84 -6q24 -8 27 -31v-12q0 -9 -1.5 -26.5t-3.5 -35.5t-2 -27t4.5 -38.5t4.5 -49.5q0 -16 -2 -20q-7 -14 -21 -14l-3 2t-5 2q-7 4 -15 40.5t-14.5 56t-21.5 38.5q-67 78 -258 78q-55 0 -129 -4
q-42 0 -57 -18t-15 -56q1 -4 1.5 -8t0.5 -11v-405q20 2 58.5 5t65.5 7t53 14t48 29q31 28 41 50.5t16 58.5t15 57q3 8 14 8q7 0 14 -6t7 -14v-27q0 -27 -4 -89t-4 -89v-12q0 -8 4 -82t4 -109q0 -28 -2 -35q-4 -12 -17 -12q-10 0 -14 15q-10 33 -17 58t-17.5 47t-30.5 40
q-55 45 -185 45h-49v-293z" />
    <glyph glyph-name="F" unicode="F" horiz-adv-x="1139" 
d="M481 199q0 -2 -0.5 -3l-1.5 -3q0 -63 14 -94.5t36 -39.5t62.5 -12t65.5 -14q11 -5 11 -15q0 -6 -8 -12t-15 -6h-43q-26 0 -58 1.5t-59.5 2.5t-46 1.5t-53.5 0.5q-22 0 -38 -0.5t-46.5 -1.5t-65.5 -2.5t-59 -1.5h-35q-16 0 -16 12q0 8 7.5 15.5t17.5 7.5q65 10 94.5 24
t42 44.5t12.5 95.5v792q0 60 -18 99t-70 49q-6 2 -37.5 5t-42.5 11q-8 4 -8 8q0 6 10.5 12.5t16.5 6.5h26q29 0 45 -0.5t40.5 -1.5t50.5 -2.5t42 -1.5q56 0 92 -0.5t78 -1.5q76 0 96.5 0.5t97 2t150.5 3.5q8 0 19.5 1.5t22 2.5t18.5 1.5t22 0.5q75 0 80 -49v-47q0 -19 7 -68
t7 -74q0 -26 -18 -26q-11 0 -17 10t-10.5 28t-5.5 21q-23 64 -74.5 98t-117.5 46t-144 12h-51q-63 -2 -87.5 -7.5t-33 -24.5t-8.5 -61q1 -13 1.5 -24.5t0.5 -34.5v-371q122 6 168.5 15t79.5 50t53 136q4 19 19 19q13 0 16 -13q2 -6 2 -59q0 -62 -0.5 -94t-1.5 -66q0 1 2 -52
t3 -64.5t1 -32.5q0 -66 -8 -72q-6 -6 -10 -6q-6 0 -13.5 13t-7.5 20q-11 71 -46.5 107.5t-86 47t-119.5 10.5h-49v-374z" />
    <glyph glyph-name="G" unicode="G" horiz-adv-x="1460" 
d="M1231 129q-67 -3 -114.5 -21t-131.5 -63q-138 -72 -297 -72q-48 0 -115 9q-112 20 -201.5 75.5t-149 135t-90 176t-30.5 198.5q0 106 32 207.5t96 189.5t153 148q73 49 162.5 73.5t185.5 24.5q127 0 236 -41q6 -3 30 -16t47.5 -22t38.5 -9q2 0 9 2t8 2q4 4 12.5 27.5
t20.5 24.5h4q16 0 16 -31v-21l-8 -260q0 -22 -19 -22q-4 0 -8 4q-1 1 -14.5 38.5t-28 77t-20.5 50.5q-30 53 -79 89.5t-107.5 53.5t-123.5 17q-33 0 -79 -7q-157 -23 -237 -151t-99 -305q-8 -60 -8 -148q0 -124 28.5 -231.5t93.5 -186.5q54 -62 130.5 -94.5t158.5 -32.5
q43 0 78 7q82 17 129.5 48t69 82t24.5 132v30q0 74 -37 111q-17 18 -58.5 23.5t-53.5 11.5q-11 4 -11 12q0 7 12 14t21 7h15q7 0 22.5 -1.5t30.5 -3.5t22 -2q20 0 64 -2t65 -2q12 1 22.5 1.5t27.5 0.5q3 0 52.5 4.5t84.5 4.5q26 0 28 -2q15 -7 15 -15q0 -9 -48.5 -28.5
t-58.5 -28.5q-28 -27 -28 -137q0 -78 10 -156z" />
    <glyph glyph-name="H" unicode="H" horiz-adv-x="1575" 
d="M291 991v8q0 83 -28.5 111t-115.5 37q-8 0 -17 7t-9 13q0 10 16 13q8 1 15.5 1.5t23.5 0.5q33 0 53 -0.5t51 -1.5t64 -2.5t53 -1.5h13q-5 0 57 2t102 2q68 0 74 -6v-11q0 -7 -14 -11.5t-19 -4.5q-76 -6 -106.5 -38.5t-30.5 -109.5q1 -2 1.5 -3.5t0.5 -4.5v-350h637v358
q0 58 -13.5 87t-44 42t-87.5 21q-5 0 -16 7t-11 11q0 10 10 13q7 1 14 1.5t23 0.5q37 0 59.5 -0.5t56.5 -1.5t62.5 -2.5t36.5 -1.5q1 0 78 2t119 2q55 0 59 -2q6 -6 6 -15q0 -6 -9 -11t-17 -5q-86 -9 -116 -37.5t-30 -110.5q2 0 2 -8v-792q0 -3 -0.5 -5.5t-1.5 -5.5
q0 -49 8.5 -77.5t26.5 -41t54.5 -20.5t70.5 -16q12 0 12 -17q0 -16 -14 -16h-37q-23 0 -58 1.5t-66 2.5t-47.5 1.5t-39.5 0.5q-24 0 -40.5 -0.5t-48 -1.5t-66.5 -2.5t-58 -1.5h-26q-23 0 -23 16q0 19 23 19q59 8 90 22.5t45 45.5t14 87v394h-637v-385q0 -3 -0.5 -5.5
t-1.5 -5.5q0 -51 9 -79t26 -40t48.5 -19.5t74.5 -16.5q14 0 14 -17q0 -16 -16 -16h-37q-23 0 -58.5 1.5t-66 2.5t-46.5 1.5t-38 0.5q-24 0 -40.5 -0.5t-48.5 -1.5t-65.5 -2.5t-56.5 -1.5h-27q-24 0 -24 16q0 5 7 12t17 7q89 12 117.5 40.5t28.5 112.5v803z" />
    <glyph glyph-name="I" unicode="I" horiz-adv-x="797" 
d="M498 199q0 -2 -0.5 -4t-1.5 -5q0 -53 10 -81.5t29 -40t67 -21t68 -14.5q7 0 11.5 -5t4.5 -12q0 -13 -12 -16q-9 0 -19 -0.5t-24 -1.5q-40 0 -129 4t-96 4t-97 -4t-129 -4q-13 1 -23 1.5t-18 0.5q-16 8 -16 12q0 8 13.5 16.5t27.5 8.5q84 6 117.5 39.5t33.5 113.5v801
q0 62 -11.5 92.5t-40 43t-91.5 20.5q-8 0 -18.5 7t-10.5 13q0 10 17 13q9 1 16.5 1.5t22.5 0.5q34 0 54 -0.5t51.5 -1.5t64 -2.5t51.5 -1.5h12q-4 0 59 2t101 2q68 0 74 -6q2 -3 2 -11q0 -7 -14 -11.5t-21 -4.5q-52 -4 -82 -20.5t-41.5 -48t-11.5 -87.5v-792z" />
    <glyph glyph-name="J" unicode="J" horiz-adv-x="930" 
d="M479 -176v1175q0 84 -28 111.5t-113 36.5q-10 0 -20.5 7t-10.5 13q0 10 17 13h38q35 0 55 -0.5t51.5 -1.5t63.5 -2.5t52 -1.5q3 1 5.5 1.5t6.5 0.5q-3 0 60 2t102 2q67 0 73 -6q3 -3 3 -11q0 -6 -14.5 -11t-20.5 -5q-78 -6 -107.5 -38.5t-29.5 -109.5q1 -2 1.5 -3.5
t0.5 -4.5v-1057q0 -81 -8 -139.5t-37 -111.5t-84 -93q-54 -35 -123 -52t-138 -17q-72 0 -141 16q-60 19 -93.5 56.5t-33.5 72.5q0 21 14 39.5t36.5 22.5t25.5 4q31 0 47 -20t37 -63t37 -57q32 -26 90 -26q72 0 121 33q42 31 53.5 78.5t11.5 115.5v31z" />
    <glyph glyph-name="K" unicode="K" horiz-adv-x="1442" 
d="M483 455v-256q0 -3 -0.5 -5.5t-1.5 -5.5q0 -51 9 -79t25.5 -39.5t49 -19.5t76.5 -17q7 0 10.5 -5t3.5 -12q0 -16 -16 -16h-37q-23 0 -58 1.5t-66 2.5t-47 1.5t-38 0.5q-25 0 -41.5 -0.5t-48 -1.5t-66 -2.5t-57.5 -1.5h-26q-25 0 -25 16q0 5 7 12t18 7q88 12 116.5 40.5
t28.5 112.5v811q0 83 -28.5 111t-112.5 37q-10 0 -19.5 7t-9.5 13q0 10 16 13q9 1 17 1.5t22 0.5q34 0 54 -0.5t51.5 -1.5t64 -2.5t52.5 -1.5h12q-6 0 58 2t104 2q65 0 71 -6q2 -3 2 -11q0 -6 -14.5 -11t-20.5 -5q-50 -4 -80 -19.5t-43.5 -46.5t-13.5 -82q1 -2 1.5 -3.5
t0.5 -4.5v-477q94 82 182 185t181 227q78 106 78 151q0 35 -25 51q-12 8 -47 13t-46.5 7.5t-14.5 14.5l-3 2q0 15 43 15h48q78 -4 112 -4q24 1 44.5 1.5t51.5 0.5q6 1 13.5 2t14.5 2t12 1.5t14 0.5q22 0 33 -6q6 -6 6 -15q0 -16 -35 -16q-48 -4 -81 -35t-85 -94
q-44 -54 -110 -136t-156 -190l397 -481q15 -18 43.5 -53t55 -61t56 -42t64.5 -20q21 -3 21 -21q0 -6 -7 -12q-6 -6 -36 -6q-12 0 -61 5t-64 5q-70 0 -178.5 -5t-135.5 -5h-24q-11 0 -24 4t-13 12q0 1 1 2.5t1.5 3t1.5 3.5l2 4q9 11 56 15t61 13q22 8 22 35q0 35 -32 78
q-81 113 -318 397z" />
    <glyph glyph-name="L" unicode="L" horiz-adv-x="1233" 
d="M463 258q0 -6 -0.5 -11t-1.5 -11q0 -131 82 -164q72 -29 188 -29q93 0 174 18q109 28 158 111q12 22 20.5 64t18.5 59q7 10 16 10q6 0 11.5 -8.5t5.5 -20.5v-2l-5 -237q0 -43 -30 -43h-35q-29 0 -90 4t-90 4q-254 4 -381 4h-205q-14 0 -40 -1.5t-51.5 -3t-39.5 -1.5h-37
q-6 0 -15.5 4.5t-9.5 11.5q0 9 9 15q7 5 37.5 9.5t56.5 8.5q44 15 57 53t13 97v800q0 83 -28.5 111t-115.5 37q-11 2 -21 8.5t-10 11.5q0 10 19 13h37q34 0 54 -0.5t51.5 -1.5t64 -2.5t51.5 -1.5q4 1 7 1.5t7 0.5q12 0 56.5 1.5t51 2t54.5 0.5q69 0 72 -6q2 -3 2 -11
q0 -7 -14 -11.5t-19 -4.5q-78 -6 -107.5 -38.5t-29.5 -109.5q2 0 2 -8v-733z" />
    <glyph glyph-name="M" unicode="M" horiz-adv-x="1690" 
d="M287 227v848q-31 59 -131 70q-50 3 -50 24q0 10 17 17h27q22 0 103 -2t114 -2q12 1 22 1.5t21 0.5h10q26 0 40.5 -9t24.5 -36l367 -865l377 879q13 28 45 31h20q36 0 59.5 -0.5t51.5 -1.5h22q5 0 16.5 1.5t25 2.5t23 1.5t28.5 0.5q67 0 67 -23q0 -8 -20 -13.5t-44 -10.5
t-43.5 -12t-33.5 -21q-41 -43 -41 -145v-764q0 -63 11 -95t27 -40.5t54 -14.5t59 -16q9 -5 9 -15q0 -18 -21 -18h-26q-21 0 -53.5 1.5t-62.5 2.5t-46 1.5t-39 0.5q-20 0 -35.5 -0.5t-48.5 -1.5t-69.5 -2.5t-61.5 -1.5h-35q-16 0 -16 12q0 8 7.5 15.5t16.5 7.5q64 10 94.5 24
t43 44.5t12.5 95.5v815l-418 -979q-12 -29 -27 -29q-10 0 -20 21l-420 997v-799q0 -3 -0.5 -5.5t-1.5 -6.5q0 -100 43 -139q33 -26 71.5 -32t47.5 -11q6 -3 6 -15q0 -8 -6 -14q-12 -6 -47 -6q-22 0 -62 4t-45 4q-22 0 -74 -4t-77 -4q-36 0 -62 6q-14 3 -14 14q0 17 14 17
q13 4 42 10t48 14t35 27q18 25 22 52t7 91z" />
    <glyph glyph-name="N" unicode="N" horiz-adv-x="1481" 
d="M346 225q0 -100 27.5 -136t76.5 -44t58 -16q6 -6 6 -15q0 -11 -12 -14q-26 -4 -47 -4q-24 0 -73 4t-65 4q-19 0 -61 -4t-63 -4q-18 0 -48 4q-20 5 -20 18q0 8 10 15q15 7 56.5 13t66.5 32q23 26 27.5 56.5t7.5 92.5v824q-57 85 -135 90q-12 0 -34 8t-22 16q0 12 19 15
q20 4 41 4q23 0 35.5 -0.5t31.5 -1.5t39 -2.5t33 -1.5q17 1 31 1.5t35 0.5q54 0 75 -29l723 -905v725q0 180 -141 180h-6q-6 0 -12.5 5.5t-6.5 10.5q0 11 2 11q10 6 52 6q27 0 42 -0.5t37 -1.5t40 -2.5t24 -1.5q11 0 65 2t78 2q31 0 37 -2q8 -3 8 -15q0 -14 -12 -14
q-19 -6 -44.5 -10t-43 -11t-35.5 -28q-30 -36 -30 -119q1 -3 1.5 -6t0.5 -8v-946q0 -52 -29 -52q-24 0 -57 41l-789 981v-768z" />
    <glyph glyph-name="O" unicode="O" horiz-adv-x="1497" 
d="M102 586q1 172 91.5 314.5t241.5 225t319 82.5q27 0 71 -4q159 -16 288 -97.5t203.5 -214t74.5 -290.5v-12q-4 -178 -90.5 -318.5t-233 -219.5t-324.5 -79q-124 0 -242.5 44t-208.5 125.5t-141 193t-51 239.5q1 3 1.5 5.5t0.5 5.5zM319 594q2 -139 47 -274.5t141 -223.5
t241 -88q74 2 139.5 29t120 77t92.5 115q78 147 78 363q0 109 -23 209t-70.5 181.5t-129 133.5t-195.5 55h-17q-138 0 -234.5 -86t-143 -217t-46.5 -270v-4z" />
    <glyph glyph-name="P" unicode="P" horiz-adv-x="1157" 
d="M475 600q78 -8 117 -8q55 0 94 10q86 19 126 92t40 168q0 24 -4 62q-13 109 -84 164t-184 55h-7q-45 0 -71.5 -11t-26.5 -49v-483zM475 555v-356q0 -3 -0.5 -5.5t-1.5 -5.5q0 -51 9 -79t26 -40t48.5 -19.5t74.5 -16.5q14 0 14 -17q0 -16 -16 -16h-37q-23 0 -58.5 1.5
t-66 2.5t-46.5 1.5t-38 0.5q-24 0 -40.5 -0.5t-48.5 -1.5t-65.5 -2.5t-56.5 -1.5h-27q-24 0 -24 16q0 5 7 12t17 7q89 12 117.5 40.5t28.5 112.5v813q0 74 -26 106t-97 38q-12 0 -30.5 5t-18.5 13q-3 0 4 11q8 8 51 8q21 0 36.5 -0.5t27.5 -1.5t20 -1.5t14 -0.5
q16 0 27 -0.5t25 -1.5q38 0 124 2t130 2q119 0 182 -13q78 -14 145.5 -53t107.5 -102t40 -142q0 -92 -41 -154.5t-109.5 -98.5t-152 -51t-170.5 -15q-43 0 -105 4z" />
    <glyph glyph-name="Q" unicode="Q" horiz-adv-x="1556" 
d="M657 -23q-159 18 -287 101t-199 214.5t-71 285.5q0 61 15 133q24 117 85 209t150 156.5t194 98t218 33.5q101 0 195 -26t176 -80q127 -82 193.5 -210.5t66.5 -275.5q0 -136 -61 -264.5t-175 -222.5q-80 -63 -149.5 -92t-167 -51t-149 -38.5t-111.5 -60.5q6 1 11 1.5
t13 0.5q93 0 157 -13t121.5 -37t123 -51t145.5 -50q43 -12 90 -12q70 0 117 32q13 11 34 37.5t33 36.5q9 8 17 8q7 0 10.5 -8t3.5 -20t-0.5 -18.5t-1.5 -14.5q-15 -67 -53 -121.5t-94.5 -85.5t-124.5 -31h-23q-74 7 -130.5 42.5t-137 106t-141.5 109t-134 45.5q-6 1 -11 1.5
t-13 0.5q-48 0 -77.5 -17t-74 -50t-65.5 -33q-33 0 -33 23q0 15 16 33.5t29 25.5q11 6 64 29q27 13 100 57q60 39 106 63zM1180 592l-2 2q0 188 -60 319t-157.5 198t-206.5 67q-83 0 -159 -37t-138 -112.5t-98 -183.5t-37 -253l-1 -3t-2 -5q0 -102 23 -203t73 -185
t131.5 -135t190.5 -51q115 0 200 49.5t138.5 133.5t79 187.5t25.5 211.5z" />
    <glyph glyph-name="R" unicode="R" horiz-adv-x="1384" 
d="M459 199q0 -3 -0.5 -5.5t-1.5 -5.5q0 -51 9 -79t26 -40t48.5 -19.5t75.5 -16.5q13 0 13 -17q0 -16 -15 -16h-36q-23 0 -58.5 1.5t-66.5 2.5t-47.5 1.5t-38.5 0.5q-24 0 -40.5 -0.5t-48.5 -1.5t-65.5 -2.5t-56.5 -1.5h-29q-23 0 -23 16q0 6 7 12.5t18 6.5q58 8 88.5 22.5
t43.5 46t13 86.5v814q0 65 -21.5 100t-82.5 39q-70 6 -70 22q0 5 13 10t34 5h21q29 0 47.5 -0.5t40.5 -1.5q30 0 156 5t204 5q144 0 245 -28t153 -122q39 -73 39 -153q0 -102 -52 -172q-43 -62 -110.5 -91.5t-165.5 -46.5l383 -448q52 -62 135 -92q9 -2 25 -10.5t16 -16.5
q0 -2 -6 -8t-25 -6q-6 0 -18 2t-14 2q-25 2 -78 2h-111q-52 0 -74 27l-380 477q-11 15 -38.5 29t-47.5 14q-33 0 -33 -39v-309zM459 635q0 -51 47 -51q7 0 24 2t23 2q98 5 165 31t101.5 83.5t34.5 159.5q0 146 -71.5 214.5t-217.5 74.5h-26q-80 0 -80 -66v-450z" />
    <glyph glyph-name="S" unicode="S" horiz-adv-x="1004" 
d="M133 356q13 0 18.5 -15t22.5 -71.5t38 -97.5t62 -80q44 -36 103 -57t117 -21q78 0 142.5 35.5t90.5 106.5q16 45 16 92q0 49 -17 95t-48 77q-28 30 -72 54.5t-85.5 41t-94 37.5t-92.5 45q-174 101 -189 264v35q0 73 31 136t92 106q97 69 226 69q40 0 110 -12
q25 -7 53 -20.5t56 -27.5t39 -15v-3q9 0 18 17t17 34t18 17q8 0 14 -6q10 -7 10 -39q0 -9 -2 -26t-2 -21q0 -12 -0.5 -20t-1.5 -17q0 -15 2 -43t2 -41q1 -11 1.5 -21t0.5 -30q0 -49 -22 -49q-1 1 -2.5 1.5t-5.5 0.5q-6 4 -20 44.5t-32 80t-56.5 80.5t-92.5 59q-43 14 -96 14
q-87 0 -152 -46t-71 -132q0 -1 -1 -5.5t-2 -8.5q0 -80 55.5 -133t138.5 -88.5t159 -67.5q51 -23 98 -53t84 -69t59 -85q37 -76 37 -160q0 -60 -24 -127q-46 -107 -157 -165t-239 -58q-122 0 -231 56q-59 36 -72 36q-19 0 -39 -39q-5 -14 -18 -14l-2.5 1.5t-3.5 2.5
q-12 6 -12 25q0 1 3 19.5t3 25.5q4 52 4 82q0 23 -2 73t-2 74q0 4 -0.5 8.5t-1.5 8.5q0 30 20 30z" />
    <glyph glyph-name="T" unicode="T" horiz-adv-x="1384" 
d="M754 199q0 -4 -0.5 -7.5t-1.5 -7.5q0 -50 10.5 -77.5t29 -38.5t66.5 -20.5t68 -14.5q14 0 14 -17q0 -9 -10 -16q-6 -2 -41 -2q-34 0 -104 4t-76 4h-47q-34 0 -96 -2t-115 -4h-54q-18 0 -18 12q0 7 9 15t18 8q92 10 127.5 40t35.5 118v894q0 35 -22.5 44.5t-65.5 9.5h-14
q-28 1 -52.5 1.5t-66.5 0.5q-67 0 -115.5 -8t-80.5 -27q-32 -18 -46 -44t-20 -57.5t-16 -74.5q0 -10 -11 -10q-5 0 -10.5 10.5t-5.5 19.5v199q0 23 12.5 32t38.5 9q25 0 41.5 -0.5t36.5 -1.5q80 -5 203 -7.5t287 -2.5q325 0 489 10q20 1 36 1.5t42 0.5q49 0 49 -41v-199
q0 -12 -5.5 -21t-10.5 -9q-13 0 -13 18q-8 65 -23 105.5t-55 62.5q-62 35 -227 35q-44 0 -67.5 -0.5t-51.5 -1.5q-35 0 -53 -11t-18 -43v-888z" />
    <glyph glyph-name="U" unicode="U" horiz-adv-x="1481" 
d="M287 991q0 62 -11.5 92.5t-39.5 43t-91 20.5q-8 0 -19 7t-11 13q0 10 18 13q8 1 15.5 1.5t23.5 0.5q33 0 52.5 -0.5t51 -1.5t64 -2.5t51.5 -1.5h12q-3 0 60 2t102 2q66 0 72 -6q2 -3 2 -11q0 -7 -14 -11.5t-21 -4.5q-52 -4 -82 -20.5t-41.5 -48t-11.5 -87.5v-618
q0 -340 317 -340h7q133 1 217.5 47t122.5 135t41 223v553q0 63 -12 93t-40.5 42.5t-91.5 20.5q-11 1 -20 7.5t-9 12.5q0 15 23 15h29q24 0 37 -0.5t32 -1.5t40 -2.5t38 -1.5q3 0 20 1.5t39 2.5t37.5 1.5t42.5 0.5q39 0 47 -4q7 -6 7 -13q0 -6 -9 -11t-18 -5
q-57 -8 -88 -20.5t-44 -42t-13 -87.5q2 0 2 -8v-508q0 -131 -23.5 -224.5t-78 -157t-148 -96t-230.5 -32.5q-214 0 -335 86.5t-121 288.5v643z" />
    <glyph glyph-name="V" unicode="V" horiz-adv-x="1421" 
d="M754 188l174 428q149 362 149 447v10q-3 38 -28.5 52t-71.5 20q-12 0 -30.5 5t-18.5 13q4 0 4 8q6 13 33 13q11 0 16.5 -0.5t14 -1.5t16 -2.5t10.5 -1.5q27 0 44.5 -0.5t37.5 -1.5q29 0 74.5 2t109.5 4h2q31 0 31 -19v-2q-3 -10 -17.5 -14t-35.5 -6t-27 -4
q-50 -22 -77 -73.5t-60 -141.5l-297 -742q-12 -31 -24.5 -62.5t-25.5 -59.5t-29 -52t-36 -33h-6q-25 0 -51 70l-336 881q-11 33 -19.5 60.5t-23 59t-33 55.5t-43.5 31q-7 4 -48 10t-48 11q-8 8 -8 12q0 7 7.5 14t16.5 7q14 0 52 -4q101 -9 137 -9q20 0 56.5 2.5t66.5 2.5
q6 0 22 1.5t36.5 2.5t33.5 1.5t37 0.5q35 0 43 -4q6 -3 6 -13q0 -5 -7 -10.5t-12 -5.5q-12 -3 -40 -5.5t-46 -8t-30 -23.5q-11 -28 -11 -39q0 -27 11 -64.5t21 -63.5t28 -68z" />
    <glyph glyph-name="W" unicode="W" horiz-adv-x="1841" 
d="M655 209l269 905q22 76 47 76q11 0 26 -21t25 -57l268 -883l164 529q57 182 57 270q0 11 -0.5 18.5t-1.5 16.5q-3 33 -25.5 53t-58.5 25q-5 1 -22.5 2.5t-29.5 5.5t-13 14h-2q0 21 47 21q3 1 6 1.5t6 0.5q58 -2 100.5 -4t69.5 -2q45 0 123 4q11 0 22 -5.5t11 -13.5
q0 -2 -4 -6q-9 -12 -44.5 -20.5t-41.5 -12.5q-35 -20 -50 -54.5t-36 -106.5l-277 -889q-33 -103 -69 -103q-30 0 -54 84l-254 863l-258 -850q-14 -49 -25.5 -73t-37.5 -24q-18 0 -30 15t-20 39l-12 36l-305 955q-14 53 -38 84.5t-68 36.5q-62 0 -62 26v2q2 15 29 15h23
q23 -2 56 -3t77 -3q7 0 11 -0.5t9 -1.5q21 0 112.5 5t147.5 5h8q32 0 37 -10q2 -3 2 -11q0 -11 -49 -20t-75.5 -19.5t-30.5 -40.5q0 -3 -0.5 -5t-1.5 -5q0 -43 28.5 -153t72 -253.5t90 -289.5t52.5 -168z" />
    <glyph glyph-name="X" unicode="X" horiz-adv-x="1442" 
d="M623 559l-385 504q-28 37 -57.5 53t-63.5 26.5t-37 18.5l-2 2q0 19 47 19h12q144 -8 215 -8q37 0 111 4q-1 0 32 4t52 4q41 0 41 -17v-2q0 -18 -39 -18q-96 -6 -96 -51q0 -31 49 -92l241 -312l119 152q31 33 79 109.5t48 125.5q0 39 -26 49q-12 7 -53 12t-48 11
q-1 1 -3 5t-3 5q0 10 13 15.5t24 5.5q15 0 40.5 -1.5t50.5 -3t40 -1.5h43q68 0 133 6q7 1 13 1.5t18 0.5q30 0 35 -15v-6q0 -10 -14 -15.5t-35.5 -8.5t-26.5 -4q-47 -18 -78.5 -50.5t-79.5 -95.5l-258 -336l422 -536q27 -35 53 -49t62.5 -27.5t36.5 -24.5v-6q-7 -14 -43 -14
q-9 1 -17 1.5t-16 0.5q-70 6 -148 6q-32 0 -91.5 -2t-110.5 -4q-2 0 -22 -2t-34 -2q-45 0 -45 18h-2q0 27 53 27q45 3 68.5 8t24.5 31v4q0 40 -58 113l-252 321l-190 -246q-84 -103 -84 -163q0 -39 25.5 -51.5t72.5 -16.5q41 -5 41 -23q0 -6 -2 -10q-3 -12 -41 -12
q-9 1 -20 2t-19 2t-13 1.5t-11 0.5q-25 2 -76 2q-21 0 -58 -1.5t-74.5 -3t-58.5 -1.5q-47 0 -47 18l1.5 3t0.5 4q6 11 55.5 26.5t55.5 18.5q27 13 46.5 29.5t29.5 28t36.5 46.5t36.5 49z" />
    <glyph glyph-name="Y" unicode="Y" horiz-adv-x="1346" 
d="M733 199q0 -3 -0.5 -5.5t-1.5 -5.5q0 -49 8.5 -77.5t26.5 -41t54.5 -20.5t70.5 -16q12 0 12 -17q0 -16 -14 -16h-37q-23 0 -58 1.5t-66 2.5t-47 1.5t-38 0.5q-25 0 -42 -0.5t-48.5 -1.5t-66.5 -2.5t-58 -1.5h-27q-24 0 -24 16q0 5 7 12t17 7q62 8 92.5 21.5t44 43.5
t13.5 88v277l-305 553q-22 46 -45 78.5t-60 40.5q-12 1 -26.5 2t-26.5 4t-16 12q-1 3 -2 5t-2 3q0 11 13 16t28 5q12 0 35 -1.5t45.5 -3t35.5 -1.5h51q33 1 59.5 1.5t70.5 0.5q3 0 15 1.5t27 2.5t25.5 1.5t30.5 0.5q61 0 61 -15v-4q0 -18 -41 -18q-94 -5 -94 -72
q0 -18 17 -59.5t20 -48.5l238 -457q42 69 115 189t130 225q51 90 51 143q0 35 -16 51q-12 12 -55.5 20t-48.5 19q0 1 -2 3t-2 3q0 15 43 15h41q64 -4 102 -4q16 1 29 1.5t34 0.5q8 0 26 1.5t36.5 3t25.5 1.5h11q18 -3 18 -15q0 -7 -11.5 -14t-19.5 -8q-38 -6 -69.5 -29
t-54.5 -54.5t-42.5 -69t-39.5 -74.5q-74 -134 -273 -443v-278z" />
    <glyph glyph-name="Z" unicode="Z" horiz-adv-x="1118" 
d="M133 0q-39 0 -39 14q0 10 6 19l674 1100h-344q-79 0 -135 -25t-86 -88l-18 -61.5t-31 -61.5v2q-17 0 -17 59q0 16 5.5 71.5t5.5 57.5q0 11 -2 29t-2 23q0 39 49 39h753q37 0 37 -15q0 -13 -14 -30l-672 -1088h330q79 0 139.5 12.5t105 49.5t70.5 108q0 11 16.5 61
t30.5 50q8 0 13 -11q4 -6 4 -28q0 -11 -4 -36t-4 -34q-9 -71 -9 -168v-6q0 -26 -11.5 -34.5t-39.5 -8.5h-811z" />
    <glyph glyph-name="bracketleft" unicode="[" horiz-adv-x="645" 
d="M160 -344v1522h377v-52h-258v-1413h258v-57h-377z" />
    <glyph glyph-name="backslash" unicode="\" horiz-adv-x="645" 
d="M475 -162l-444 1370h67l445 -1370h-68z" />
    <glyph glyph-name="bracketright" unicode="]" horiz-adv-x="569" 
d="M457 -344h-375v57h256v1413h-256v52h375v-1522z" />
    <glyph glyph-name="asciicircum" unicode="^" horiz-adv-x="815" 
d="M203 893l200 299h101l201 -299h-50l-202 180l-199 -180h-51z" />
    <glyph glyph-name="underscore" unicode="_" horiz-adv-x="1004" 
d="M18 -311h883v-103h-883v103z" />
    <glyph glyph-name="grave" unicode="`" horiz-adv-x="700" 
d="M604 893h-55l-285 176q-55 34 -55 76q0 22 15.5 36.5t41.5 14.5q48 0 92 -45z" />
    <glyph glyph-name="a" unicode="a" horiz-adv-x="967" 
d="M565 98q-62 -56 -138 -86.5t-159 -31.5h-8q-45 0 -84 15t-63.5 46t-28.5 78q0 7 -0.5 11t-1.5 9q0 73 55 129.5t133 91.5q131 61 299 123q1 23 1.5 43.5t0.5 59.5q0 93 -28 127q-42 47 -142 47q-12 0 -19 -0.5t-15 -1.5q-76 -9 -93 -34t-29 -77t-48 -61q-22 -4 -27 -4
q-27 0 -42 16.5t-15 44.5q0 52 47 88q42 33 107 49.5t134 16.5q56 0 107.5 -8.5t91.5 -20.5q119 -43 119 -176v-447q0 -37 16 -67.5t43 -30.5q9 0 37 14q25 21 39 21q10 0 10 -14l2 -2q-4 -36 -47 -61t-98 -25t-98 29t-58 89zM569 444q-97 -35 -175.5 -78t-119.5 -102
q-28 -42 -28 -94q0 -73 51 -107q29 -18 68 -18q70 0 137 47t67 107v245z" />
    <glyph glyph-name="b" unicode="b" horiz-adv-x="1004" 
d="M289 227q0 -97 47.5 -150.5t142.5 -53.5l6 2q142 0 202.5 106t60.5 260q0 70 -12.5 129t-41.5 108.5t-78 80t-118 30.5q-102 -1 -155.5 -58t-53.5 -157v-297zM250 82q-4 -6 -15.5 -19.5t-31 -33t-30 -26.5t-15.5 -7q-13 0 -13 20v1080q0 43 -11.5 67t-47.5 29
q-68 0 -68 22v9q6 11 71 19.5t132 17.5q38 10 51 10q23 0 23 -53v-531q82 107 242 107q93 0 179 -45t139.5 -134.5t53.5 -216.5q0 -81 -20.5 -149.5t-59.5 -122.5t-99.5 -91t-137.5 -48q-46 -6 -86 -6q-67 0 -126.5 25t-129.5 77z" />
    <glyph glyph-name="c" unicode="c" horiz-adv-x="852" 
d="M70 377q3 89 40 170.5t102.5 141t147.5 85.5q67 23 154 23q138 0 201 -58q28 -24 28 -61q0 -20 -12 -35t-33 -18q-5 0 -8.5 -0.5t-7.5 -1.5q-24 0 -38 15.5t-28 47t-24 43.5q-20 29 -88 29h-15q-74 -3 -129 -51t-84 -125q-32 -100 -32 -199q0 -133 57 -234t174 -116
q28 -4 45 -4q62 0 97.5 20t64.5 50t39 30q22 0 22 -23q0 -10 -4 -22q-37 -76 -182 -102q-68 -5 -84 -5q-113 0 -205 45.5t-145 133t-53 206.5v15z" />
    <glyph glyph-name="d" unicode="d" horiz-adv-x="1139" 
d="M743 518v6q0 83 -41 138.5t-122 74.5q-23 6 -64 6q-113 0 -178 -97.5t-68 -225.5q0 -12 -0.5 -20t-1.5 -17q0 -139 58.5 -245.5t185.5 -106.5q107 0 169 69t62 179v239zM801 -18q-11 1 -20 27.5t-15 65.5t-6 42q-63 -69 -129 -102t-146 -33h-55q-68 8 -124 36.5
t-100.5 75t-73.5 107t-36 125.5q0 17 -0.5 27t-1.5 22q0 90 31.5 166.5t88 134.5t126.5 88.5t143 30.5q68 0 136.5 -29t119.5 -84v442q0 50 -25.5 63t-67.5 18t-42 22v2q3 18 49 18h29q4 0 74.5 10t113.5 13h2q25 0 25 -25v-1038q0 -123 82 -135q5 -1 19.5 -2t23 -3.5
t12.5 -9.5v-6q0 -11 -10 -14l-55 -14t-109 -27.5t-59 -13.5z" />
    <glyph glyph-name="e" unicode="e" horiz-adv-x="928" 
d="M266 483q-6 -42 -6 -84q0 -106 40 -188t106.5 -126t140.5 -44q102 0 184 76q10 12 22 25.5t25 13.5q3 0 5.5 -0.5t4.5 -1.5q11 -6 11 -19q0 -18 -26 -47t-44 -43q-94 -70 -235 -70q-150 0 -263 82q-73 56 -110 137.5t-37 170.5q0 93 38.5 181t106.5 150q108 99 271 99
q71 0 137 -24.5t114.5 -73.5t69.5 -122q10 -50 10 -57q0 -35 -47 -35h-518zM276 535h361q31 0 31 40q0 32 -19 80.5t-37 63.5q-48 39 -116 39q-62 0 -109 -29q-90 -53 -111 -194z" />
    <glyph glyph-name="f" unicode="f" horiz-adv-x="872" 
d="M362 152q1 -59 21.5 -80t76 -27.5t75.5 -11.5q7 -2 10.5 -7t3.5 -10q0 -12 -14 -16q-9 -2 -46 -2q-34 0 -108 4t-86 4q-14 0 -49.5 -1.5t-71.5 -3t-53 -1.5h-31q-24 0 -24 18q0 12 12 15q18 5 54 12.5t49.5 14t21.5 26.5t8 59v555q1 0 -25 -2t-45 -2q-63 0 -69 21
q0 3 -0.5 4.5t-1.5 3.5q0 25 67 25q28 0 51.5 -2.5t22.5 -2.5q0 41 -0.5 67.5t-1.5 57.5q0 89 17 159.5t61 121.5q82 102 248 102q57 0 96 -8q67 -10 106 -44.5t39 -70.5q0 -37 -37 -47q-12 -4 -20 -4q-20 0 -37.5 12t-24.5 29q-14 39 -26 58t-41 30q-54 13 -66 13
q-72 0 -117 -62t-45 -147v-267q-2 0 33 2.5t76 2.5q110 0 113 -25v-6q0 -19 -43 -19h-179v-548z" />
    <glyph glyph-name="g" unicode="g" horiz-adv-x="1081" 
d="M328 256q-89 33 -142 104t-53 154t53 158q45 62 115 92.5t152 30.5q66 0 131 -20.5t110 -57.5q112 74 187 74q43 0 67.5 -24.5t24.5 -53.5q0 -37 -29 -51q-14 -9 -26 -9q-14 0 -21.5 5.5t-26 23t-33.5 26.5t-34 9q-32 0 -80 -29q63 -95 63 -186v-25q-3 -63 -38.5 -116.5
t-94.5 -86.5q-35 -18 -76.5 -26.5t-90 -11.5t-91.5 -5q-54 -3 -100.5 -19t-46.5 -56q1 -3 1.5 -5.5t0.5 -5.5q5 -51 149 -51q14 1 25.5 1.5t24.5 0.5q171 -2 278 -35t143 -153q13 -54 13 -84q0 -52 -19 -103t-54.5 -90.5t-86.5 -64.5q-112 -51 -248 -51q-206 0 -313 110
q-60 63 -60 142q0 76 60 120q42 27 88 27q36 0 45 -23v-2q0 -8 -23.5 -25.5t-25.5 -21.5q-31 -35 -31 -92q0 -56 29 -94q35 -49 101 -73.5t142 -24.5q81 0 142 22q64 24 101.5 75t37.5 109q0 56 -37 105q-33 42 -98.5 55t-155.5 13h-51q-104 0 -182.5 34.5t-79.5 124.5
q0 120 164 160zM641 512q0 57 -19.5 116.5t-60.5 98.5t-100 39q-84 0 -130 -78.5t-46 -171.5q0 -91 46.5 -169.5t129.5 -78.5l4 2q81 0 128.5 77.5t47.5 164.5z" />
    <glyph glyph-name="h" unicode="h" horiz-adv-x="1139" 
d="M358 152q0 -58 10 -76t34.5 -24.5t72.5 -18.5q5 -2 7.5 -8.5t2.5 -10.5q0 -10 -8 -14q-6 0 -12 -0.5t-14 -1.5q-28 0 -96 4t-74 4q-7 0 -74 -4t-96 -4q-7 1 -13 1.5t-12 0.5q-10 5 -10 16q0 12 10 17q14 5 54.5 14.5t51.5 26.5t11 67v940q0 40 -10 64t-41 33q-16 0 -47 7
t-31 19l2 4q6 19 49 19q117 17 199 39q8 2 18 2q20 0 20 -27v-594q47 72 120 110t161 38q36 0 68 -7q55 -8 104 -39.5t70 -80.5q6 -13 9.5 -29t5.5 -39t2.5 -38.5t0.5 -33.5v-376q0 -3 -0.5 -5.5t-1.5 -5.5q0 -49 11 -66.5t50 -26.5t58 -15q8 -4 8 -17q0 -12 -8 -16
q-6 0 -12.5 -0.5t-14.5 -1.5q-26 0 -93 4t-75 4q-7 0 -75 -4t-95 -4q-8 1 -14 1.5t-12 0.5q-11 5 -11 14q0 2 5 10t8 9q24 9 53.5 15.5t40.5 13.5t17 27.5t6 62.5v401l-3 2q0 91 -44.5 138.5t-110.5 47.5q-54 0 -108.5 -32t-89 -90.5t-34.5 -133.5v-333z" />
    <glyph glyph-name="i" unicode="i" horiz-adv-x="569" 
d="M188 631l-2 2q0 40 -16.5 56t-44.5 19t-43.5 4.5t-15.5 8.5q0 6 4 10q4 8 16 12t29.5 6t23.5 3q70 12 162 49q16 4 21 4q9 0 15.5 -6.5t6.5 -18.5v-628q0 -3 -0.5 -5.5t-1.5 -5.5q0 -49 11 -66.5t50 -26.5t58 -15q8 -4 8 -17q0 -12 -8 -16q-6 0 -12.5 -0.5t-14.5 -1.5
q-26 0 -93 4t-75 4q-7 0 -75 -4t-95 -4q-8 1 -14 1.5t-12 0.5q-11 5 -11 14q0 2 5 10t8 9q16 6 56 15.5t49.5 28t10.5 75.5v479zM293 1227q18 -10 29.5 -33t11.5 -45q0 -19 -6 -37q-9 -25 -36 -41t-56 -16q-3 1 -6 1.5t-7 0.5q-33 5 -55.5 32t-22.5 60q0 12 9 35
q10 27 34.5 42t51.5 15q29 0 53 -14z" />
    <glyph glyph-name="j" unicode="j" horiz-adv-x="702" 
d="M438 -193v787q0 45 -11.5 71.5t-47.5 30.5q-14 0 -50 4.5t-36 16.5q0 4 8 12q13 9 53.5 18t100 22t77.5 22q35 14 41 14q19 0 19 -29v-952q0 -105 -45 -175t-119.5 -103t-167.5 -33q-65 0 -143 20q-106 27 -111 92v6q0 42 47 54q4 1 8 1.5t9 0.5q23 0 37 -13t30 -41.5
t25.5 -41t30.5 -23.5q24 -12 65 -12q58 0 92 20q88 51 88 215v16zM535 1227q18 -10 29 -32t11 -46q0 -19 -6 -37q-10 -25 -36 -41t-56 -16q-3 1 -5.5 1.5t-6.5 0.5q-33 5 -55.5 32t-22.5 60q0 15 8 35q12 28 35.5 42.5t50.5 14.5q30 0 54 -14z" />
    <glyph glyph-name="k" unicode="k" horiz-adv-x="1063" 
d="M217 1081q0 41 -12 65t-49 32q-9 2 -25 4.5t-29.5 7.5t-13.5 14q1 2 1.5 4t0.5 4q5 11 92 26.5t148 27.5q8 2 18 2q21 0 21 -27v-848q7 7 76.5 77t124.5 138t55 99q0 12 -2 14q-7 9 -29.5 12.5t-40 6t-21.5 14.5q0 2 -2 5l-2 3q0 14 25 14l4 2q19 0 57 -4t56 -4
q5 1 9.5 1.5t10.5 0.5q-3 0 33 4t59 4q54 0 54 -16v-6q0 -10 -11 -14.5t-24.5 -7t-26.5 -5.5q-39 -13 -66.5 -40t-76.5 -83l-133 -147l329 -338q44 -44 61.5 -58.5t49.5 -21.5q9 -2 17 -10t8 -15q0 -10 -11 -12q-16 -2 -29.5 -4t-23.5 -2q-9 0 -28 1.5t-37 3t-27 1.5
q-6 0 -22 -2t-23 -2q-26 0 -43 14l-273 295q-20 22 -34.5 33.5t-34.5 11.5h-4v-204q0 -3 -0.5 -5.5t-1.5 -5.5q0 -49 11 -66.5t52 -27t55 -14.5q11 -3 11 -17q0 -13 -11 -16q-6 0 -12 -0.5t-14 -1.5q-27 0 -94 4t-74 4q-6 0 -75 -4t-97 -4q-7 1 -13 1.5t-12 0.5
q-10 5 -10 14q0 2 4 10t8 9q24 9 53.5 15.5t41 14t17 27.5t5.5 62v929z" />
    <glyph glyph-name="l" unicode="l" horiz-adv-x="569" 
d="M344 152q0 -3 -0.5 -5.5t-1.5 -5.5q0 -49 11 -66.5t50 -26.5t58 -15q10 -3 10 -17q0 -13 -10 -16q-6 0 -12.5 -0.5t-14.5 -1.5q-26 0 -93 4t-75 4q-7 0 -75 -4t-95 -4q-8 1 -14 1.5t-12 0.5q-11 5 -11 14q0 2 5 10t8 9q16 6 56.5 15.5t50 28.5t9.5 75v929q0 50 -17.5 73
t-46.5 27.5t-46.5 7t-18.5 15.5q2 15 31 21q111 17 160 26q6 1 32.5 9t36.5 8q25 0 25 -27v-1089z" />
    <glyph glyph-name="m" unicode="m" horiz-adv-x="1632" 
d="M358 639q98 150 254 158h29q181 0 229 -154q50 70 124 111t157 41q39 0 59 -4q107 -17 149 -77.5t42 -172.5v-389q0 -57 10.5 -75.5t49.5 -28t57 -15.5q5 -2 7.5 -8.5t2.5 -10.5q0 -10 -8 -14q-6 0 -12.5 -0.5t-14.5 -1.5q-28 0 -96 4t-74 4t-74 -4t-96 -4q-7 1 -13 1.5
t-12 0.5q-10 3 -10 16q0 14 10 17q14 5 54.5 14.5t51.5 26.5t11 67v424q0 81 -38 127.5t-115 46.5q-100 0 -153.5 -76t-53.5 -180v-342q0 -49 10.5 -66.5t52 -27.5t51.5 -14q6 -1 9.5 -8t3.5 -11q0 -11 -11 -14q-5 0 -11.5 -0.5t-14.5 -1.5q-26 0 -94 4t-74 4q-7 0 -75 -4
t-95 -4q-7 1 -13 1.5t-12 0.5q-10 3 -10 14q0 16 12 19q18 7 50.5 14t44 14.5t17 27.5t5.5 63v413q0 49 -17 89t-51.5 62.5t-84.5 22.5q-100 0 -154.5 -76t-54.5 -180v-331q0 -3 -0.5 -5.5t-1.5 -5.5q0 -49 11 -66.5t49.5 -26.5t57.5 -15q11 -3 11 -17q0 -13 -11 -16
q-6 0 -12 -0.5t-14 -1.5q-26 0 -94 4t-74 4t-73 -4t-97 -4q-8 1 -14.5 1.5t-10.5 0.5q-12 4 -12 14q0 2 4 10t8 9q24 9 53.5 15.5t40.5 13.5t17 27.5t6 62.5v438q0 117 -80 119q-15 0 -31 8t-16 14q0 11 29 14q-1 0 100.5 28t110.5 28h2q17 -3 23.5 -60.5t6.5 -101.5z" />
    <glyph glyph-name="n" unicode="n" horiz-adv-x="1139" 
d="M369 152q0 -3 -0.5 -5.5t-1.5 -5.5q0 -49 11 -66.5t49.5 -26.5t57.5 -15q11 -3 11 -17q0 -13 -11 -16q-6 0 -12 -0.5t-14 -1.5q-26 0 -94 4t-74 4t-73 -4t-97 -4q-8 1 -14.5 1.5t-10.5 0.5q-12 4 -12 14q0 2 4 10t8 9q24 9 53.5 15.5t40.5 13.5t17 27.5t6 62.5v438
q0 117 -80 119q-15 0 -31 8t-16 14q0 11 29 14q61 13 123 34.5t75 21.5q24 0 32.5 -32.5t14.5 -139.5q108 166 285 166q39 0 74 -7q58 -8 105.5 -39t70.5 -81q16 -42 16 -117v-399q0 -57 10.5 -75.5t49.5 -28t57 -15.5q10 -2 10 -19q0 -11 -8 -14q-6 0 -12 -0.5t-14 -1.5
q-27 0 -94 4t-76 4q-8 0 -75 -4t-93 -4q-8 1 -14 1.5t-11 0.5q-12 3 -12 16q0 14 12 17q19 6 57.5 15t49 26t10.5 67v412l-2 2q0 90 -45.5 138t-112.5 48q-53 0 -107 -31.5t-88 -90.5t-34 -134v-333z" />
    <glyph glyph-name="o" unicode="o" horiz-adv-x="1024" 
d="M82 387q1 116 60.5 210t158 147t213.5 53q79 0 155.5 -33t132 -87t89 -128.5t33.5 -155.5q0 -85 -33 -161t-92 -134t-136.5 -89.5t-160.5 -31.5h-2q-86 2 -162.5 32.5t-134 85t-89.5 128.5t-32 160v4zM449 758q-69 -20 -114 -78t-64 -135t-19 -162q0 -43 14 -139
q16 -69 47.5 -121.5t78 -82.5t106.5 -30q34 0 82 15q96 31 134 128t38 222v53q-8 174 -72 250q-31 39 -80.5 61.5t-99.5 22.5q-19 0 -51 -4z" />
    <glyph glyph-name="p" unicode="p" horiz-adv-x="1100" 
d="M350 373q0 -22 -0.5 -37t-1.5 -33q0 -139 53 -194q32 -32 76 -52t90 -20q42 0 80.5 15t72 45t52.5 63q49 80 49 227q0 93 -22 173.5t-76.5 134t-147.5 53.5q-104 0 -174 -76q-53 -66 -53 -215q1 -21 1.5 -39t0.5 -45zM358 90v-426q0 -46 9.5 -68.5t25 -28.5t42 -10
t42.5 -14q8 -3 8 -12q0 -6 -6 -13t-14 -7h-21q-27 0 -82 6t-81 6q-20 0 -79 -6t-85 -6q-8 1 -14.5 1.5t-16.5 0.5q-5 0 -10.5 6.5t-5.5 11.5q0 7 10 12q17 9 53 15.5t51 25.5t15 80v940q0 119 -78 121q-19 2 -34 8.5t-15 11.5q0 13 28 19q63 12 125.5 33.5t73.5 21.5
q23 0 31 -30t16 -125q103 135 270 135q96 0 183.5 -50.5t141.5 -143t54 -212.5q0 -122 -56.5 -215.5t-147 -144.5t-189.5 -51q-67 0 -131 27.5t-113 80.5z" />
    <glyph glyph-name="q" unicode="q" horiz-adv-x="967" 
d="M864 -340q0 -2 -0.5 -4t-1.5 -4q0 -51 11.5 -69t57.5 -30t50 -14q8 -4 8 -14q0 -11 -8 -17q-6 -2 -31 -2q-27 0 -85.5 4.5t-78.5 4.5t-78.5 -4.5t-86.5 -4.5q-25 0 -29 2q-12 6 -12 17q0 10 12 14q21 8 58.5 17t48 28t10.5 76v422q-46 -50 -109.5 -75t-132.5 -25
q-84 0 -161.5 35.5t-129.5 99.5q-90 119 -90 254q0 109 54 206.5t150.5 157.5t211.5 60h30q59 -4 92 -15t62.5 -28.5t48.5 -20.5q3 0 5 -0.5t3 -1.5q17 0 34 7.5t36 20t29 17.5q2 2 8 2q18 0 18 -65q0 -21 -1.5 -43.5t-2.5 -32.5v-975zM266 375q2 -139 53.5 -241t172.5 -105
q4 0 6 -0.5t4 -1.5q101 0 151 55t62 133t12 188v43q0 94 -11.5 158.5t-57.5 108t-138 43.5q-90 0 -148 -57t-83 -143.5t-25 -174.5q1 -2 1.5 -3.5t0.5 -2.5z" />
    <glyph glyph-name="r" unicode="r" horiz-adv-x="852" 
d="M369 616q35 67 83 109t115 55q34 4 56 4q92 0 122 -55q9 -18 9 -39q0 -27 -16 -49.5t-44 -22.5q0 1 -1.5 2t-2.5 1q-24 1 -33.5 12t-24 37.5t-29.5 39.5t-44 13h-2q-86 -1 -132 -73t-46 -165v-333q0 -57 10.5 -75.5t49.5 -28t57 -15.5q5 -2 7.5 -8.5t2.5 -10.5
q0 -10 -8 -14q-6 0 -12.5 -0.5t-14.5 -1.5q-26 0 -94 4t-76 4q-6 0 -73 -4t-95 -4q-8 1 -14 1.5t-10 0.5q-13 3 -13 16q0 14 13 17q17 6 55.5 15t48.5 26.5t10 66.5v416q0 73 -20.5 110.5t-83.5 43.5q-5 0 -9.5 -0.5t-9.5 -1.5q-23 0 -30 10q0 3 -0.5 5.5t-1.5 4.5
q0 11 18 16q7 3 126 30.5t124 27.5h2q9 -6 15.5 -44t9.5 -76.5t6 -66.5z" />
    <glyph glyph-name="s" unicode="s" horiz-adv-x="721" 
d="M109 225q0 5 3.5 13t8.5 8h4q7 -1 12 -11t9 -27t4 -18q26 -73 79 -123t123 -51h4q39 0 76 17.5t59.5 48.5t22.5 68v10q-4 50 -43.5 86.5t-90 62.5t-112.5 58q-121 71 -145 159q-1 9 -2.5 18.5t-3.5 20.5t-2 17q0 65 37 125q63 88 182 88q54 0 112 -17q26 -8 35 -8
q23 0 45 12.5t25 12.5h2q12 -2 12 -88q0 -47 -0.5 -68.5t-1.5 -44.5q0 -21 -10 -21q-8 0 -18 12.5t-15 26.5q-15 37 -41 71t-61 54.5t-76 20.5h-4q-49 0 -82 -29t-33 -74v-18q8 -38 46.5 -70.5t93 -61t94.5 -48.5q63 -32 104 -70t55 -100q1 -6 3 -20.5t3 -24t1 -19.5
q0 -40 -15 -94q-23 -73 -92 -112.5t-154 -39.5q-15 0 -65 5q-23 5 -61 20.5t-54 15.5t-24 -8q-18 -18 -39 -18q-10 0 -10 14v219z" />
    <glyph glyph-name="t" unicode="t" horiz-adv-x="682" 
d="M168 723q-90 0 -90 14q0 8 10.5 17t43.5 34.5t47 38t34 35.5q13 13 25.5 33t26 43t22.5 35q4 4 14 4q18 0 18 -86q0 -29 -2 -72l-2 -43q28 1 53.5 1.5t73.5 0.5t68 -4q18 -6 18 -24v-5q0 -20 -26 -20q-26 -2 -45 -4t-31 -2q-18 0 -55 2t-54 2v-530q0 -56 11.5 -92.5
t50.5 -55.5q28 -12 49 -12q25 0 45 10q7 2 43 38t51 36q14 0 17 -17v-8q0 -17 -31 -53q-35 -30 -83 -43.5t-97 -13.5h-8q-111 0 -154 52t-43 167v522z" />
    <glyph glyph-name="u" unicode="u" horiz-adv-x="1118" 
d="M743 625q0 51 -11 74t-52 32q-4 1 -24.5 5.5t-31 9.5t-10.5 14q0 8 4 12q9 8 37 8q14 0 21.5 -0.5t17.5 -1.5t19 -2.5t12 -1.5q9 0 15 -0.5t14 -1.5q11 1 24.5 2l27 2t21.5 1.5t23 0.5q29 0 38 -11t9 -40v-545q0 -38 7.5 -63t29 -39t61.5 -17q12 0 19.5 -5t7.5 -13
q0 -12 -27 -18q-57 -10 -121.5 -32t-78.5 -22q-25 0 -31.5 31.5t-11.5 140.5q-111 -163 -289 -163h-37q-69 5 -125 35t-84 89q-20 44 -20 117q1 6 1.5 11.5t0.5 13.5v377q0 51 -11 73.5t-53 32.5q-12 3 -26 6t-26.5 9t-12.5 14q0 6 6 12q5 8 35 8q14 0 21.5 -0.5t17.5 -1.5
t19.5 -2.5t12.5 -1.5q7 0 12 -0.5t11 -1.5q10 0 30.5 1.5l41 3t30.5 1.5q28 0 37.5 -11t9.5 -40v-504l-2 -6q0 -89 46 -136.5t114 -47.5q53 0 107.5 31.5t89 90.5t34.5 134v336z" />
    <glyph glyph-name="v" unicode="v" horiz-adv-x="967" 
d="M528 172q22 48 65.5 162t76 212t32.5 136v12q-6 27 -52 41t-46 23q0 10 2 12q6 6 37 6q18 0 28.5 -0.5t23.5 -1.5t25 -2.5t15 -1.5l31 2t51 2q44 0 47 -14v-2q0 -10 -26 -22t-27 -13q-28 -23 -47 -64t-45 -108l-217 -551q-11 -23 -31 -23q-2 1 -5 2t-5 1q-11 3 -19.5 16
t-12 24.5t-9.5 32.5l-246 590q-14 47 -38.5 65.5t-55 26.5t-35.5 17q0 3 -0.5 4t-1.5 2q0 9 8.5 13.5t18.5 4.5h6q63 -8 147 -8q13 1 23.5 1.5t25.5 0.5q5 0 17 1.5t27 2.5t25.5 1.5t31.5 0.5q47 0 53 -12v-6q0 -19 -53 -19q-51 -6 -51 -57q0 -13 4 -29t9 -30.5t13 -34.5
l14 -35z" />
    <glyph glyph-name="w" unicode="w" horiz-adv-x="1346" 
d="M643 543l-203 -543q-7 -23 -30 -23q-22 0 -25 21l-207 651q-14 43 -40.5 61t-59 28t-33.5 20q2 18 43 18q86 -4 129 -4q30 0 75 2t107 4l2 -2q39 0 39 -16q0 -18 -53 -23q-33 -1 -49 -21t-16 -48q0 -17 8 -45l137 -430l207 563q6 18 18 18q14 0 17 -16l225 -586l133 434
q10 29 10 62q0 62 -90 73q-7 0 -16.5 6t-9.5 11q0 9 6 12q9 6 26 6q9 0 27 -2t22 -2q14 0 22.5 -0.5t18.5 -1.5q15 0 40.5 1.5t50.5 3t40 1.5q35 0 35 -16v-4q-3 -7 -28.5 -14.5t-51.5 -33t-49 -92.5l-202 -606q-13 -33 -33 -33t-33 35z" />
    <glyph glyph-name="x" unicode="x" horiz-adv-x="1063" 
d="M422 360l-262 320q-36 51 -78 59q-7 0 -22 5.5t-15 13.5q0 6 4 10q13 10 33 10q4 0 15.5 -1.5t22 -3t13.5 -1.5q24 0 38.5 -0.5t31.5 -1.5q28 0 70 2t98 4q7 1 12.5 1.5t15.5 0.5q11 0 23 -4q3 -2 6.5 -6.5t3.5 -9.5q0 -10 -8 -10q-13 -3 -38 -8t-39.5 -12t-14.5 -21
q0 -10 16 -29l168 -213l115 143q45 55 45 86q0 35 -51 41q-50 6 -50 23q0 14 39 14q3 1 5.5 1.5t5.5 0.5q68 -4 106 -4q54 0 107 6h28q31 0 31 -14v-2q0 -17 -37 -17q-66 -13 -141 -100l-176 -215l243 -291q42 -44 69.5 -65.5t64.5 -30.5q41 -7 43 -25v-2q0 -14 -37 -14
q-53 1 -98.5 1.5t-118.5 0.5h-54q-11 0 -37 -2t-38 -2q-23 0 -29 2q-14 3 -14 14q0 7 6 13q14 9 60 14t46 22q0 22 -31 58l-165 203l-148 -187q-22 -25 -22 -47q0 -19 18.5 -31.5t48 -21.5t33.5 -12q6 -7 6 -13q0 -12 -61 -12q-24 1 -43 1.5t-29 0.5l2 2h-35q-25 0 -74 -2
t-73 -2h-6q-17 0 -17 10l2 4q3 12 17 18t31.5 9.5t33.5 7.5q33 14 60 41t63 72z" />
    <glyph glyph-name="y" unicode="y" horiz-adv-x="967" 
d="M520 178l166 406q25 67 25 92q0 24 -15 40.5t-47 20.5q-45 6 -45 21q0 7 9.5 12.5t27.5 5.5h10q34 -2 59 -4t40 -2q27 0 71 4h15q32 0 32 -16q0 -11 -11 -16t-30 -11q-30 -11 -44 -38t-35 -79l-228 -548q-77 -193 -156.5 -366.5t-130.5 -188.5q-17 -5 -24 -5
q-22 0 -35.5 17.5t-13.5 38.5q0 19 8 32q10 22 29 31.5t40.5 20t44 33t46.5 69.5q66 125 98 221q8 26 8 37q0 33 -18 74l-232 541q-23 57 -45 83t-42 28.5t-31 4.5t-17 15q0 2 -0.5 3t-1.5 1q0 10 13.5 16t23.5 6h12q18 0 57 -4t58 -4h37q32 0 98 4h37q59 0 59 -16
q0 -4 -8 -10.5t-12 -6.5q-48 -9 -70 -20t-22 -39q0 -9 12 -49z" />
    <glyph glyph-name="z" unicode="z" horiz-adv-x="836" 
d="M272 39q12 0 62 -2t82 -2q174 0 225 35q17 12 26.5 38t18.5 52.5t23 34.5q2 2 8 2q14 0 14 -47q0 -30 -2 -51t-4 -33q0 -4 -0.5 -5.5t-1.5 -3.5v-16q0 -41 -23 -41h-602q-16 0 -16 10q0 8 14 29l445 698h-187q-52 0 -81.5 -4.5t-55 -22t-43.5 -59.5q-7 -31 -11.5 -45
t-21.5 -14h-4q-14 0 -14 22q1 4 1.5 7.5t0.5 7.5q2 21 4 51t6 70q4 26 47 26h512q29 0 29 -14l-4 -12z" />
    <glyph glyph-name="braceleft" unicode="{" horiz-adv-x="852" 
d="M748 1305v-43q-98 -4 -144 -31.5t-57.5 -77t-11.5 -147.5q1 -8 1.5 -15t0.5 -18v-76q0 -108 -14.5 -171t-67.5 -108t-166 -71q114 -27 166.5 -71t67 -107.5t14.5 -171.5v-76q0 -16 -0.5 -25.5t-1.5 -21.5q0 -91 12 -137.5t58 -72t143 -28.5v-45q-125 2 -196.5 25
t-104.5 87.5t-33 184.5v184q0 95 -22.5 144.5t-72.5 72t-147 33.5v51q71 9 116 23t73 39.5t40.5 71.5t12.5 116v185q0 121 33 184.5t103.5 86.5t197.5 26z" />
    <glyph glyph-name="bar" unicode="|" horiz-adv-x="625" 
d="M406 1348h110v-1762h-110v1762z" />
    <glyph glyph-name="braceright" unicode="}" horiz-adv-x="852" 
d="M172 1305q129 -3 198.5 -26.5t103.5 -87t34 -183.5v-185q0 -69 12.5 -115t40 -72t73.5 -40t116 -23v-51q-97 -11 -147.5 -33.5t-72.5 -72.5t-22 -144v-184q0 -121 -33.5 -185t-105 -87t-197.5 -25v45q98 1 144 28.5t57.5 77t11.5 146.5v33q0 25 -0.5 41t-1.5 35
q0 109 15 172.5t68 107.5t165 70q-87 21 -137.5 52.5t-73.5 74t-30 97.5t-7 140q1 15 1.5 28t0.5 34v33q0 98 -11.5 147.5t-57.5 77t-144 31.5v43z" />
    <glyph glyph-name="asciitilde" unicode="~" horiz-adv-x="797" 
d="M700 1149q-21 -93 -61 -134.5t-102 -41.5q-31 0 -113 20q-23 4 -51 10.5t-39 6.5q-58 0 -84 -78h-43q34 180 168 180q45 0 80 -12q9 -2 52.5 -13.5t61.5 -11.5q63 0 86 74h45z" />
    <glyph glyph-name="bullet" horiz-adv-x="569" 
d="M264 416l185 -230q18 -25 18 -49v-4q0 -11 -10 -19t-21 -8q-14 0 -26 7.5t-29 21.5t-21 17l-245 231q-23 11 -23 33q0 14 23 33l245 229q18 14 37.5 28.5t34.5 16.5q35 0 35 -23q0 -26 -18 -53z" />
    <glyph glyph-name="nonbreakingspace" unicode="&#xa0;" 
 />
    <glyph glyph-name="exclamdown" unicode="&#xa1;" horiz-adv-x="1366" 
d="M616 293l-378 770q-28 37 -57.5 53t-63.5 26.5t-37 18.5l-2 2q0 17 47 17q4 1 7.5 1.5t4.5 0.5q144 -8 215 -8q37 0 111 4q-1 0 32 4t52 4q41 0 41 -17v-2q0 -18 -39 -18q-111 -6 -111 -64q0 -12 23 -63l258 -545l205 418q59 125 59 180q0 39 -22 55q-9 8 -30 10.5
t-44 5.5t-27 7q-3 6 -4 7.5t-2 2.5q0 10 13 15.5t24 5.5q16 0 41.5 -1.5t50.5 -3t41 -1.5h41q68 0 133 6q7 1 13 1.5t18 0.5q30 0 35 -15v-6q0 -10 -14 -15.5t-35.5 -8.5t-26.5 -4q-52 -19 -92.5 -58t-65.5 -88l-414 -807q-49 -98 -99 -149t-142 -51q-38 0 -63 22.5
t-25 61.5t29 61.5t65 22.5q22 0 56 -12.5t50 -12.5q51 0 91 82zM707 1296q-73 0 -144 35.5t-113 99t-42 140.5h69q0 -79 70.5 -125.5t154.5 -46.5q87 0 161.5 46.5t74.5 125.5h70q0 -76 -43.5 -140t-114.5 -99.5t-143 -35.5z" />
    <glyph glyph-name="cent" unicode="&#xa2;" horiz-adv-x="967" 
d="M496 844q-72 0 -143 35.5t-113.5 98t-42.5 140.5h69q0 -79 72 -125.5t154 -46.5q54 0 109 20t91.5 59t36.5 93h68q0 -76 -43.5 -139.5t-114.5 -99t-143 -35.5zM520 178l166 406q25 67 25 92q0 24 -15 40.5t-47 20.5q-45 6 -45 21q0 7 9.5 12.5t27.5 5.5h10q34 -2 59 -4
t40 -2q27 0 71 4h15q32 0 32 -16q0 -11 -11 -16t-30 -11q-30 -11 -44 -38t-35 -79l-228 -548q-77 -193 -156.5 -366.5t-130.5 -188.5q-17 -5 -24 -5q-22 0 -35.5 17.5t-13.5 38.5q0 19 8 32q10 22 29 31.5t40.5 20t44 33t46.5 69.5q66 125 98 221q8 26 8 37q0 33 -18 74
l-232 541q-23 57 -45 83t-42 28.5t-31 4.5t-17 15q0 2 -0.5 3t-1.5 1q0 10 13.5 16t23.5 6h12q18 0 57 -4t58 -4h37q32 0 98 4h37q59 0 59 -16q0 -4 -8 -10.5t-12 -6.5q-48 -9 -70 -20t-22 -39q0 -9 12 -49z" />
    <glyph glyph-name="sterling" unicode="&#xa3;" horiz-adv-x="1024" 
d="M57 694h865v-92h-865v92zM489 1071q36 0 59 -24t23 -60q0 -30 -24 -54t-58 -24q-29 0 -54 25t-25 53q0 34 24 59t55 25zM489 387q35 0 58.5 -22.5t23.5 -57.5q0 -33 -23.5 -58.5t-58.5 -25.5q-30 0 -54.5 26t-24.5 58q0 34 23 57t56 23z" />
    <glyph glyph-name="currency" unicode="&#xa4;" horiz-adv-x="1194" 
d="M121 174l160 162q-41 67 -63.5 131.5t-22.5 134.5q0 107 81 258l-159 162l59 59l162 -166q118 93 266 93q121 0 262 -93l164 166l60 -57l-168 -166q44 -73 66 -133t22 -131q0 -64 -23 -125t-65 -127l165 -168l-57 -59l-164 168q-137 -90 -262 -90q-44 0 -92 10.5
t-88.5 29.5t-79.5 46l-164 -164zM891 598q0 78 -39 145t-105.5 106.5t-142.5 39.5t-144.5 -39.5t-108.5 -107t-40 -144.5q0 -78 40 -144t108 -104.5t145 -38.5t142.5 38.5t105 104.5t39.5 144z" />
    <glyph glyph-name="yen" unicode="&#xa5;" 
 />
    <glyph glyph-name="brokenbar" unicode="&#xa6;" horiz-adv-x="645" 
d="M426 1231h115v-625h-115v625zM426 285h115v-596h-115v596z" />
    <glyph glyph-name="section" unicode="&#xa7;" horiz-adv-x="948" 
d="M733 236q111 -107 111 -211q0 -79 -44 -147.5t-116 -108t-152 -39.5q-69 0 -138 31.5t-113.5 90t-44.5 130.5q0 26 13 44t40 19q38 0 73 -74.5t65.5 -111.5t113.5 -37q70 0 121 44t51 114q0 63 -55.5 109t-179.5 123.5t-187.5 147.5t-63.5 168q0 130 135 267
q-110 102 -110 202q0 75 42 132.5t110.5 88.5t140.5 31q50 0 112.5 -26t106 -71t43.5 -97l-53 -74q-31 0 -66 63.5t-59 93t-88 29.5q-39 0 -76 -15.5t-61.5 -45.5t-24.5 -66q0 -62 52.5 -107.5t172.5 -123.5t184 -148t64 -161q0 -68 -31 -130.5t-88 -133.5zM410 752
q-62 -80 -62 -150q0 -49 34 -94.5t84 -84t126.5 -86.5t93.5 -61q23 49 34 80.5t11 69.5q0 51 -33 97.5t-77 80.5t-110 77.5t-101 70.5z" />
    <glyph glyph-name="dieresis" unicode="&#xa8;" horiz-adv-x="1194" 
d="M471 303q0 -7 -0.5 -12t-1.5 -12q0 -101 25 -155t116 -69q78 -12 140 -12q84 0 152.5 20t107.5 68q26 30 42.5 86.5t28.5 56.5h6q13 -2 13 -75q0 -32 -0.5 -49t-1.5 -42.5t-2.5 -45.5t-1.5 -27q0 -22 -9.5 -28.5t-33.5 -8.5q-47 0 -70 2q-190 6 -385 6h-176
q-117 0 -174 -2q-11 0 -41 -4t-45 -4t-31 4q-10 5 -10 16q0 12 10 17q17 7 49.5 11t46.5 9q41 16 52.5 51t11.5 95v792q0 58 -13.5 96.5t-58.5 49.5q-13 4 -45 6t-45 8q-10 7 -10 12q0 4 5.5 10.5t10.5 6.5q9 1 17 1.5t22 0.5q23 0 35.5 -0.5t32 -1.5t38 -2.5t29.5 -1.5
q37 0 60.5 -0.5t50.5 -1.5q61 0 154 2t219 4q26 1 47.5 1.5t58.5 0.5q43 0 84 -6q24 -8 27 -31v-12q0 -9 -1.5 -26.5t-3.5 -35.5t-2 -27t4.5 -38.5t4.5 -49.5q0 -16 -2 -20q-7 -14 -21 -14l-3 2t-5 2q-7 4 -15 40.5t-14.5 56t-21.5 38.5q-67 78 -258 78q-55 0 -129 -4
q-42 0 -57 -18t-15 -56q1 -4 1.5 -8t0.5 -11v-405q20 2 58.5 5t65.5 7t53 14t48 29q31 28 41 50.5t16 58.5t15 57q3 8 14 8q7 0 14 -6t7 -14v-27q0 -37 -5 -102t-5 -76q1 -3 1.5 -5.5t0.5 -6.5q0 -8 4 -82t4 -109q0 -28 -2 -35q-4 -12 -17 -12q-10 0 -14 15q-10 33 -17 58
t-17.5 47t-30.5 40q-55 45 -185 45h-49v-293zM735 1384q0 47 34 79t79 32q47 0 81 -32t34 -79q0 -45 -34.5 -78.5t-80.5 -33.5q-44 0 -78.5 33.5t-34.5 78.5zM371 1384q0 47 34 79t78 32q49 0 82 -32t33 -79q0 -45 -33.5 -78.5t-81.5 -33.5q-43 0 -77.5 33.5t-34.5 78.5z
" />
    <glyph glyph-name="copyright" unicode="&#xa9;" horiz-adv-x="1481" 
d="M1012 946v-211h-33q-12 48 -40 84t-68.5 57t-90.5 21q-114 0 -169.5 -86t-55.5 -207q0 -125 52.5 -208t172.5 -83q137 0 244 152v-68q-51 -65 -120 -100t-146 -35q-96 0 -173 41t-121 115.5t-44 173.5q0 97 43.5 177.5t121 126.5t173.5 46q44 0 104 -22.5t82 -22.5
q7 0 13 4.5t9.5 11t7.5 16.5t5 13zM743 -25q-168 0 -311 85.5t-227 229.5t-84 312q0 124 49 240t135 202t198 134.5t240 48.5t243 -49.5t199.5 -134t133.5 -198t49 -243.5q0 -127 -48.5 -241t-134 -200.5t-201 -136t-241.5 -49.5zM743 39q115 0 220 44.5t181.5 120.5
t121.5 180.5t45 217.5q0 115 -44.5 219t-122 181.5t-181.5 122t-220 44.5q-114 0 -216 -44t-179.5 -122.5t-121.5 -182.5t-44 -218q0 -152 75.5 -282t205 -205.5t280.5 -75.5z" />
    <glyph glyph-name="ordfeminine" unicode="&#xaa;" horiz-adv-x="1251" 
d="M303 584q0 -145 33 -248q41 -147 153 -240q48 -37 109 -58.5t125 -21.5q76 0 147.5 28t120.5 77q53 53 94 158q7 17 22.5 65.5t18.5 56.5q0 7 4.5 10t8.5 3q5 0 10.5 -5.5t5.5 -13.5v-350q0 -9 -5 -14.5t-13 -5.5q-18 0 -21 20q-8 45 -41 45h-12q-18 -5 -53 -27.5
t-37 -23.5q-125 -63 -279 -66h-6q-157 0 -292 65.5t-216.5 186t-93.5 281.5q0 10 -2 29t-2 28q0 113 37 220.5t104 194.5t164.5 145.5t208.5 74.5q74 8 115 8q121 0 225 -39q19 -7 56 -26t61 -25q2 0 3 -0.5t1 -1.5q11 0 16.5 10t12 28.5t12.5 25.5q4 4 10 4q8 0 14 -14.5
t6 -24.5l11 -258v-23q0 -26 -19 -26q-12 0 -29.5 55.5t-21.5 64.5q-28 65 -80 113.5t-120 75t-140 26.5q-87 -2 -166 -41t-141 -120.5t-92 -204.5q-19 -70 -25 -164h522v-57h-524z" />
    <glyph glyph-name="guillemotleft" unicode="&#xab;" horiz-adv-x="872" 
d="M569 416l181 -230q22 -26 22 -49v-4q0 -11 -8.5 -19t-20.5 -8q-14 0 -26 7.5t-25 19t-24 19.5l-246 231q-23 11 -23 33q0 12 23 33l246 229q11 10 24.5 20.5t25.5 17t21 7.5q33 0 33 -23q0 -25 -22 -53zM264 416l185 -230q18 -25 18 -49v-4q0 -11 -10 -19t-21 -8
q-14 0 -26 7.5t-29 21.5t-21 17l-245 231q-23 11 -23 33q0 14 23 33l245 229q18 14 37.5 28.5t34.5 16.5q35 0 35 -23q0 -26 -18 -53z" />
    <glyph glyph-name="logicalnot" unicode="&#xac;" horiz-adv-x="967" 
d="M674 0v399h-590v88h782v-487h-192z" />
    <glyph glyph-name="minus" unicode="&#xad;" horiz-adv-x="625" 
d="M100 334v119h428v-119h-428z" />
    <glyph glyph-name="registered" unicode="&#xae;" horiz-adv-x="1481" 
d="M958 274l-182 316h-121v-215q0 -34 12.5 -51t47.5 -17h30v-33h-294v33q47 0 66.5 12t19.5 56v459q0 36 -12.5 51.5t-49.5 15.5h-33v35h310q69 0 126.5 -15.5t97.5 -56.5t40 -110q0 -61 -31 -98t-92 -66l137 -236q28 -47 82 -47v-33h-154zM655 618h97q71 0 108 31.5
t37 104.5q0 66 -40.5 103.5t-104.5 37.5h-97v-277zM745 -25q-126 0 -240 49t-200.5 137.5t-135 203.5t-48.5 239t48.5 240t135 202.5t200.5 135.5t240 49q130 0 245 -49t200.5 -134t134.5 -199.5t49 -244.5q0 -128 -48.5 -241.5t-135.5 -201.5t-202 -137t-243 -49zM745 39
q116 0 221 44.5t183.5 122t123 180.5t44.5 218t-44 218.5t-123.5 183t-184 124t-220.5 44.5q-114 0 -216.5 -44.5t-180.5 -123.5t-122 -183t-44 -219t44.5 -218.5t121.5 -180.5t180 -121.5t217 -44.5z" />
    <glyph glyph-name="macron" unicode="&#xaf;" horiz-adv-x="797" 
d="M489 1384q0 47 33 79t80 32q49 0 82 -32t33 -79q0 -45 -33.5 -78.5t-81.5 -33.5q-46 0 -79.5 33.5t-33.5 78.5zM123 1384q0 47 34 79t79 32q47 0 80.5 -32.5t33.5 -78.5q0 -44 -34 -78t-80 -34q-44 0 -78.5 33.5t-34.5 78.5zM508 199q0 -2 -0.5 -4t-1.5 -5
q0 -53 10 -81.5t29 -40t67 -21t68 -14.5q7 0 11.5 -5t4.5 -12q0 -14 -12 -16q-7 0 -17.5 -0.5t-23.5 -1.5q-40 0 -130 4t-97 4q-6 0 -96 -4t-130 -4q-12 1 -21.5 1.5t-18.5 0.5q-17 8 -17 12q0 8 14.5 16.5t26.5 8.5q86 6 119 39.5t33 113.5v801q0 63 -12 93t-40 42.5
t-90 20.5q-8 0 -19 7t-11 13q0 10 18 13q8 1 15 1.5t22 0.5q34 0 54 -0.5t51.5 -1.5t64 -2.5t51.5 -1.5h12q-3 0 60 2t102 2q66 0 72 -6q2 -3 2 -11q0 -7 -14 -11.5t-21 -4.5q-52 -4 -82 -20.5t-41.5 -48t-11.5 -87.5v-792z" />
    <glyph glyph-name="degree" unicode="&#xb0;" horiz-adv-x="700" 
d="M393 1171q77 0 138 -48.5t61 -127.5q0 -68 -52.5 -114.5t-121.5 -46.5t-119.5 48.5t-50.5 116.5q0 65 40.5 114t104.5 58zM291 999q3 -53 41.5 -87.5t91.5 -34.5q48 0 83.5 37.5t35.5 86.5q0 52 -38.5 87.5t-90.5 35.5q-53 0 -88 -36t-35 -89z" />
    <glyph glyph-name="plusminus" unicode="&#xb1;" horiz-adv-x="1024" 
d="M57 711h381v362h97v-362h383v-95h-383v-356h-97v356h-381v95zM57 178h861v-90h-861v90z" />
    <glyph glyph-name="twosuperior" unicode="&#xb2;" horiz-adv-x="797" 
d="M498 199q0 -2 -0.5 -4t-1.5 -5q0 -53 10 -81.5t29 -40t67 -21t68 -14.5q7 0 11.5 -5t4.5 -12q0 -13 -12 -16q-9 0 -19 -0.5t-24 -1.5q-40 0 -129 4t-96 4t-97 -4t-129 -4q-13 1 -23 1.5t-18 0.5q-16 8 -16 12q0 8 13.5 16.5t27.5 8.5q84 6 117.5 39.5t33.5 113.5v801
q0 62 -11.5 92.5t-40 43t-91.5 20.5q-8 0 -18.5 7t-10.5 13q0 10 17 13q9 1 16.5 1.5t22.5 0.5q34 0 54 -0.5t51.5 -1.5t64 -2.5t51.5 -1.5h12q-4 0 59 2t101 2q68 0 74 -6q2 -3 2 -11q0 -7 -14 -11.5t-21 -4.5q-52 -4 -82 -20.5t-41.5 -48t-11.5 -87.5v-792zM299 1384
q0 47 34 79t81 32t80.5 -32.5t33.5 -78.5q0 -44 -34 -78t-80 -34t-80.5 33.5t-34.5 78.5z" />
    <glyph glyph-name="threesuperior" unicode="&#xb3;" horiz-adv-x="569" 
d="M188 631l-2 2q0 40 -16.5 56t-44.5 19t-43.5 4.5t-15.5 8.5q0 6 4 10q4 8 16 12t29.5 6t23.5 3q70 12 162 49q16 4 21 4q9 0 15.5 -6.5t6.5 -18.5v-628q0 -3 -0.5 -5.5t-1.5 -5.5q0 -49 11 -66.5t50 -26.5t58 -15q8 -4 8 -17q0 -12 -8 -16q-6 0 -12.5 -0.5t-14.5 -1.5
q-26 0 -93 4t-75 4q-7 0 -75 -4t-95 -4q-8 1 -14 1.5t-12 0.5q-11 5 -11 14q0 2 5 10t8 9q16 6 56 15.5t49.5 28t10.5 75.5v479zM293 1227q18 -10 29.5 -33t11.5 -45q0 -19 -6 -37q-9 -25 -36 -41t-56 -16q-3 1 -6 1.5t-7 0.5q-33 5 -55.5 32t-22.5 60q0 12 9 35
q10 27 34.5 42t51.5 15q29 0 53 -14z" />
    <glyph glyph-name="acute" unicode="&#xb4;" horiz-adv-x="760" 
d="M299 520q0 73 51.5 123.5t122.5 50.5q75 0 126.5 -50.5t51.5 -123.5q0 -70 -52 -122t-126 -52q-70 0 -122 52t-52 122z" />
    <glyph glyph-name="mu" unicode="&#xb5;" horiz-adv-x="1139" 
d="M899 862v-659q0 -55 12.5 -90t55.5 -35q23 0 59 18v-28l-168 -86q-4 -2 -14 -2q-47 0 -65.5 45t-26.5 106q-85 -80 -143 -120t-134 -40q-158 0 -211 162q0 -52 5.5 -112t16 -135t17.5 -134q0 -114 -80 -114q-37 0 -58.5 31t-21.5 71q0 46 15 106q14 77 24 162t16.5 174.5
t8.5 168.5t2 161v350h162v-543q0 -108 31.5 -182t125.5 -74q116 0 211 144v655h160z" />
    <glyph glyph-name="paragraph" unicode="&#xb6;" horiz-adv-x="1081" 
d="M985 1217v-48h-33q-52 0 -74.5 -10t-28 -32.5t-5.5 -77.5v-1094q0 -52 18 -64t74 -12h37v-47h-221v1333h-160v-1333h-246v47h41q73 0 91.5 22t21.5 95v641h-80q-68 0 -126.5 20t-99.5 57.5t-64.5 93.5t-23.5 126q0 72 33 136.5t90 98.5q47 31 99.5 39.5t122.5 8.5h534z
M500 1169q-104 0 -160 -20t-80 -75t-24 -165q0 -90 51 -153.5t139 -63.5h74v477z" />
    <glyph glyph-name="cedilla" unicode="&#xb8;" horiz-adv-x="928" 
d="M266 483q-6 -42 -6 -84q0 -106 40 -188t106.5 -126t140.5 -44q102 0 184 76q10 12 22 25.5t25 13.5q3 0 5.5 -0.5t4.5 -1.5q11 -6 11 -19q0 -18 -26 -47t-44 -43q-94 -70 -235 -70q-150 0 -263 82q-73 56 -110 137.5t-37 170.5q0 93 38.5 181t106.5 150q108 99 271 99
q71 0 137 -24.5t114.5 -73.5t69.5 -122q10 -50 10 -57q0 -35 -47 -35h-518zM276 535h361q31 0 31 40q0 32 -19 80.5t-37 63.5q-48 39 -116 39q-62 0 -109 -29q-90 -53 -111 -194zM655 1227q39 -23 39 -78q0 -25 -4 -37q-10 -25 -36 -41t-56 -16q-3 1 -6 1.5t-8 0.5
q-32 5 -55 32.5t-23 59.5q0 10 10 35q9 28 32.5 42.5t53.5 14.5q31 0 53 -14zM385 1227q19 -9 30 -31.5t11 -46.5q0 -19 -6 -37q-10 -25 -36 -41t-56 -16q-4 1 -7 1.5t-8 0.5q-32 5 -54.5 33t-22.5 59q0 10 10 35q10 27 34.5 42t51.5 15q31 0 53 -14z" />
    <glyph glyph-name="onesuperior" unicode="&#xb9;" horiz-adv-x="1784" 
d="M346 225q0 -100 27.5 -136t76.5 -44t58 -16q6 -6 6 -15q0 -11 -12 -14q-26 -4 -47 -4q-24 0 -73 4t-65 4q-19 0 -61 -4t-63 -4q-18 0 -48 4q-20 5 -20 18q0 8 10 15q15 7 56.5 13t66.5 32q23 26 27.5 56.5t7.5 92.5v824q-57 85 -135 90q-12 0 -34 8t-22 16q0 12 19 15
q20 4 41 4q23 0 35.5 -0.5t31.5 -1.5t39 -2.5t33 -1.5q17 1 31 1.5t35 0.5q54 0 75 -29l723 -905v725q0 180 -141 180h-6q-6 0 -12.5 5.5t-6.5 10.5q0 11 2 11q10 6 52 6q27 0 42 -0.5t37 -1.5t40 -2.5t24 -1.5q11 0 65 2t78 2q31 0 37 -2q8 -3 8 -15q0 -14 -12 -14
q-19 -6 -44.5 -10t-43 -11t-35.5 -28q-30 -36 -30 -119q1 -3 1.5 -6t0.5 -8v-946q0 -52 -29 -52q-24 0 -57 41l-789 981v-768zM1507 803q71 0 113.5 -46.5t42.5 -119.5q0 -72 -42 -121t-114 -49q-69 0 -111 50t-42 124q0 69 42.5 115.5t110.5 46.5zM1507 780q-88 0 -88 -143
q0 -145 88 -145q90 0 90 145q0 143 -90 143zM1677 397v-35h-338v35h338z" />
    <glyph glyph-name="ordmasculine" unicode="&#xba;" horiz-adv-x="852" 
d="M248 420h258v-49h-260q4 -69 10 -97q21 -100 75.5 -165.5t143.5 -75.5q28 -4 45 -4q62 0 97.5 20t64.5 50t39 30q22 0 22 -23q0 -10 -4 -22q-37 -76 -182 -102q-73 -5 -84 -5q-112 0 -204 45.5t-145.5 133t-53.5 206.5v15q4 128 84.5 241t185.5 158q58 21 133 21
q57 0 112.5 -14t86.5 -44q28 -22 28 -61q0 -20 -12 -35t-33 -18q-5 0 -8 -0.5t-6 -1.5q-25 0 -39.5 16t-26.5 46t-24 44q-26 31 -82 31q-7 0 -12 -0.5t-11 -1.5q-63 -10 -102 -54t-68 -122q-25 -73 -28 -162z" />
    <glyph glyph-name="guillemotright" unicode="&#xbb;" horiz-adv-x="891" 
d="M307 416l-180 231q-23 29 -23 53q0 23 33 23q17 -2 31.5 -13t40.5 -32l246 -229q22 -20 22 -33q0 -22 -22 -33l-246 -231q-4 -3 -21.5 -17.5t-28 -21.5t-26.5 -7q-10 0 -19.5 8.5t-9.5 18.5v4q0 22 23 49zM612 416l-184 231q-18 27 -18 53q0 23 34 23q21 -3 72 -45
l246 -229q22 -20 22 -33q0 -22 -22 -33l-246 -231q-7 -5 -21.5 -17.5t-26.5 -20.5t-28 -8q-10 0 -20 8t-10 19v4q0 24 18 49z" />
    <glyph glyph-name="onequarter" unicode="&#xbc;" horiz-adv-x="700" 
d="M141 700l205 -202l205 207l47 -50l-205 -204l205 -203l-45 -47l-203 205l-209 -205l-45 47l205 203l-205 204z" />
    <glyph glyph-name="onehalf" unicode="&#xbd;" horiz-adv-x="1518" 
d="M737 954v-260q0 -53 47 -53q11 1 20 1.5t25 0.5q18 1 32.5 1.5t37.5 0.5q151 0 266 -37t172 -100q35 -38 53.5 -90.5t18.5 -108.5q0 -74 -25 -125q-34 -73 -106.5 -115t-163 -56.5t-203.5 -14.5q-54 0 -151 4t-133 4h-9q-6 0 -83 -4t-111 -4q-11 1 -19.5 1.5t-15.5 0.5
q-14 7 -14 14t14.5 15t24.5 8q77 6 107 40t30 111v766q-35 1 -66.5 1.5t-93.5 0.5q-184 0 -239 -34q-32 -17 -46 -43t-20 -58t-16 -76q0 -10 -11 -10q-5 0 -10.5 12t-5.5 21v199q0 41 51 41q24 0 78 -4q161 -9 377 -9q0 70 -21.5 106.5t-85.5 41.5q-26 1 -40.5 9.5
t-14.5 14.5q0 8 15.5 15.5t37.5 7.5h15q26 -1 86 -14t98 -13h8q-4 0 86.5 12.5t136.5 12.5q27 0 31 -4q2 -2 2 -10q0 -10 -11 -18.5t-20 -8.5q-77 -7 -105 -40.5t-30 -111.5q275 0 414 9q54 4 78 4q49 0 49 -41v-199q0 -14 -5 -22.5t-11 -8.5q-13 0 -13 19q-8 65 -23 105
t-55 61q-34 20 -105.5 27t-170.5 7q-63 0 -93.5 -0.5t-64.5 -1.5zM928 41l4 -2q124 0 197 78.5t73 201.5q0 147 -86.5 216t-226.5 69h-43q-3 0 -5 -0.5t-5 -1.5h-37q-29 0 -45.5 -10.5t-16.5 -40.5v-346l-2 -6q0 -158 193 -158z" />
    <glyph glyph-name="threequarters" unicode="&#xbe;" horiz-adv-x="1194" 
d="M612 737h-53v-272q0 -33 33 -33q9 1 16.5 1.5t20.5 0.5h59q216 0 334 -72q65 -39 65 -145q0 -59 -20 -96q-37 -70 -133 -96.5t-227 -26.5q-46 0 -123 4t-105 4q-7 0 -73 -4t-95 -4q-8 1 -14.5 1.5t-11.5 0.5q-11 4 -11 14q0 4 4.5 11t8.5 8q18 6 56.5 15.5t48 28.5
t9.5 75v585h-61q-51 0 -98 -17.5t-68 -68.5q-7 -31 -11.5 -45t-21.5 -14h-4q-14 0 -14 22q1 4 1.5 7.5t0.5 7.5q2 21 4 51t6 70q4 26 47 26l221 2v99q0 40 -18.5 98.5t-54.5 95.5q-2 0 -2 6q0 21 16 29h2q18 0 72.5 -72.5t60.5 -72.5q9 0 23.5 18t40.5 54t40.5 55t20.5 20
v-2q8 0 18.5 -7t10.5 -14q0 -4 -2 -6q-33 -39 -48.5 -72t-19.5 -61t-4 -72v-96l225 -2q43 0 47 -26q2 -9 5.5 -54.5t5.5 -66.5v-15q0 -22 -13 -22h-6q-7 0 -13 6.5t-9 16.5t-4.5 20t-3.5 16q-20 51 -68 68.5t-100 17.5h-13zM698 31l4 -2q98 0 160 50t62 130q0 68 -42 110.5
t-103 62t-126 19.5h-41q-55 0 -55 -39v-229l-2 -4q0 -54 36 -76t107 -22z" />
    <glyph glyph-name="questiondown" unicode="&#xbf;" horiz-adv-x="700" 
d="M565 1227q19 -9 30 -31.5t11 -46.5q0 -13 -4 -37q-10 -25 -36 -41t-56 -16q-3 1 -6 1.5t-8 0.5q-33 5 -55.5 32t-22.5 60q0 -1 4 16.5t4 18.5q10 27 34.5 42t53.5 15q31 0 51 -14zM293 1227q18 -10 29.5 -33t11.5 -45q0 -19 -6 -37q-9 -25 -36 -41t-56 -16q-3 1 -6 1.5
t-7 0.5q-33 5 -55.5 32t-22.5 60q0 12 9 35q10 27 34.5 42t51.5 15q29 0 53 -14zM322 631l-3 2q0 40 -16.5 56.5t-45 19t-44.5 4t-16 8.5q0 6 4 10q4 8 16.5 12t29.5 6t25 3q72 13 162 49q12 4 19 4q24 0 24 -25v-628q0 -3 -0.5 -5.5t-1.5 -5.5q0 -49 10.5 -66.5t49 -26.5
t57.5 -15q10 -3 10 -17q0 -13 -10 -16q-4 0 -11 -0.5t-16 -1.5q-27 0 -93 4t-73 4t-76 -4t-96 -4q-7 1 -12.5 1.5t-11.5 0.5q-10 3 -10 14q0 16 12 19q18 6 56.5 15.5t49 29t11.5 74.5v479z" />
    <glyph glyph-name="Agrave" unicode="&#xc0;" horiz-adv-x="1384" 
d="M383 481h410l-199 510zM809 430h-447l-75 -194q-27 -60 -27 -103q0 -11 8 -37q10 -24 26 -34.5t46 -17.5t47 -15q10 -7 10 -15q0 -6 -6.5 -11t-15.5 -5h-23q-25 0 -76 4t-75 4q-12 0 -20.5 -0.5t-27.5 -1.5t-42 -2.5t-41 -1.5q-41 0 -52 6q-10 7 -10 12q0 11 15.5 18
t27.5 7q69 8 111 63t74 138l393 938q13 32 28 32q22 0 37 -36l389 -981q28 -71 58.5 -103.5t52.5 -39t53.5 -11t38.5 -18.5q2 -2 2 -9q0 -16 -53 -16q-36 0 -108 2t-105 2q-68 0 -100 -2q-5 0 -10 -0.5t-18.5 -1.5t-29.5 -2.5t-30 -1.5q-53 0 -64 16v4q0 9 17 16t26 7
q105 8 105 72q0 25 -27 104z" />
    <glyph glyph-name="Agrave" unicode="&#x410;" horiz-adv-x="1384" 
d="M383 481h410l-199 510zM809 430h-447l-75 -194q-27 -60 -27 -103q0 -11 8 -37q10 -24 26 -34.5t46 -17.5t47 -15q10 -7 10 -15q0 -6 -6.5 -11t-15.5 -5h-23q-25 0 -76 4t-75 4q-12 0 -20.5 -0.5t-27.5 -1.5t-42 -2.5t-41 -1.5q-41 0 -52 6q-10 7 -10 12q0 11 15.5 18
t27.5 7q69 8 111 63t74 138l393 938q13 32 28 32q22 0 37 -36l389 -981q28 -71 58.5 -103.5t52.5 -39t53.5 -11t38.5 -18.5q2 -2 2 -9q0 -16 -53 -16q-36 0 -108 2t-105 2q-68 0 -100 -2q-5 0 -10 -0.5t-18.5 -1.5t-29.5 -2.5t-30 -1.5q-53 0 -64 16v4q0 9 17 16t26 7
q105 8 105 72q0 25 -27 104z" />
    <glyph glyph-name="Aacute" unicode="&#xc1;" horiz-adv-x="1251" 
d="M289 989q0 63 -17 101.5t-69 48.5q-6 2 -38.5 5t-43.5 11q-6 6 -6 8q0 6 10 12.5t16 6.5h27q29 0 44.5 -0.5t40 -1.5t51 -2.5t42.5 -1.5q56 0 91.5 -0.5t78.5 -1.5q57 0 141.5 2t200.5 4q9 1 19.5 2t22.5 2t19.5 1.5t22.5 0.5q75 0 80 -49v-47q0 -19 7 -68t7 -74
q0 -26 -18 -26q-10 0 -17 10t-10.5 24.5t-5.5 24.5q-32 93 -123 124.5t-213 31.5h-51q-61 -2 -84.5 -7t-32 -22t-8.5 -55q1 -15 1.5 -28.5t0.5 -39.5v-291q0 -53 47 -53q11 1 20 1.5t23 0.5q19 1 34 1.5t38 0.5q151 0 265.5 -37t172.5 -100q35 -38 53.5 -90.5t18.5 -108.5
q0 -68 -25 -125q-34 -73 -106.5 -115t-163 -56.5t-203.5 -14.5q-55 0 -153 4t-134 4h-6q-6 0 -84 -4t-112 -4q-10 1 -18 1.5t-15 0.5q-14 7 -14 14t13 15t24 8q78 6 107.5 39.5t29.5 111.5v11zM475 205l-2 -6q0 -158 193 -158l2 -2q81 0 143 36t95.5 100.5t33.5 143.5
q0 98 -41.5 162.5t-112.5 93.5t-159 29h-90q-62 0 -62 -53v-346z" />
    <glyph glyph-name="Aacute" unicode="&#x411;" horiz-adv-x="1251" 
d="M289 989q0 63 -17 101.5t-69 48.5q-6 2 -38.5 5t-43.5 11q-6 6 -6 8q0 6 10 12.5t16 6.5h27q29 0 44.5 -0.5t40 -1.5t51 -2.5t42.5 -1.5q56 0 91.5 -0.5t78.5 -1.5q57 0 141.5 2t200.5 4q9 1 19.5 2t22.5 2t19.5 1.5t22.5 0.5q75 0 80 -49v-47q0 -19 7 -68t7 -74
q0 -26 -18 -26q-10 0 -17 10t-10.5 24.5t-5.5 24.5q-32 93 -123 124.5t-213 31.5h-51q-61 -2 -84.5 -7t-32 -22t-8.5 -55q1 -15 1.5 -28.5t0.5 -39.5v-291q0 -53 47 -53q11 1 20 1.5t23 0.5q19 1 34 1.5t38 0.5q151 0 265.5 -37t172.5 -100q35 -38 53.5 -90.5t18.5 -108.5
q0 -68 -25 -125q-34 -73 -106.5 -115t-163 -56.5t-203.5 -14.5q-55 0 -153 4t-134 4h-6q-6 0 -84 -4t-112 -4q-10 1 -18 1.5t-15 0.5q-14 7 -14 14t13 15t24 8q78 6 107.5 39.5t29.5 111.5v11zM475 205l-2 -6q0 -158 193 -158l2 -2q81 0 143 36t95.5 100.5t33.5 143.5
q0 98 -41.5 162.5t-112.5 93.5t-159 29h-90q-62 0 -62 -53v-346z" />
    <glyph glyph-name="Acircumflex" unicode="&#xc2;" horiz-adv-x="1251" 
d="M475 205l-2 -6q0 -158 193 -158l2 -2q81 0 143 36t95.5 100.5t33.5 143.5q0 151 -92 218t-240 67h-26q-3 0 -5.5 -0.5t-5.5 -1.5h-43q-27 0 -40 -10.5t-13 -40.5v-346zM475 1077v-383q0 -53 47 -53q11 1 20 1.5t23 0.5q140 10 207.5 62.5t67.5 185.5q0 139 -64.5 195.5
t-195.5 56.5h-33q-41 0 -56.5 -11t-15.5 -55zM379 1176q23 0 67 1.5t87.5 3t66.5 1.5h23q288 -9 374 -146q31 -52 31 -127q0 -90 -45 -151q-66 -83 -242 -123q118 -16 197 -40.5t137 -86.5q35 -38 53.5 -90.5t18.5 -108.5q0 -68 -25 -125q-34 -73 -106.5 -115t-163 -56.5
t-203.5 -14.5q-38 1 -82.5 2t-81.5 2t-59.5 1.5t-63.5 0.5q-1 1 -2 1.5t-4 0.5q-6 0 -84 -4t-112 -4q-10 1 -18 1.5t-15 0.5q-14 7 -14 14t13 15t24 8q78 6 107.5 39.5t29.5 111.5v803q0 73 -21 109.5t-86 42.5q-31 3 -49 10t-18 14q0 13 43 13h16q56 -2 98.5 -4t69.5 -2
q10 1 18 1.5t21 0.5z" />
    <glyph glyph-name="Acircumflex" unicode="&#x412;" horiz-adv-x="1251" 
d="M475 205l-2 -6q0 -158 193 -158l2 -2q81 0 143 36t95.5 100.5t33.5 143.5q0 151 -92 218t-240 67h-26q-3 0 -5.5 -0.5t-5.5 -1.5h-43q-27 0 -40 -10.5t-13 -40.5v-346zM475 1077v-383q0 -53 47 -53q11 1 20 1.5t23 0.5q140 10 207.5 62.5t67.5 185.5q0 139 -64.5 195.5
t-195.5 56.5h-33q-41 0 -56.5 -11t-15.5 -55zM379 1176q23 0 67 1.5t87.5 3t66.5 1.5h23q288 -9 374 -146q31 -52 31 -127q0 -90 -45 -151q-66 -83 -242 -123q118 -16 197 -40.5t137 -86.5q35 -38 53.5 -90.5t18.5 -108.5q0 -68 -25 -125q-34 -73 -106.5 -115t-163 -56.5
t-203.5 -14.5q-38 1 -82.5 2t-81.5 2t-59.5 1.5t-63.5 0.5q-1 1 -2 1.5t-4 0.5q-6 0 -84 -4t-112 -4q-10 1 -18 1.5t-15 0.5q-14 7 -14 14t13 15t24 8q78 6 107.5 39.5t29.5 111.5v803q0 73 -21 109.5t-86 42.5q-31 3 -49 10t-18 14q0 13 43 13h16q56 -2 98.5 -4t69.5 -2
q10 1 18 1.5t21 0.5z" />
    <glyph glyph-name="Atilde" unicode="&#xc3;" horiz-adv-x="1118" 
d="M481 199q0 -2 -0.5 -3l-1.5 -3q0 -63 14 -94.5t36 -39.5t62.5 -12t65.5 -14q11 -2 11 -15q0 -18 -23 -18h-43q-26 0 -58 1.5t-59.5 2.5t-46 1.5t-53.5 0.5q-22 0 -38 -0.5t-46.5 -1.5t-65.5 -2.5t-59 -1.5h-35q-16 0 -16 12q0 8 7.5 15.5t17.5 7.5q65 10 94.5 24t42 44.5
t12.5 95.5v792q0 60 -18 99t-70 49q-6 2 -37.5 5t-42.5 11q-8 4 -8 8q0 6 10.5 12.5t16.5 6.5h24q15 0 44 -1.5t57.5 -3t43.5 -1.5q56 0 92 -0.5t78 -1.5q56 0 142.5 2t202.5 4q7 0 17.5 1.5t21.5 2.5t19 1.5t23 0.5q75 0 80 -49v-47q0 -19 7.5 -71t7.5 -71q0 -26 -19 -26
q-11 0 -17 10t-9.5 23.5t-6.5 25.5q-23 65 -68.5 99t-103.5 45.5t-131 11.5h-49q-63 -2 -86.5 -8t-32 -23.5t-8.5 -58.5q1 -14 1.5 -26t0.5 -36v-786z" />
    <glyph glyph-name="Atilde" unicode="&#x413;" horiz-adv-x="1118" 
d="M481 199q0 -2 -0.5 -3l-1.5 -3q0 -63 14 -94.5t36 -39.5t62.5 -12t65.5 -14q11 -2 11 -15q0 -18 -23 -18h-43q-26 0 -58 1.5t-59.5 2.5t-46 1.5t-53.5 0.5q-22 0 -38 -0.5t-46.5 -1.5t-65.5 -2.5t-59 -1.5h-35q-16 0 -16 12q0 8 7.5 15.5t17.5 7.5q65 10 94.5 24t42 44.5
t12.5 95.5v792q0 60 -18 99t-70 49q-6 2 -37.5 5t-42.5 11q-8 4 -8 8q0 6 10.5 12.5t16.5 6.5h24q15 0 44 -1.5t57.5 -3t43.5 -1.5q56 0 92 -0.5t78 -1.5q56 0 142.5 2t202.5 4q7 0 17.5 1.5t21.5 2.5t19 1.5t23 0.5q75 0 80 -49v-47q0 -19 7.5 -71t7.5 -71q0 -26 -19 -26
q-11 0 -17 10t-9.5 23.5t-6.5 25.5q-23 65 -68.5 99t-103.5 45.5t-131 11.5h-49q-63 -2 -86.5 -8t-32 -23.5t-8.5 -58.5q1 -14 1.5 -26t0.5 -36v-786z" />
    <glyph glyph-name="Adieresis" unicode="&#xc4;" horiz-adv-x="1405" 
d="M502 0q-126 0 -188.5 -13.5t-97 -51t-62.5 -119.5q-2 -6 -7 -23.5t-10 -26.5t-16 -10q-19 0 -19 29q0 11 7.5 63t7.5 78v72l-2 2q0 4 7 15.5t11 17.5q55 14 90 30t70.5 51.5t73.5 98.5q136 239 163 774v21q0 52 -21.5 90t-82.5 47q-18 3 -33 5t-24 3q-9 5 -9 12
q0 6 8 12.5t13 6.5h20q24 0 80 -4t76 -4q35 2 162 2q137 0 193.5 -0.5t111.5 -1.5q2 0 79 2t118 2q55 0 59 -2q6 -6 6 -15q0 -6 -9 -11t-17 -5q-86 -9 -116 -37.5t-30 -110.5q2 0 2 -8v-792q0 -3 -0.5 -5.5t-1.5 -5.5q0 -49 8.5 -77.5t26.5 -41t54.5 -20.5t70.5 -16
q16 -2 16 -27v-80q0 -18 7.5 -70t7.5 -71q0 -29 -17 -29q-11 1 -17 11t-10.5 24t-7.5 25q-28 80 -67 118.5t-102 52t-177 13.5h-405zM311 45h555q35 0 51.5 30t16.5 109v832q0 77 -14.5 100t-65.5 23h-188q-44 0 -64 -27.5t-27 -105.5q-15 -165 -32 -292t-35.5 -221.5
t-42 -165.5t-49.5 -118q-12 -24 -46.5 -81t-58.5 -83z" />
    <glyph glyph-name="Adieresis" unicode="&#x414;" horiz-adv-x="1405" 
d="M502 0q-126 0 -188.5 -13.5t-97 -51t-62.5 -119.5q-2 -6 -7 -23.5t-10 -26.5t-16 -10q-19 0 -19 29q0 11 7.5 63t7.5 78v72l-2 2q0 4 7 15.5t11 17.5q55 14 90 30t70.5 51.5t73.5 98.5q136 239 163 774v21q0 52 -21.5 90t-82.5 47q-18 3 -33 5t-24 3q-9 5 -9 12
q0 6 8 12.5t13 6.5h20q24 0 80 -4t76 -4q35 2 162 2q137 0 193.5 -0.5t111.5 -1.5q2 0 79 2t118 2q55 0 59 -2q6 -6 6 -15q0 -6 -9 -11t-17 -5q-86 -9 -116 -37.5t-30 -110.5q2 0 2 -8v-792q0 -3 -0.5 -5.5t-1.5 -5.5q0 -49 8.5 -77.5t26.5 -41t54.5 -20.5t70.5 -16
q16 -2 16 -27v-80q0 -18 7.5 -70t7.5 -71q0 -29 -17 -29q-11 1 -17 11t-10.5 24t-7.5 25q-28 80 -67 118.5t-102 52t-177 13.5h-405zM311 45h555q35 0 51.5 30t16.5 109v832q0 77 -14.5 100t-65.5 23h-188q-44 0 -64 -27.5t-27 -105.5q-15 -165 -32 -292t-35.5 -221.5
t-42 -165.5t-49.5 -118q-12 -24 -46.5 -81t-58.5 -83z" />
    <glyph glyph-name="Aring" unicode="&#xc5;" horiz-adv-x="1194" 
d="M471 303q0 -7 -0.5 -12t-1.5 -12q0 -101 25 -155t116 -69q78 -12 140 -12q84 0 152.5 20t107.5 68q26 30 42.5 86.5t28.5 56.5h6q13 -2 13 -75q0 -32 -0.5 -49t-1.5 -42.5t-2.5 -45.5t-1.5 -27q0 -22 -9.5 -28.5t-33.5 -8.5q-47 0 -70 2q-190 6 -385 6h-176
q-117 0 -174 -2q-11 0 -41 -4t-45 -4t-31 4q-10 5 -10 16q0 12 10 17q17 7 49.5 11t46.5 9q41 16 52.5 51t11.5 95v792q0 58 -13.5 96.5t-58.5 49.5q-13 4 -45 6t-45 8q-10 7 -10 12q0 4 5.5 10.5t10.5 6.5q9 1 17 1.5t22 0.5q23 0 35.5 -0.5t32 -1.5t38 -2.5t29.5 -1.5
q37 0 60.5 -0.5t50.5 -1.5q61 0 154 2t219 4q26 1 47.5 1.5t58.5 0.5q43 0 84 -6q24 -8 27 -31v-12q0 -9 -1.5 -26.5t-3.5 -35.5t-2 -27t4.5 -38.5t4.5 -49.5q0 -16 -2 -20q-7 -14 -21 -14l-3 2t-5 2q-7 4 -15 40.5t-14.5 56t-21.5 38.5q-67 78 -258 78q-55 0 -129 -4
q-42 0 -57 -18t-15 -56q1 -4 1.5 -8t0.5 -11v-405q20 2 58.5 5t65.5 7t53 14t48 29q31 28 41 50.5t16 58.5t15 57q3 8 14 8q7 0 14 -6t7 -14v-27q0 -37 -5 -102t-5 -76q1 -3 1.5 -5.5t0.5 -6.5q0 -8 4 -82t4 -109q0 -28 -2 -35q-4 -12 -17 -12q-10 0 -14 15q-10 33 -17 58
t-17.5 47t-30.5 40q-55 45 -185 45h-49v-293z" />
    <glyph glyph-name="Aring" unicode="&#x415;" horiz-adv-x="1194" 
d="M471 303q0 -7 -0.5 -12t-1.5 -12q0 -101 25 -155t116 -69q78 -12 140 -12q84 0 152.5 20t107.5 68q26 30 42.5 86.5t28.5 56.5h6q13 -2 13 -75q0 -32 -0.5 -49t-1.5 -42.5t-2.5 -45.5t-1.5 -27q0 -22 -9.5 -28.5t-33.5 -8.5q-47 0 -70 2q-190 6 -385 6h-176
q-117 0 -174 -2q-11 0 -41 -4t-45 -4t-31 4q-10 5 -10 16q0 12 10 17q17 7 49.5 11t46.5 9q41 16 52.5 51t11.5 95v792q0 58 -13.5 96.5t-58.5 49.5q-13 4 -45 6t-45 8q-10 7 -10 12q0 4 5.5 10.5t10.5 6.5q9 1 17 1.5t22 0.5q23 0 35.5 -0.5t32 -1.5t38 -2.5t29.5 -1.5
q37 0 60.5 -0.5t50.5 -1.5q61 0 154 2t219 4q26 1 47.5 1.5t58.5 0.5q43 0 84 -6q24 -8 27 -31v-12q0 -9 -1.5 -26.5t-3.5 -35.5t-2 -27t4.5 -38.5t4.5 -49.5q0 -16 -2 -20q-7 -14 -21 -14l-3 2t-5 2q-7 4 -15 40.5t-14.5 56t-21.5 38.5q-67 78 -258 78q-55 0 -129 -4
q-42 0 -57 -18t-15 -56q1 -4 1.5 -8t0.5 -11v-405q20 2 58.5 5t65.5 7t53 14t48 29q31 28 41 50.5t16 58.5t15 57q3 8 14 8q7 0 14 -6t7 -14v-27q0 -37 -5 -102t-5 -76q1 -3 1.5 -5.5t0.5 -6.5q0 -8 4 -82t4 -109q0 -28 -2 -35q-4 -12 -17 -12q-10 0 -14 15q-10 33 -17 58
t-17.5 47t-30.5 40q-55 45 -185 45h-49v-293z" />
    <glyph glyph-name="AE" unicode="&#xc6;" horiz-adv-x="1860" 
d="M903 6q-20 0 -34 -0.5t-43 -1.5t-60.5 -2.5t-54.5 -1.5h-31q-18 0 -18 16q0 5 4 11t12 6q34 8 67.5 15.5t51 20t25 39t7.5 80.5v322l-51 53q-87 -107 -167.5 -211t-137.5 -186q-35 -47 -35 -78q0 -26 25 -35q11 -8 36.5 -11t47.5 -6t28 -11q5 -5 5 -13q0 -16 -33 -16h-27
q-24 0 -129.5 5t-173.5 5q-14 0 -63 -5t-60 -5q-29 0 -35 6q-2 4 -4 7t-2 5q0 5 6 12t13 9q36 4 65 20.5t56 43.5t53.5 60.5t40.5 51.5l383 475q-56 70 -134 174t-122 158q-36 51 -75.5 88t-84.5 41q-11 0 -24 4t-13 12q0 7 8 15q9 6 31 6q10 0 15 -0.5t13 -1.5t15 -2.5
t12 -1.5q30 0 49 -0.5t41 -1.5q41 0 111 4q8 1 16 1.5t27 0.5q43 0 43 -17v-2q-3 -12 -20.5 -15.5t-46 -7.5t-39.5 -12q-25 -20 -25 -49q0 -23 14 -52.5t30.5 -53t33.5 -47.5q58 -84 91 -128t60.5 -77.5t56 -65.5t76.5 -80v424q0 52 -12 82.5t-41 45.5t-80 20q-4 0 -18 5
t-14 11q0 5 3.5 11t73.5 6q48 0 51.5 -0.5t53.5 -2t63 -1.5q12 0 60.5 1.5t54 2t53.5 0.5q73 0 76 -6q2 -3 2 -11q0 -6 -13.5 -11t-17.5 -5q-76 -6 -105.5 -38.5t-29.5 -109.5q2 0 2 -8v-416q141 137 285 351q5 9 27.5 41t35.5 58.5t13 53.5q0 29 -23 49q-11 8 -39.5 12
t-46 7.5t-20.5 15.5l-2 2q0 15 43 15h45q68 -4 110 -4q23 1 41.5 1.5t48.5 0.5q6 1 13 2t14.5 2t12.5 1.5t14 0.5q23 0 32 -6q7 -7 7 -15q0 -16 -35 -16q-46 -4 -80 -35.5t-82 -93.5q-42 -54 -68 -89t-63 -84t-49.5 -65.5t-73.5 -93.5l381 -475q15 -18 41 -51t54.5 -60.5
t57.5 -44t64 -20.5q16 -4 16 -21q0 -4 -4 -12q-6 -6 -37 -6q-9 0 -57 5t-63 5q-68 0 -174.5 -5t-131.5 -5h-24q-33 0 -33 16q0 8 4 13q9 11 54 15t59 13q22 8 22 35q0 35 -32 78q-46 64 -87.5 119.5t-110 142.5t-108.5 135l-51 -53v-311q0 -3 -0.5 -5.5t-1.5 -5.5
q0 -49 8.5 -77.5t25.5 -41t52.5 -20.5t67.5 -16q7 0 10.5 -5t3.5 -12q0 -16 -16 -16h-35q-21 0 -55.5 1.5t-64.5 2.5t-46 1.5t-37 0.5z" />
    <glyph glyph-name="AE" unicode="&#x416;" horiz-adv-x="1860" 
d="M903 6q-20 0 -34 -0.5t-43 -1.5t-60.5 -2.5t-54.5 -1.5h-31q-18 0 -18 16q0 5 4 11t12 6q34 8 67.5 15.5t51 20t25 39t7.5 80.5v322l-51 53q-87 -107 -167.5 -211t-137.5 -186q-35 -47 -35 -78q0 -26 25 -35q11 -8 36.5 -11t47.5 -6t28 -11q5 -5 5 -13q0 -16 -33 -16h-27
q-24 0 -129.5 5t-173.5 5q-14 0 -63 -5t-60 -5q-29 0 -35 6q-2 4 -4 7t-2 5q0 5 6 12t13 9q36 4 65 20.5t56 43.5t53.5 60.5t40.5 51.5l383 475q-56 70 -134 174t-122 158q-36 51 -75.5 88t-84.5 41q-11 0 -24 4t-13 12q0 7 8 15q9 6 31 6q10 0 15 -0.5t13 -1.5t15 -2.5
t12 -1.5q30 0 49 -0.5t41 -1.5q41 0 111 4q8 1 16 1.5t27 0.5q43 0 43 -17v-2q-3 -12 -20.5 -15.5t-46 -7.5t-39.5 -12q-25 -20 -25 -49q0 -23 14 -52.5t30.5 -53t33.5 -47.5q58 -84 91 -128t60.5 -77.5t56 -65.5t76.5 -80v424q0 52 -12 82.5t-41 45.5t-80 20q-4 0 -18 5
t-14 11q0 5 3.5 11t73.5 6q48 0 51.5 -0.5t53.5 -2t63 -1.5q12 0 60.5 1.5t54 2t53.5 0.5q73 0 76 -6q2 -3 2 -11q0 -6 -13.5 -11t-17.5 -5q-76 -6 -105.5 -38.5t-29.5 -109.5q2 0 2 -8v-416q141 137 285 351q5 9 27.5 41t35.5 58.5t13 53.5q0 29 -23 49q-11 8 -39.5 12
t-46 7.5t-20.5 15.5l-2 2q0 15 43 15h45q68 -4 110 -4q23 1 41.5 1.5t48.5 0.5q6 1 13 2t14.5 2t12.5 1.5t14 0.5q23 0 32 -6q7 -7 7 -15q0 -16 -35 -16q-46 -4 -80 -35.5t-82 -93.5q-42 -54 -68 -89t-63 -84t-49.5 -65.5t-73.5 -93.5l381 -475q15 -18 41 -51t54.5 -60.5
t57.5 -44t64 -20.5q16 -4 16 -21q0 -4 -4 -12q-6 -6 -37 -6q-9 0 -57 5t-63 5q-68 0 -174.5 -5t-131.5 -5h-24q-33 0 -33 16q0 8 4 13q9 11 54 15t59 13q22 8 22 35q0 35 -32 78q-46 64 -87.5 119.5t-110 142.5t-108.5 135l-51 -53v-311q0 -3 -0.5 -5.5t-1.5 -5.5
q0 -49 8.5 -77.5t25.5 -41t52.5 -20.5t67.5 -16q7 0 10.5 -5t3.5 -12q0 -16 -16 -16h-35q-21 0 -55.5 1.5t-64.5 2.5t-46 1.5t-37 0.5z" />
    <glyph glyph-name="Ccedilla" unicode="&#xc7;" horiz-adv-x="1176" 
d="M557 647q295 21 295 262q0 88 -34 148t-91 89.5t-127 29.5q-108 0 -198.5 -57t-135.5 -163q-2 -5 -14.5 -45t-20 -57.5t-16.5 -17.5q-18 0 -18 26v23l10 258q0 10 5 24.5t13 14.5q9 0 13 -4t14 -34t24 -30q1 1 2.5 1.5t4.5 0.5q23 5 59.5 24t58.5 27q100 39 234 39
q112 0 218.5 -40t158.5 -122q28 -48 28 -122q0 -43 -11.5 -83t-33.5 -69q-67 -86 -270 -137q95 -13 160.5 -39.5t124.5 -89.5q55 -58 55 -164q0 -85 -37 -143q-64 -107 -183.5 -166.5t-254.5 -59.5q-66 0 -119.5 17t-108.5 51q-25 16 -47 31t-43 20h-14q-31 0 -39 -45
q-3 -20 -22 -20q-17 0 -17 20v350q0 19 17 19q2 0 7 -3t5 -10q11 -26 21 -59t20 -63q24 -56 43 -90.5t51 -67.5q62 -56 119 -82.5t127 -26.5q44 0 94.5 26.5t92 70t67.5 101.5t26 118q0 109 -34.5 168.5t-99.5 82.5t-171 25q-30 0 -30 19q0 8 7 15t15 9z" />
    <glyph glyph-name="Ccedilla" unicode="&#x417;" horiz-adv-x="1176" 
d="M557 647q295 21 295 262q0 88 -34 148t-91 89.5t-127 29.5q-108 0 -198.5 -57t-135.5 -163q-2 -5 -14.5 -45t-20 -57.5t-16.5 -17.5q-18 0 -18 26v23l10 258q0 10 5 24.5t13 14.5q9 0 13 -4t14 -34t24 -30q1 1 2.5 1.5t4.5 0.5q23 5 59.5 24t58.5 27q100 39 234 39
q112 0 218.5 -40t158.5 -122q28 -48 28 -122q0 -43 -11.5 -83t-33.5 -69q-67 -86 -270 -137q95 -13 160.5 -39.5t124.5 -89.5q55 -58 55 -164q0 -85 -37 -143q-64 -107 -183.5 -166.5t-254.5 -59.5q-66 0 -119.5 17t-108.5 51q-25 16 -47 31t-43 20h-14q-31 0 -39 -45
q-3 -20 -22 -20q-17 0 -17 20v350q0 19 17 19q2 0 7 -3t5 -10q11 -26 21 -59t20 -63q24 -56 43 -90.5t51 -67.5q62 -56 119 -82.5t127 -26.5q44 0 94.5 26.5t92 70t67.5 101.5t26 118q0 109 -34.5 168.5t-99.5 82.5t-171 25q-30 0 -30 19q0 8 7 15t15 9z" />
    <glyph glyph-name="Egrave" unicode="&#xc8;" horiz-adv-x="1575" 
d="M291 991v8q0 83 -28.5 111t-115.5 37q-8 0 -17 7t-9 13q0 10 16 13h37q34 0 54 -0.5t51.5 -1.5t64 -2.5t51.5 -1.5q4 1 7 1.5t8 0.5q-5 0 57 2t102 2q68 0 74 -6v-11q0 -7 -14 -11.5t-19 -4.5q-76 -6 -106.5 -38.5t-30.5 -109.5q1 -2 1.5 -3.5t0.5 -4.5v-692l637 637v63
q0 58 -13.5 87t-44 42t-87.5 21q-5 0 -16 7t-11 11q0 10 10 13q7 1 14 1.5t23 0.5q37 0 59.5 -0.5t56.5 -1.5t62.5 -2.5t36.5 -1.5q1 0 78 2t119 2q55 0 59 -2q6 -6 6 -15q0 -6 -9 -11t-17 -5q-86 -9 -116 -37.5t-30 -110.5q2 0 2 -8v-792q0 -3 -0.5 -5.5t-1.5 -5.5
q0 -49 8.5 -77.5t26.5 -41t54.5 -20.5t70.5 -16q12 0 12 -17q0 -16 -14 -16h-37q-23 0 -58 1.5t-66 2.5t-47.5 1.5t-39.5 0.5q-24 0 -40.5 -0.5t-48 -1.5t-66.5 -2.5t-58 -1.5h-26q-23 0 -23 16q0 19 23 19q59 8 90 22.5t45 45.5t14 87v687l-637 -637v-41q0 -3 -0.5 -5.5
t-1.5 -5.5q0 -51 9 -79t26 -40t48.5 -19.5t74.5 -16.5q14 0 14 -17q0 -16 -16 -16h-37q-23 0 -58.5 1.5t-66 2.5t-46.5 1.5t-38 0.5q-24 0 -40.5 -0.5t-48.5 -1.5t-65.5 -2.5t-56.5 -1.5h-27q-24 0 -24 16q0 5 7 12t17 7q89 12 117.5 40.5t28.5 112.5v803z" />
    <glyph glyph-name="Egrave" unicode="&#x418;" horiz-adv-x="1575" 
d="M291 991v8q0 83 -28.5 111t-115.5 37q-8 0 -17 7t-9 13q0 10 16 13h37q34 0 54 -0.5t51.5 -1.5t64 -2.5t51.5 -1.5q4 1 7 1.5t8 0.5q-5 0 57 2t102 2q68 0 74 -6v-11q0 -7 -14 -11.5t-19 -4.5q-76 -6 -106.5 -38.5t-30.5 -109.5q1 -2 1.5 -3.5t0.5 -4.5v-692l637 637v63
q0 58 -13.5 87t-44 42t-87.5 21q-5 0 -16 7t-11 11q0 10 10 13q7 1 14 1.5t23 0.5q37 0 59.5 -0.5t56.5 -1.5t62.5 -2.5t36.5 -1.5q1 0 78 2t119 2q55 0 59 -2q6 -6 6 -15q0 -6 -9 -11t-17 -5q-86 -9 -116 -37.5t-30 -110.5q2 0 2 -8v-792q0 -3 -0.5 -5.5t-1.5 -5.5
q0 -49 8.5 -77.5t26.5 -41t54.5 -20.5t70.5 -16q12 0 12 -17q0 -16 -14 -16h-37q-23 0 -58 1.5t-66 2.5t-47.5 1.5t-39.5 0.5q-24 0 -40.5 -0.5t-48 -1.5t-66.5 -2.5t-58 -1.5h-26q-23 0 -23 16q0 19 23 19q59 8 90 22.5t45 45.5t14 87v687l-637 -637v-41q0 -3 -0.5 -5.5
t-1.5 -5.5q0 -51 9 -79t26 -40t48.5 -19.5t74.5 -16.5q14 0 14 -17q0 -16 -16 -16h-37q-23 0 -58.5 1.5t-66 2.5t-46.5 1.5t-38 0.5q-24 0 -40.5 -0.5t-48.5 -1.5t-65.5 -2.5t-56.5 -1.5h-27q-24 0 -24 16q0 5 7 12t17 7q89 12 117.5 40.5t28.5 112.5v803z" />
    <glyph glyph-name="Eacute" unicode="&#xc9;" horiz-adv-x="1575" 
d="M971 1376q12 0 17 -7t5 -19q0 -11 -4 -23q-40 -99 -184 -102q-67 0 -117 24t-67 72q-7 19 -7 25q0 23 23 30q2 0 10 2t12 2q25 0 31 -22q5 -29 32.5 -66t74.5 -37q42 0 75 29.5t41 56.5q10 35 58 35zM147 1147q-8 0 -17 7t-9 13q0 10 16 13q8 1 15.5 1.5t23.5 0.5
q33 0 53 -0.5t51 -1.5t64 -2.5t53 -1.5h13q-5 0 57 2t102 2q68 0 74 -6v-11q0 -7 -14 -11.5t-19 -4.5q-76 -6 -106.5 -38.5t-30.5 -109.5q1 -2 1.5 -3.5t0.5 -4.5v-692l637 637v63q0 58 -13.5 87t-44 42t-87.5 21q-5 0 -16 7t-11 11q0 10 10 13q7 1 14 1.5t23 0.5
q37 0 59.5 -0.5t56.5 -1.5t62.5 -2.5t36.5 -1.5q1 0 78 2t119 2q55 0 59 -2q6 -6 6 -15q0 -6 -9 -11t-17 -5q-86 -9 -116 -37.5t-30 -110.5q2 0 2 -8v-792q0 -3 -0.5 -5.5t-1.5 -5.5q0 -49 8.5 -77.5t26.5 -41t54.5 -20.5t70.5 -16q12 0 12 -17q0 -16 -14 -16h-37
q-23 0 -58 1.5t-66 2.5t-47.5 1.5t-39.5 0.5q-24 0 -40.5 -0.5t-48 -1.5t-66.5 -2.5t-58 -1.5h-26q-23 0 -23 16q0 19 23 19q59 8 90 22.5t45 45.5t14 87v687l-637 -637v-41q0 -3 -0.5 -5.5t-1.5 -5.5q0 -51 9 -79t26 -40t48.5 -19.5t74.5 -16.5q14 0 14 -17q0 -16 -16 -16
h-37q-23 0 -58.5 1.5t-66 2.5t-46.5 1.5t-38 0.5q-24 0 -40.5 -0.5t-48.5 -1.5t-65.5 -2.5t-56.5 -1.5h-27q-24 0 -24 16q0 5 7 12t17 7q89 12 117.5 40.5t28.5 112.5v811q0 83 -28.5 111t-115.5 37z" />
    <glyph glyph-name="Eacute" unicode="&#x419;" horiz-adv-x="1575" 
d="M971 1376q12 0 17 -7t5 -19q0 -11 -4 -23q-40 -99 -184 -102q-67 0 -117 24t-67 72q-7 19 -7 25q0 23 23 30q2 0 10 2t12 2q25 0 31 -22q5 -29 32.5 -66t74.5 -37q42 0 75 29.5t41 56.5q10 35 58 35zM147 1147q-8 0 -17 7t-9 13q0 10 16 13q8 1 15.5 1.5t23.5 0.5
q33 0 53 -0.5t51 -1.5t64 -2.5t53 -1.5h13q-5 0 57 2t102 2q68 0 74 -6v-11q0 -7 -14 -11.5t-19 -4.5q-76 -6 -106.5 -38.5t-30.5 -109.5q1 -2 1.5 -3.5t0.5 -4.5v-692l637 637v63q0 58 -13.5 87t-44 42t-87.5 21q-5 0 -16 7t-11 11q0 10 10 13q7 1 14 1.5t23 0.5
q37 0 59.5 -0.5t56.5 -1.5t62.5 -2.5t36.5 -1.5q1 0 78 2t119 2q55 0 59 -2q6 -6 6 -15q0 -6 -9 -11t-17 -5q-86 -9 -116 -37.5t-30 -110.5q2 0 2 -8v-792q0 -3 -0.5 -5.5t-1.5 -5.5q0 -49 8.5 -77.5t26.5 -41t54.5 -20.5t70.5 -16q12 0 12 -17q0 -16 -14 -16h-37
q-23 0 -58 1.5t-66 2.5t-47.5 1.5t-39.5 0.5q-24 0 -40.5 -0.5t-48 -1.5t-66.5 -2.5t-58 -1.5h-26q-23 0 -23 16q0 19 23 19q59 8 90 22.5t45 45.5t14 87v687l-637 -637v-41q0 -3 -0.5 -5.5t-1.5 -5.5q0 -51 9 -79t26 -40t48.5 -19.5t74.5 -16.5q14 0 14 -17q0 -16 -16 -16
h-37q-23 0 -58.5 1.5t-66 2.5t-46.5 1.5t-38 0.5q-24 0 -40.5 -0.5t-48.5 -1.5t-65.5 -2.5t-56.5 -1.5h-27q-24 0 -24 16q0 5 7 12t17 7q89 12 117.5 40.5t28.5 112.5v811q0 83 -28.5 111t-115.5 37z" />
    <glyph glyph-name="Ecircumflex" unicode="&#xca;" horiz-adv-x="1442" 
d="M483 455v-256q0 -3 -0.5 -5.5t-1.5 -5.5q0 -51 9 -79t25.5 -39.5t49 -19.5t76.5 -17q7 0 10.5 -5t3.5 -12q0 -16 -16 -16h-37q-23 0 -58 1.5t-66 2.5t-47 1.5t-38 0.5q-25 0 -41.5 -0.5t-48 -1.5t-66 -2.5t-57.5 -1.5h-26q-25 0 -25 16q0 5 7 12t18 7q88 12 116.5 40.5
t28.5 112.5v811q0 83 -28.5 111t-112.5 37q-10 0 -19.5 7t-9.5 13q0 10 16 13q9 1 17 1.5t22 0.5q34 0 54 -0.5t51.5 -1.5t64 -2.5t52.5 -1.5h12q-6 0 58 2t104 2q65 0 71 -6q2 -3 2 -11q0 -6 -14.5 -11t-20.5 -5q-50 -4 -80 -19.5t-43.5 -46.5t-13.5 -82q1 -2 1.5 -3.5
t0.5 -4.5v-477q94 82 182 185t181 227q78 106 78 151q0 35 -25 51q-12 8 -47 13t-46.5 7.5t-14.5 14.5l-3 2q0 15 43 15h48q78 -4 112 -4q24 1 44.5 1.5t51.5 0.5q6 1 13.5 2t14.5 2t12 1.5t14 0.5q22 0 33 -6q6 -6 6 -15q0 -16 -35 -16q-48 -4 -81 -35t-85 -94
q-44 -54 -110 -136t-156 -190l397 -481q15 -18 43.5 -53t55 -61t56 -42t64.5 -20q21 -3 21 -21q0 -6 -7 -12q-6 -6 -36 -6q-12 0 -61 5t-64 5q-70 0 -178.5 -5t-135.5 -5h-24q-11 0 -24 4t-13 12q0 1 1 2.5t1.5 3t1.5 3.5l2 4q9 11 56 15t61 13q22 8 22 35q0 35 -32 78
q-81 113 -318 397z" />
    <glyph glyph-name="Ecircumflex" unicode="&#x41a;" horiz-adv-x="1442" 
d="M483 455v-256q0 -3 -0.5 -5.5t-1.5 -5.5q0 -51 9 -79t25.5 -39.5t49 -19.5t76.5 -17q7 0 10.5 -5t3.5 -12q0 -16 -16 -16h-37q-23 0 -58 1.5t-66 2.5t-47 1.5t-38 0.5q-25 0 -41.5 -0.5t-48 -1.5t-66 -2.5t-57.5 -1.5h-26q-25 0 -25 16q0 5 7 12t18 7q88 12 116.5 40.5
t28.5 112.5v811q0 83 -28.5 111t-112.5 37q-10 0 -19.5 7t-9.5 13q0 10 16 13q9 1 17 1.5t22 0.5q34 0 54 -0.5t51.5 -1.5t64 -2.5t52.5 -1.5h12q-6 0 58 2t104 2q65 0 71 -6q2 -3 2 -11q0 -6 -14.5 -11t-20.5 -5q-50 -4 -80 -19.5t-43.5 -46.5t-13.5 -82q1 -2 1.5 -3.5
t0.5 -4.5v-477q94 82 182 185t181 227q78 106 78 151q0 35 -25 51q-12 8 -47 13t-46.5 7.5t-14.5 14.5l-3 2q0 15 43 15h48q78 -4 112 -4q24 1 44.5 1.5t51.5 0.5q6 1 13.5 2t14.5 2t12 1.5t14 0.5q22 0 33 -6q6 -6 6 -15q0 -16 -35 -16q-48 -4 -81 -35t-85 -94
q-44 -54 -110 -136t-156 -190l397 -481q15 -18 43.5 -53t55 -61t56 -42t64.5 -20q21 -3 21 -21q0 -6 -7 -12q-6 -6 -36 -6q-12 0 -61 5t-64 5q-70 0 -178.5 -5t-135.5 -5h-24q-11 0 -24 4t-13 12q0 1 1 2.5t1.5 3t1.5 3.5l2 4q9 11 56 15t61 13q22 8 22 35q0 35 -32 78
q-81 113 -318 397z" />
    <glyph glyph-name="Edieresis" unicode="&#xcb;" horiz-adv-x="1384" 
d="M172 -16q-37 0 -64.5 25t-27.5 61t31 59t67 23q17 0 50.5 -7.5t43.5 -7.5q48 0 103 84q19 29 46 101t50.5 169t40.5 227.5t20 270.5q0 132 -90 150q-6 2 -37.5 5t-42.5 11q-8 4 -8 8q0 6 10.5 12.5t16.5 6.5h27q29 0 44.5 -0.5t40 -1.5t51 -2.5t42.5 -1.5q35 2 153 2
q127 0 180 -0.5t105 -1.5q2 0 79 2t118 2q55 0 59 -2q6 -6 6 -15q0 -6 -9 -11t-17 -5q-86 -9 -116 -37.5t-30 -110.5q2 0 2 -8v-790q0 -3 -0.5 -5.5t-1.5 -5.5q0 -67 14.5 -95t37 -35.5t108.5 -26.5q12 0 12 -17q0 -16 -14 -16h-37q-23 0 -58 1.5t-66 2.5t-47.5 1.5
t-39.5 0.5q-24 0 -40.5 -0.5t-48 -1.5t-66.5 -2.5t-58 -1.5h-27q-22 0 -22 16q0 19 22 19q86 11 118 44t32 118v819q0 77 -14.5 100t-65.5 23h-160q-109 0 -114 -123q-8 -170 -33 -339.5t-58 -299t-65 -197.5q-41 -91 -99.5 -143.5t-152.5 -52.5z" />
    <glyph glyph-name="Edieresis" unicode="&#x41b;" horiz-adv-x="1384" 
d="M172 -16q-37 0 -64.5 25t-27.5 61t31 59t67 23q17 0 50.5 -7.5t43.5 -7.5q48 0 103 84q19 29 46 101t50.5 169t40.5 227.5t20 270.5q0 132 -90 150q-6 2 -37.5 5t-42.5 11q-8 4 -8 8q0 6 10.5 12.5t16.5 6.5h27q29 0 44.5 -0.5t40 -1.5t51 -2.5t42.5 -1.5q35 2 153 2
q127 0 180 -0.5t105 -1.5q2 0 79 2t118 2q55 0 59 -2q6 -6 6 -15q0 -6 -9 -11t-17 -5q-86 -9 -116 -37.5t-30 -110.5q2 0 2 -8v-790q0 -3 -0.5 -5.5t-1.5 -5.5q0 -67 14.5 -95t37 -35.5t108.5 -26.5q12 0 12 -17q0 -16 -14 -16h-37q-23 0 -58 1.5t-66 2.5t-47.5 1.5
t-39.5 0.5q-24 0 -40.5 -0.5t-48 -1.5t-66.5 -2.5t-58 -1.5h-27q-22 0 -22 16q0 19 22 19q86 11 118 44t32 118v819q0 77 -14.5 100t-65.5 23h-160q-109 0 -114 -123q-8 -170 -33 -339.5t-58 -299t-65 -197.5q-41 -91 -99.5 -143.5t-152.5 -52.5z" />
    <glyph glyph-name="Igrave" unicode="&#xcc;" horiz-adv-x="1690" 
d="M287 227v848q-31 59 -131 70q-50 3 -50 24q0 10 17 17h27q23 0 103 -2t114 -2q12 1 22 1.5t21 0.5h10q26 0 40.5 -9t24.5 -36l367 -865l377 879q13 28 45 31q6 0 10.5 -0.5t9.5 -1.5q37 0 60.5 -0.5t50.5 -1.5q5 1 9.5 1.5t12.5 0.5q5 0 16.5 1.5t25 2.5t23 1.5t28.5 0.5
q67 0 67 -23q0 -8 -20 -13.5t-44 -10.5t-43.5 -12t-33.5 -21q-41 -43 -41 -145v-764q0 -63 11 -95t27 -40.5t54 -14.5t59 -16q9 -5 9 -15q0 -18 -21 -18h-26q-21 0 -53.5 1.5t-62.5 2.5t-46 1.5t-39 0.5q-20 0 -35.5 -0.5t-48.5 -1.5t-69.5 -2.5t-61.5 -1.5h-35
q-16 0 -16 12q0 8 7.5 15.5t16.5 7.5q64 10 94.5 24t43 44.5t12.5 95.5v815l-418 -979q-12 -29 -27 -29q-10 0 -20 21l-420 997v-799q0 -3 -0.5 -5.5t-1.5 -6.5q0 -100 43 -139q33 -26 71.5 -32t47.5 -11q6 -3 6 -15q0 -8 -6 -14q-12 -6 -47 -6q-22 0 -62 4t-45 4
q-22 0 -74 -4t-77 -4q-36 0 -62 6q-14 3 -14 14q0 17 14 17q13 4 42 10t48 14t35 27q18 25 22 52t7 91z" />
    <glyph glyph-name="Igrave" unicode="&#x41c;" horiz-adv-x="1690" 
d="M287 227v848q-31 59 -131 70q-50 3 -50 24q0 10 17 17h27q23 0 103 -2t114 -2q12 1 22 1.5t21 0.5h10q26 0 40.5 -9t24.5 -36l367 -865l377 879q13 28 45 31q6 0 10.5 -0.5t9.5 -1.5q37 0 60.5 -0.5t50.5 -1.5q5 1 9.5 1.5t12.5 0.5q5 0 16.5 1.5t25 2.5t23 1.5t28.5 0.5
q67 0 67 -23q0 -8 -20 -13.5t-44 -10.5t-43.5 -12t-33.5 -21q-41 -43 -41 -145v-764q0 -63 11 -95t27 -40.5t54 -14.5t59 -16q9 -5 9 -15q0 -18 -21 -18h-26q-21 0 -53.5 1.5t-62.5 2.5t-46 1.5t-39 0.5q-20 0 -35.5 -0.5t-48.5 -1.5t-69.5 -2.5t-61.5 -1.5h-35
q-16 0 -16 12q0 8 7.5 15.5t16.5 7.5q64 10 94.5 24t43 44.5t12.5 95.5v815l-418 -979q-12 -29 -27 -29q-10 0 -20 21l-420 997v-799q0 -3 -0.5 -5.5t-1.5 -6.5q0 -100 43 -139q33 -26 71.5 -32t47.5 -11q6 -3 6 -15q0 -8 -6 -14q-12 -6 -47 -6q-22 0 -62 4t-45 4
q-22 0 -74 -4t-77 -4q-36 0 -62 6q-14 3 -14 14q0 17 14 17q13 4 42 10t48 14t35 27q18 25 22 52t7 91z" />
    <glyph glyph-name="Iacute" unicode="&#xcd;" horiz-adv-x="1575" 
d="M291 991v8q0 83 -28.5 111t-115.5 37q-8 0 -17 7t-9 13q0 10 16 13q8 1 15.5 1.5t23.5 0.5q33 0 53 -0.5t51 -1.5t64 -2.5t53 -1.5h13q-5 0 57 2t102 2q68 0 74 -6v-11q0 -7 -14 -11.5t-19 -4.5q-76 -6 -106.5 -38.5t-30.5 -109.5q1 -2 1.5 -3.5t0.5 -4.5v-350h637v358
q0 58 -13.5 87t-44 42t-87.5 21q-5 0 -16 7t-11 11q0 10 10 13q7 1 14 1.5t23 0.5q37 0 59.5 -0.5t56.5 -1.5t62.5 -2.5t36.5 -1.5q1 0 78 2t119 2q55 0 59 -2q6 -6 6 -15q0 -6 -9 -11t-17 -5q-86 -9 -116 -37.5t-30 -110.5q2 0 2 -8v-792q0 -3 -0.5 -5.5t-1.5 -5.5
q0 -49 8.5 -77.5t26.5 -41t54.5 -20.5t70.5 -16q12 0 12 -17q0 -16 -14 -16h-37q-23 0 -58 1.5t-66 2.5t-47.5 1.5t-39.5 0.5q-24 0 -40.5 -0.5t-48 -1.5t-66.5 -2.5t-58 -1.5h-26q-23 0 -23 16q0 19 23 19q59 8 90 22.5t45 45.5t14 87v394h-637v-385q0 -3 -0.5 -5.5
t-1.5 -5.5q0 -51 9 -79t26 -40t48.5 -19.5t74.5 -16.5q14 0 14 -17q0 -16 -16 -16h-37q-23 0 -58.5 1.5t-66 2.5t-46.5 1.5t-38 0.5q-24 0 -40.5 -0.5t-48.5 -1.5t-65.5 -2.5t-56.5 -1.5h-27q-24 0 -24 16q0 5 7 12t17 7q89 12 117.5 40.5t28.5 112.5v803z" />
    <glyph glyph-name="Iacute" unicode="&#x41d;" horiz-adv-x="1575" 
d="M291 991v8q0 83 -28.5 111t-115.5 37q-8 0 -17 7t-9 13q0 10 16 13q8 1 15.5 1.5t23.5 0.5q33 0 53 -0.5t51 -1.5t64 -2.5t53 -1.5h13q-5 0 57 2t102 2q68 0 74 -6v-11q0 -7 -14 -11.5t-19 -4.5q-76 -6 -106.5 -38.5t-30.5 -109.5q1 -2 1.5 -3.5t0.5 -4.5v-350h637v358
q0 58 -13.5 87t-44 42t-87.5 21q-5 0 -16 7t-11 11q0 10 10 13q7 1 14 1.5t23 0.5q37 0 59.5 -0.5t56.5 -1.5t62.5 -2.5t36.5 -1.5q1 0 78 2t119 2q55 0 59 -2q6 -6 6 -15q0 -6 -9 -11t-17 -5q-86 -9 -116 -37.5t-30 -110.5q2 0 2 -8v-792q0 -3 -0.5 -5.5t-1.5 -5.5
q0 -49 8.5 -77.5t26.5 -41t54.5 -20.5t70.5 -16q12 0 12 -17q0 -16 -14 -16h-37q-23 0 -58 1.5t-66 2.5t-47.5 1.5t-39.5 0.5q-24 0 -40.5 -0.5t-48 -1.5t-66.5 -2.5t-58 -1.5h-26q-23 0 -23 16q0 19 23 19q59 8 90 22.5t45 45.5t14 87v394h-637v-385q0 -3 -0.5 -5.5
t-1.5 -5.5q0 -51 9 -79t26 -40t48.5 -19.5t74.5 -16.5q14 0 14 -17q0 -16 -16 -16h-37q-23 0 -58.5 1.5t-66 2.5t-46.5 1.5t-38 0.5q-24 0 -40.5 -0.5t-48.5 -1.5t-65.5 -2.5t-56.5 -1.5h-27q-24 0 -24 16q0 5 7 12t17 7q89 12 117.5 40.5t28.5 112.5v803z" />
    <glyph glyph-name="Icircumflex" unicode="&#xce;" horiz-adv-x="1497" 
d="M102 586q1 172 91.5 314.5t241.5 225t319 82.5q27 0 71 -4q159 -16 288 -97.5t203.5 -214t74.5 -290.5v-12q-4 -178 -90.5 -318.5t-233 -219.5t-324.5 -79q-124 0 -242.5 44t-208.5 125.5t-141 193t-51 239.5q1 3 1.5 5.5t0.5 5.5zM319 594q2 -139 47 -274.5t141 -223.5
t241 -88q74 2 139.5 29t120 77t92.5 115q78 147 78 363q0 109 -23 209t-70.5 181.5t-129 133.5t-195.5 55h-17q-138 0 -234.5 -86t-143 -217t-46.5 -270v-4z" />
    <glyph glyph-name="Icircumflex" unicode="&#x41e;" horiz-adv-x="1497" 
d="M102 586q1 172 91.5 314.5t241.5 225t319 82.5q27 0 71 -4q159 -16 288 -97.5t203.5 -214t74.5 -290.5v-12q-4 -178 -90.5 -318.5t-233 -219.5t-324.5 -79q-124 0 -242.5 44t-208.5 125.5t-141 193t-51 239.5q1 3 1.5 5.5t0.5 5.5zM319 594q2 -139 47 -274.5t141 -223.5
t241 -88q74 2 139.5 29t120 77t92.5 115q78 147 78 363q0 109 -23 209t-70.5 181.5t-129 133.5t-195.5 55h-17q-138 0 -234.5 -86t-143 -217t-46.5 -270v-4z" />
    <glyph glyph-name="Idieresis" unicode="&#xcf;" horiz-adv-x="1575" 
d="M291 991v8q0 83 -28.5 111t-115.5 37q-8 0 -17 7t-9 13q0 10 16 13q8 1 15.5 1.5t23.5 0.5q33 0 53 -0.5t51 -1.5t64 -2.5t53 -1.5h13q21 0 49.5 -0.5t103 -2t125 -2t107.5 -0.5q12 0 178 2.5t229 2.5q1 0 78 2t119 2q55 0 59 -2q6 -6 6 -15q0 -6 -9 -11t-17 -5
q-86 -9 -116 -37.5t-30 -110.5q2 0 2 -8v-792q0 -3 -0.5 -5.5t-1.5 -5.5q0 -49 8.5 -77.5t26.5 -41t54.5 -20.5t70.5 -16q12 0 12 -17q0 -16 -14 -16h-37q-23 0 -58 1.5t-66 2.5t-47.5 1.5t-39.5 0.5q-24 0 -40.5 -0.5t-48 -1.5t-66.5 -2.5t-58 -1.5h-26q-23 0 -23 16
q0 19 23 19q59 8 90 22.5t45 45.5t14 87v818q0 53 -9.5 74.5t-31 28t-88.5 15.5h-94.5t-166 -0.5t-122.5 -1.5q-77 -2 -102 -24.5t-25 -95.5q1 -3 1.5 -6t0.5 -7v-792q0 -3 -0.5 -5.5t-1.5 -5.5q0 -51 9 -79t26 -40t48.5 -19.5t74.5 -16.5q14 0 14 -17q0 -16 -16 -16h-37
q-23 0 -58.5 1.5t-66 2.5t-46.5 1.5t-38 0.5q-24 0 -40.5 -0.5t-48.5 -1.5t-65.5 -2.5t-56.5 -1.5h-27q-24 0 -24 16q0 5 7 12t17 7q89 12 117.5 40.5t28.5 112.5v803z" />
    <glyph glyph-name="Idieresis" unicode="&#x41f;" horiz-adv-x="1575" 
d="M291 991v8q0 83 -28.5 111t-115.5 37q-8 0 -17 7t-9 13q0 10 16 13q8 1 15.5 1.5t23.5 0.5q33 0 53 -0.5t51 -1.5t64 -2.5t53 -1.5h13q21 0 49.5 -0.5t103 -2t125 -2t107.5 -0.5q12 0 178 2.5t229 2.5q1 0 78 2t119 2q55 0 59 -2q6 -6 6 -15q0 -6 -9 -11t-17 -5
q-86 -9 -116 -37.5t-30 -110.5q2 0 2 -8v-792q0 -3 -0.5 -5.5t-1.5 -5.5q0 -49 8.5 -77.5t26.5 -41t54.5 -20.5t70.5 -16q12 0 12 -17q0 -16 -14 -16h-37q-23 0 -58 1.5t-66 2.5t-47.5 1.5t-39.5 0.5q-24 0 -40.5 -0.5t-48 -1.5t-66.5 -2.5t-58 -1.5h-26q-23 0 -23 16
q0 19 23 19q59 8 90 22.5t45 45.5t14 87v818q0 53 -9.5 74.5t-31 28t-88.5 15.5h-94.5t-166 -0.5t-122.5 -1.5q-77 -2 -102 -24.5t-25 -95.5q1 -3 1.5 -6t0.5 -7v-792q0 -3 -0.5 -5.5t-1.5 -5.5q0 -51 9 -79t26 -40t48.5 -19.5t74.5 -16.5q14 0 14 -17q0 -16 -16 -16h-37
q-23 0 -58.5 1.5t-66 2.5t-46.5 1.5t-38 0.5q-24 0 -40.5 -0.5t-48.5 -1.5t-65.5 -2.5t-56.5 -1.5h-27q-24 0 -24 16q0 5 7 12t17 7q89 12 117.5 40.5t28.5 112.5v803z" />
    <glyph glyph-name="Eth" unicode="&#xd0;" horiz-adv-x="1157" 
d="M475 600q78 -8 117 -8q55 0 94 10q86 19 126 92t40 168q0 24 -4 62q-13 109 -84 164t-184 55h-7q-45 0 -71.5 -11t-26.5 -49v-483zM475 555v-356q0 -3 -0.5 -5.5t-1.5 -5.5q0 -51 9 -79t26 -40t48.5 -19.5t74.5 -16.5q14 0 14 -17q0 -16 -16 -16h-37q-23 0 -58.5 1.5
t-66 2.5t-46.5 1.5t-38 0.5q-24 0 -40.5 -0.5t-48.5 -1.5t-65.5 -2.5t-56.5 -1.5h-27q-24 0 -24 16q0 5 7 12t17 7q89 12 117.5 40.5t28.5 112.5v813q0 74 -26 106t-97 38q-12 0 -30.5 5t-18.5 13q-3 0 4 11q8 8 51 8q21 0 36.5 -0.5t27.5 -1.5t20 -1.5t14 -0.5
q16 0 27 -0.5t25 -1.5q38 0 124 2t130 2q119 0 182 -13q78 -14 145.5 -53t107.5 -102t40 -142q0 -92 -41 -154.5t-109.5 -98.5t-152 -51t-170.5 -15q-43 0 -105 4z" />
    <glyph glyph-name="Eth" unicode="&#x420;" horiz-adv-x="1157" 
d="M475 600q78 -8 117 -8q55 0 94 10q86 19 126 92t40 168q0 24 -4 62q-13 109 -84 164t-184 55h-7q-45 0 -71.5 -11t-26.5 -49v-483zM475 555v-356q0 -3 -0.5 -5.5t-1.5 -5.5q0 -51 9 -79t26 -40t48.5 -19.5t74.5 -16.5q14 0 14 -17q0 -16 -16 -16h-37q-23 0 -58.5 1.5
t-66 2.5t-46.5 1.5t-38 0.5q-24 0 -40.5 -0.5t-48.5 -1.5t-65.5 -2.5t-56.5 -1.5h-27q-24 0 -24 16q0 5 7 12t17 7q89 12 117.5 40.5t28.5 112.5v813q0 74 -26 106t-97 38q-12 0 -30.5 5t-18.5 13q-3 0 4 11q8 8 51 8q21 0 36.5 -0.5t27.5 -1.5t20 -1.5t14 -0.5
q16 0 27 -0.5t25 -1.5q38 0 124 2t130 2q119 0 182 -13q78 -14 145.5 -53t107.5 -102t40 -142q0 -92 -41 -154.5t-109.5 -98.5t-152 -51t-170.5 -15q-43 0 -105 4z" />
    <glyph glyph-name="Ntilde" unicode="&#xd1;" horiz-adv-x="1270" 
d="M1178 45q0 -9 -7 -14.5t-14 -5.5q-18 0 -18 20q-8 45 -41 45h-13q-19 -5 -40.5 -19t-49.5 -32q-64 -31 -135.5 -47.5t-144.5 -18.5h-6q-119 0 -224.5 36.5t-188.5 108.5t-130.5 169.5t-56.5 218.5q0 14 -2.5 31t-2.5 26q0 151 64 289t180 230t268 116q78 8 115 8
q122 0 225 -39q17 -6 56 -25.5t63 -25.5l2 -2q11 0 17 10t13 29.5t11 24.5q8 4 10 4q9 0 16 -13.5t7 -25.5l8 -258v-23q0 -26 -18 -26q-12 0 -29.5 55.5t-21.5 64.5q-27 64 -82 115t-123 77t-142 26h-12q-102 -7 -191 -66t-148 -179t-68 -296v-64q0 -146 43 -269.5
t143 -203.5q102 -80 233 -80q77 0 148 27.5t120.5 77t94.5 158.5q7 17 18.5 56.5t22.5 65.5q3 13 12 13q5 0 12 -6t7 -13v-350z" />
    <glyph glyph-name="Ntilde" unicode="&#x421;" horiz-adv-x="1270" 
d="M1178 45q0 -9 -7 -14.5t-14 -5.5q-18 0 -18 20q-8 45 -41 45h-13q-19 -5 -40.5 -19t-49.5 -32q-64 -31 -135.5 -47.5t-144.5 -18.5h-6q-119 0 -224.5 36.5t-188.5 108.5t-130.5 169.5t-56.5 218.5q0 14 -2.5 31t-2.5 26q0 151 64 289t180 230t268 116q78 8 115 8
q122 0 225 -39q17 -6 56 -25.5t63 -25.5l2 -2q11 0 17 10t13 29.5t11 24.5q8 4 10 4q9 0 16 -13.5t7 -25.5l8 -258v-23q0 -26 -18 -26q-12 0 -29.5 55.5t-21.5 64.5q-27 64 -82 115t-123 77t-142 26h-12q-102 -7 -191 -66t-148 -179t-68 -296v-64q0 -146 43 -269.5
t143 -203.5q102 -80 233 -80q77 0 148 27.5t120.5 77t94.5 158.5q7 17 18.5 56.5t22.5 65.5q3 13 12 13q5 0 12 -6t7 -13v-350z" />
    <glyph glyph-name="Ograve" unicode="&#xd2;" horiz-adv-x="1384" 
d="M754 199q0 -4 -0.5 -7.5t-1.5 -7.5q0 -50 10.5 -77.5t29 -38.5t66.5 -20.5t68 -14.5q14 0 14 -17q0 -9 -10 -16q-6 -2 -41 -2q-34 0 -104 4t-76 4h-47q-34 0 -96 -2t-115 -4h-54q-18 0 -18 12q0 7 9 15t18 8q92 10 127.5 40t35.5 118v894q0 35 -22.5 44.5t-65.5 9.5h-14
q-28 1 -52.5 1.5t-66.5 0.5q-67 0 -115.5 -8t-80.5 -27q-32 -18 -46 -44t-20 -57.5t-16 -74.5q0 -10 -11 -10q-5 0 -10.5 10.5t-5.5 19.5v199q0 23 12.5 32t38.5 9q25 0 41.5 -0.5t36.5 -1.5q80 -5 203 -7.5t287 -2.5q325 0 489 10q20 1 36 1.5t42 0.5q49 0 49 -41v-199
q0 -12 -5.5 -21t-10.5 -9q-13 0 -13 18q-8 65 -23 105.5t-55 62.5q-62 35 -227 35q-44 0 -67.5 -0.5t-51.5 -1.5q-35 0 -53 -11t-18 -43v-888z" />
    <glyph glyph-name="Ograve" unicode="&#x422;" horiz-adv-x="1384" 
d="M754 199q0 -4 -0.5 -7.5t-1.5 -7.5q0 -50 10.5 -77.5t29 -38.5t66.5 -20.5t68 -14.5q14 0 14 -17q0 -9 -10 -16q-6 -2 -41 -2q-34 0 -104 4t-76 4h-47q-34 0 -96 -2t-115 -4h-54q-18 0 -18 12q0 7 9 15t18 8q92 10 127.5 40t35.5 118v894q0 35 -22.5 44.5t-65.5 9.5h-14
q-28 1 -52.5 1.5t-66.5 0.5q-67 0 -115.5 -8t-80.5 -27q-32 -18 -46 -44t-20 -57.5t-16 -74.5q0 -10 -11 -10q-5 0 -10.5 10.5t-5.5 19.5v199q0 23 12.5 32t38.5 9q25 0 41.5 -0.5t36.5 -1.5q80 -5 203 -7.5t287 -2.5q325 0 489 10q20 1 36 1.5t42 0.5q49 0 49 -41v-199
q0 -12 -5.5 -21t-10.5 -9q-13 0 -13 18q-8 65 -23 105.5t-55 62.5q-62 35 -227 35q-44 0 -67.5 -0.5t-51.5 -1.5q-35 0 -53 -11t-18 -43v-888z" />
    <glyph glyph-name="Oacute" unicode="&#xd3;" horiz-adv-x="1366" 
d="M616 293l-378 770q-28 37 -57.5 53t-63.5 26.5t-37 18.5l-2 2q0 17 47 17q4 1 7.5 1.5t4.5 0.5q144 -8 215 -8q37 0 111 4q-1 0 32 4t52 4q41 0 41 -17v-2q0 -18 -39 -18q-111 -6 -111 -64q0 -12 23 -63l258 -545l205 418q59 125 59 180q0 39 -22 55q-9 8 -30 10.5
t-44 5.5t-27 7q-3 6 -4 7.5t-2 2.5q0 10 13 15.5t24 5.5q16 0 41.5 -1.5t50.5 -3t41 -1.5h41q68 0 133 6q7 1 13 1.5t18 0.5q30 0 35 -15v-6q0 -10 -14 -15.5t-35.5 -8.5t-26.5 -4q-52 -19 -92.5 -58t-65.5 -88l-414 -807q-49 -98 -99 -149t-142 -51q-38 0 -63 22.5
t-25 61.5t29 61.5t65 22.5q22 0 56 -12.5t50 -12.5q51 0 91 82z" />
    <glyph glyph-name="Oacute" unicode="&#x423;" horiz-adv-x="1366" 
d="M616 293l-378 770q-28 37 -57.5 53t-63.5 26.5t-37 18.5l-2 2q0 17 47 17q4 1 7.5 1.5t4.5 0.5q144 -8 215 -8q37 0 111 4q-1 0 32 4t52 4q41 0 41 -17v-2q0 -18 -39 -18q-111 -6 -111 -64q0 -12 23 -63l258 -545l205 418q59 125 59 180q0 39 -22 55q-9 8 -30 10.5
t-44 5.5t-27 7q-3 6 -4 7.5t-2 2.5q0 10 13 15.5t24 5.5q16 0 41.5 -1.5t50.5 -3t41 -1.5h41q68 0 133 6q7 1 13 1.5t18 0.5q30 0 35 -15v-6q0 -10 -14 -15.5t-35.5 -8.5t-26.5 -4q-52 -19 -92.5 -58t-65.5 -88l-414 -807q-49 -98 -99 -149t-142 -51q-38 0 -63 22.5
t-25 61.5t29 61.5t65 22.5q22 0 56 -12.5t50 -12.5q51 0 91 82z" />
    <glyph glyph-name="Ocircumflex" unicode="&#xd4;" horiz-adv-x="1366" 
d="M588 242v725q-99 -3 -171.5 -55.5t-109.5 -133.5t-37 -172q0 -136 62 -225q37 -53 110.5 -96t145.5 -43zM1024 381q29 42 46 102t17 123q0 90 -37.5 172t-109.5 134t-170 55v-725q71 0 146 44.5t108 94.5zM414 33q20 5 65 13t65 18.5t31.5 36t12.5 73.5v31
q-90 0 -180 27.5t-163.5 81t-116.5 126t-44 160.5q0 165 125 271t303 124q25 2 76 2v27q-4 62 -33.5 88.5t-103.5 34.5q-5 0 -20 5t-15 11q0 5 4 11q6 6 74 6q49 0 52 -0.5t54.5 -2t65.5 -1.5q-6 0 67 2t121 2q79 0 82 -6q2 -3 2 -11q0 -7 -14 -11.5t-19 -4.5
q-74 -8 -103 -34t-32 -89v-27q51 0 76 -2q112 -11 210 -62t157 -137.5t59 -195.5q0 -87 -43 -161.5t-114.5 -126t-163 -79.5t-181.5 -28v-31q2 -51 12 -74.5t30 -34.5t65 -19t65 -13q6 0 11 -5.5t5 -11.5q0 -13 -12 -16q-9 0 -19.5 -0.5t-23.5 -1.5q-40 0 -128 4t-97 4
q-8 0 -97 -4t-130 -4q-12 1 -22 1.5t-17 0.5q-15 3 -15 16q0 6 5.5 11.5t11.5 5.5z" />
    <glyph glyph-name="Ocircumflex" unicode="&#x424;" horiz-adv-x="1366" 
d="M588 242v725q-99 -3 -171.5 -55.5t-109.5 -133.5t-37 -172q0 -136 62 -225q37 -53 110.5 -96t145.5 -43zM1024 381q29 42 46 102t17 123q0 90 -37.5 172t-109.5 134t-170 55v-725q71 0 146 44.5t108 94.5zM414 33q20 5 65 13t65 18.5t31.5 36t12.5 73.5v31
q-90 0 -180 27.5t-163.5 81t-116.5 126t-44 160.5q0 165 125 271t303 124q25 2 76 2v27q-4 62 -33.5 88.5t-103.5 34.5q-5 0 -20 5t-15 11q0 5 4 11q6 6 74 6q49 0 52 -0.5t54.5 -2t65.5 -1.5q-6 0 67 2t121 2q79 0 82 -6q2 -3 2 -11q0 -7 -14 -11.5t-19 -4.5
q-74 -8 -103 -34t-32 -89v-27q51 0 76 -2q112 -11 210 -62t157 -137.5t59 -195.5q0 -87 -43 -161.5t-114.5 -126t-163 -79.5t-181.5 -28v-31q2 -51 12 -74.5t30 -34.5t65 -19t65 -13q6 0 11 -5.5t5 -11.5q0 -13 -12 -16q-9 0 -19.5 -0.5t-23.5 -1.5q-40 0 -128 4t-97 4
q-8 0 -97 -4t-130 -4q-12 1 -22 1.5t-17 0.5q-15 3 -15 16q0 6 5.5 11.5t11.5 5.5z" />
    <glyph glyph-name="Otilde" unicode="&#xd5;" horiz-adv-x="1442" 
d="M623 559l-385 504q-28 37 -57.5 53t-63.5 26.5t-37 18.5l-2 2q0 17 47 17q4 1 7.5 1.5t4.5 0.5q144 -8 215 -8q37 0 111 4q-1 0 32 4t52 4q41 0 41 -17v-2q0 -18 -39 -18q-96 -6 -96 -51q0 -31 49 -92l241 -312l119 152q31 33 79 109.5t48 125.5q0 39 -26 49
q-12 7 -53 12t-48 11q-1 1 -3 5t-3 5q0 10 13 15.5t24 5.5q15 0 40.5 -1.5t50.5 -3t40 -1.5h43q68 0 133 6q7 1 13 1.5t18 0.5q30 0 35 -15v-6q0 -10 -14 -15.5t-35.5 -8.5t-26.5 -4q-47 -18 -78.5 -50.5t-79.5 -95.5l-258 -336l422 -536q27 -35 53 -49t62.5 -27.5
t36.5 -24.5v-6q-7 -14 -43 -14q-9 1 -17 1.5t-16 0.5q-70 6 -148 6q-32 0 -91.5 -2t-110.5 -4q-2 0 -22 -2t-34 -2q-45 0 -45 18h-2q0 27 53 27q45 3 68.5 8t24.5 31v4q0 40 -58 113l-252 321l-190 -246q-84 -103 -84 -163q0 -39 25.5 -51.5t72.5 -16.5q41 -5 41 -23
q0 -6 -2 -10q-3 -12 -41 -12q-9 1 -20 2t-19 2t-13 1.5t-11 0.5q-25 2 -76 2q-21 0 -58 -1.5t-74.5 -3t-58.5 -1.5q-47 0 -47 18l1.5 3t0.5 4q6 11 55.5 26.5t55.5 18.5q27 13 46.5 29.5t29.5 28t36.5 46.5t36.5 49z" />
    <glyph glyph-name="Otilde" unicode="&#x425;" horiz-adv-x="1442" 
d="M623 559l-385 504q-28 37 -57.5 53t-63.5 26.5t-37 18.5l-2 2q0 17 47 17q4 1 7.5 1.5t4.5 0.5q144 -8 215 -8q37 0 111 4q-1 0 32 4t52 4q41 0 41 -17v-2q0 -18 -39 -18q-96 -6 -96 -51q0 -31 49 -92l241 -312l119 152q31 33 79 109.5t48 125.5q0 39 -26 49
q-12 7 -53 12t-48 11q-1 1 -3 5t-3 5q0 10 13 15.5t24 5.5q15 0 40.5 -1.5t50.5 -3t40 -1.5h43q68 0 133 6q7 1 13 1.5t18 0.5q30 0 35 -15v-6q0 -10 -14 -15.5t-35.5 -8.5t-26.5 -4q-47 -18 -78.5 -50.5t-79.5 -95.5l-258 -336l422 -536q27 -35 53 -49t62.5 -27.5
t36.5 -24.5v-6q-7 -14 -43 -14q-9 1 -17 1.5t-16 0.5q-70 6 -148 6q-32 0 -91.5 -2t-110.5 -4q-2 0 -22 -2t-34 -2q-45 0 -45 18h-2q0 27 53 27q45 3 68.5 8t24.5 31v4q0 40 -58 113l-252 321l-190 -246q-84 -103 -84 -163q0 -39 25.5 -51.5t72.5 -16.5q41 -5 41 -23
q0 -6 -2 -10q-3 -12 -41 -12q-9 1 -20 2t-19 2t-13 1.5t-11 0.5q-25 2 -76 2q-21 0 -58 -1.5t-74.5 -3t-58.5 -1.5q-47 0 -47 18l1.5 3t0.5 4q6 11 55.5 26.5t55.5 18.5q27 13 46.5 29.5t29.5 28t36.5 46.5t36.5 49z" />
    <glyph glyph-name="Odieresis" unicode="&#xd6;" horiz-adv-x="1593" 
d="M475 991v-792q0 -4 -0.5 -7.5t-1.5 -7.5q0 -65 10.5 -95.5t31 -37t65.5 -6.5h464q35 0 51.5 30t16.5 109v807q0 79 -30 112t-115 46q-5 0 -16 7t-11 11q0 10 10 13q7 1 14 1.5t23 0.5q37 0 59.5 -0.5t56.5 -1.5t62.5 -2.5t36.5 -1.5q1 0 78 2t119 2q55 0 59 -2
q6 -6 6 -15q0 -6 -9 -11t-17 -5q-86 -9 -116 -37.5t-30 -110.5q2 0 2 -8v-792q0 -3 -0.5 -5.5t-1.5 -5.5q0 -49 8.5 -77.5t26.5 -41t54.5 -20.5t70.5 -16q16 -2 16 -27v-76q0 -18 7.5 -69t7.5 -70q0 -29 -17 -29q-11 1 -17 11t-10 25.5t-7 23.5q-25 71 -68 110t-104.5 53.5
t-147.5 14.5q-9 0 -15.5 -0.5t-15.5 -1.5q-21 0 -349 4t-349 4q-24 0 -40.5 -0.5t-48.5 -1.5t-65.5 -2.5t-56.5 -1.5h-27q-24 0 -24 16q0 5 7 12t17 7q89 12 117.5 40.5t28.5 112.5v803q0 62 -12 92t-40 43t-92 21q-8 0 -17 7t-9 13q0 10 16 13h37q34 0 54 -0.5t51.5 -1.5
t64 -2.5t51.5 -1.5q4 1 7 1.5t8 0.5q-5 0 57 2t102 2q68 0 74 -6v-11q0 -7 -14 -11.5t-19 -4.5q-53 -4 -82.5 -20.5t-41 -48t-11.5 -87.5z" />
    <glyph glyph-name="Odieresis" unicode="&#x426;" horiz-adv-x="1593" 
d="M475 991v-792q0 -4 -0.5 -7.5t-1.5 -7.5q0 -65 10.5 -95.5t31 -37t65.5 -6.5h464q35 0 51.5 30t16.5 109v807q0 79 -30 112t-115 46q-5 0 -16 7t-11 11q0 10 10 13q7 1 14 1.5t23 0.5q37 0 59.5 -0.5t56.5 -1.5t62.5 -2.5t36.5 -1.5q1 0 78 2t119 2q55 0 59 -2
q6 -6 6 -15q0 -6 -9 -11t-17 -5q-86 -9 -116 -37.5t-30 -110.5q2 0 2 -8v-792q0 -3 -0.5 -5.5t-1.5 -5.5q0 -49 8.5 -77.5t26.5 -41t54.5 -20.5t70.5 -16q16 -2 16 -27v-76q0 -18 7.5 -69t7.5 -70q0 -29 -17 -29q-11 1 -17 11t-10 25.5t-7 23.5q-25 71 -68 110t-104.5 53.5
t-147.5 14.5q-9 0 -15.5 -0.5t-15.5 -1.5q-21 0 -349 4t-349 4q-24 0 -40.5 -0.5t-48.5 -1.5t-65.5 -2.5t-56.5 -1.5h-27q-24 0 -24 16q0 5 7 12t17 7q89 12 117.5 40.5t28.5 112.5v803q0 62 -12 92t-40 43t-92 21q-8 0 -17 7t-9 13q0 10 16 13h37q34 0 54 -0.5t51.5 -1.5
t64 -2.5t51.5 -1.5q4 1 7 1.5t8 0.5q-5 0 57 2t102 2q68 0 74 -6v-11q0 -7 -14 -11.5t-19 -4.5q-53 -4 -82.5 -20.5t-41 -48t-11.5 -87.5z" />
    <glyph glyph-name="multiply" unicode="&#xd7;" horiz-adv-x="1518" 
d="M291 991v8q0 83 -28.5 111t-115.5 37q-8 0 -17 7t-9 13q0 10 16 13q8 1 15.5 1.5t23.5 0.5q33 0 53 -0.5t51 -1.5t64 -2.5t53 -1.5h13q-5 0 57 2t102 2q68 0 74 -6v-11q0 -7 -14 -11.5t-19 -4.5q-76 -6 -106.5 -38.5t-30.5 -109.5q1 -2 1.5 -3.5t0.5 -4.5v-246
q0 -41 21 -89t57 -74q76 -60 190 -60q150 0 316 119v358q0 58 -13.5 87t-44.5 42t-88 21q-4 0 -15 7t-11 11q0 10 10 13q7 1 14 1.5t25 0.5q36 0 58 -0.5t56 -1.5t63 -2.5t38 -1.5q1 0 78 2t117 2q55 0 59 -2q6 -6 6 -15q0 -6 -10 -11t-17 -5q-85 -9 -114 -37t-29 -111v-811
q0 -49 8.5 -78t26 -41t53.5 -20t70 -16q12 0 12 -17q0 -16 -14 -16h-37q-23 0 -58.5 1.5t-66 2.5t-46.5 1.5t-38 0.5q-24 0 -41 -0.5t-49 -1.5t-67 -2.5t-58 -1.5h-27q-22 0 -22 16q0 5 7 12t15 7q62 8 92.5 22.5t44 46t13.5 86.5v402q-115 -73 -215.5 -106t-188.5 -33
q-122 0 -229 63q-32 19 -63 57.5t-51.5 88t-20.5 94.5v235z" />
    <glyph glyph-name="multiply" unicode="&#x427;" horiz-adv-x="1518" 
d="M291 991v8q0 83 -28.5 111t-115.5 37q-8 0 -17 7t-9 13q0 10 16 13q8 1 15.5 1.5t23.5 0.5q33 0 53 -0.5t51 -1.5t64 -2.5t53 -1.5h13q-5 0 57 2t102 2q68 0 74 -6v-11q0 -7 -14 -11.5t-19 -4.5q-76 -6 -106.5 -38.5t-30.5 -109.5q1 -2 1.5 -3.5t0.5 -4.5v-246
q0 -41 21 -89t57 -74q76 -60 190 -60q150 0 316 119v358q0 58 -13.5 87t-44.5 42t-88 21q-4 0 -15 7t-11 11q0 10 10 13q7 1 14 1.5t25 0.5q36 0 58 -0.5t56 -1.5t63 -2.5t38 -1.5q1 0 78 2t117 2q55 0 59 -2q6 -6 6 -15q0 -6 -10 -11t-17 -5q-85 -9 -114 -37t-29 -111v-811
q0 -49 8.5 -78t26 -41t53.5 -20t70 -16q12 0 12 -17q0 -16 -14 -16h-37q-23 0 -58.5 1.5t-66 2.5t-46.5 1.5t-38 0.5q-24 0 -41 -0.5t-49 -1.5t-67 -2.5t-58 -1.5h-27q-22 0 -22 16q0 5 7 12t15 7q62 8 92.5 22.5t44 46t13.5 86.5v402q-115 -73 -215.5 -106t-188.5 -33
q-122 0 -229 63q-32 19 -63 57.5t-51.5 88t-20.5 94.5v235z" />
    <glyph glyph-name="Oslash" unicode="&#xd8;" horiz-adv-x="1880" 
d="M948 6q-25 0 -43 -0.5t-51 -1.5t-69.5 -2.5t-59.5 -1.5h-18q-156 6 -324 6q-24 0 -40.5 -0.5t-48.5 -1.5t-65.5 -2.5t-56.5 -1.5h-27q-24 0 -24 16q0 5 7 12t17 7q89 12 117.5 40.5t28.5 112.5v811q0 83 -28.5 111t-115.5 37q-8 0 -17 7t-9 13q0 10 16 13h37
q34 0 54 -0.5t51.5 -1.5t64 -2.5t51.5 -1.5q4 1 7 1.5t8 0.5q-4 0 52 4t87 4q40 0 43 -6q4 -2 4 -15q0 -9 -5 -16.5t-11 -7.5q-59 -3 -83 -33.5t-24 -106.5q2 0 2 -8v-792q0 -5 -0.5 -9t-1.5 -8q0 -66 9.5 -95t29 -35.5t66.5 -6.5h190q55 0 72.5 27t17.5 106v811
q0 83 -21 112t-87 38q-6 0 -12.5 7.5t-6.5 16.5q0 13 12 19q6 1 11 1.5t16 0.5q30 0 100 -4t78 -4q11 1 64.5 4.5t93.5 3.5q39 0 45 -2q12 -6 12 -19q0 -9 -6 -16.5t-12 -7.5q-66 -9 -86.5 -38t-20.5 -112v-790q0 -6 -0.5 -10.5t-1.5 -10.5q0 -55 8 -82.5t27 -39t57 -11.5
h195q45 0 63 6.5t25.5 33.5t7.5 93v821q0 51 -9.5 80.5t-32.5 43.5t-62 16q-7 0 -13 8t-6 16q0 12 7 15q3 6 40 6q32 0 90 -4t52 -4h10q21 0 53 1.5t64.5 2.5t52 1.5t51.5 0.5q17 0 25 -0.5t16 -1.5q17 -3 17 -13q0 -6 -9 -13t-18 -7q-87 -9 -116 -37t-29 -111q2 0 2 -8
v-792q0 -3 -0.5 -5.5t-1.5 -5.5q0 -57 12.5 -87.5t43.5 -44t91 -21.5q9 0 17 -7t8 -12q0 -6 -7.5 -11t-17.5 -5h-27q-21 0 -55.5 1.5t-66 2.5t-48 1.5t-41.5 0.5q-21 0 -145.5 -2t-175.5 -4h-21q-21 0 -56.5 1.5t-68.5 2.5t-51.5 1.5t-44.5 0.5z" />
    <glyph glyph-name="Oslash" unicode="&#x428;" horiz-adv-x="1880" 
d="M948 6q-25 0 -43 -0.5t-51 -1.5t-69.5 -2.5t-59.5 -1.5h-18q-156 6 -324 6q-24 0 -40.5 -0.5t-48.5 -1.5t-65.5 -2.5t-56.5 -1.5h-27q-24 0 -24 16q0 5 7 12t17 7q89 12 117.5 40.5t28.5 112.5v811q0 83 -28.5 111t-115.5 37q-8 0 -17 7t-9 13q0 10 16 13h37
q34 0 54 -0.5t51.5 -1.5t64 -2.5t51.5 -1.5q4 1 7 1.5t8 0.5q-4 0 52 4t87 4q40 0 43 -6q4 -2 4 -15q0 -9 -5 -16.5t-11 -7.5q-59 -3 -83 -33.5t-24 -106.5q2 0 2 -8v-792q0 -5 -0.5 -9t-1.5 -8q0 -66 9.5 -95t29 -35.5t66.5 -6.5h190q55 0 72.5 27t17.5 106v811
q0 83 -21 112t-87 38q-6 0 -12.5 7.5t-6.5 16.5q0 13 12 19q6 1 11 1.5t16 0.5q30 0 100 -4t78 -4q11 1 64.5 4.5t93.5 3.5q39 0 45 -2q12 -6 12 -19q0 -9 -6 -16.5t-12 -7.5q-66 -9 -86.5 -38t-20.5 -112v-790q0 -6 -0.5 -10.5t-1.5 -10.5q0 -55 8 -82.5t27 -39t57 -11.5
h195q45 0 63 6.5t25.5 33.5t7.5 93v821q0 51 -9.5 80.5t-32.5 43.5t-62 16q-7 0 -13 8t-6 16q0 12 7 15q3 6 40 6q32 0 90 -4t52 -4h10q21 0 53 1.5t64.5 2.5t52 1.5t51.5 0.5q17 0 25 -0.5t16 -1.5q17 -3 17 -13q0 -6 -9 -13t-18 -7q-87 -9 -116 -37t-29 -111q2 0 2 -8
v-792q0 -3 -0.5 -5.5t-1.5 -5.5q0 -57 12.5 -87.5t43.5 -44t91 -21.5q9 0 17 -7t8 -12q0 -6 -7.5 -11t-17.5 -5h-27q-21 0 -55.5 1.5t-66 2.5t-48 1.5t-41.5 0.5q-21 0 -145.5 -2t-175.5 -4h-21q-21 0 -56.5 1.5t-68.5 2.5t-51.5 1.5t-44.5 0.5z" />
    <glyph glyph-name="Ugrave" unicode="&#xd9;" horiz-adv-x="1896" 
d="M948 6q-24 0 -42 -0.5t-52 -1.5t-70 -2.5t-59 -1.5h-18q-156 6 -324 6q-24 0 -40.5 -0.5t-48.5 -1.5t-65.5 -2.5t-56.5 -1.5h-27q-24 0 -24 16q0 5 7 12t17 7q89 12 117.5 40.5t28.5 112.5v811q0 83 -28.5 111t-115.5 37q-8 0 -17 7t-9 13q0 10 16 13q8 1 15.5 1.5
t23.5 0.5q33 0 53 -0.5t51 -1.5t64 -2.5t53 -1.5h13q-4 0 52 4t87 4q40 0 43 -6q4 -2 4 -15q0 -9 -5 -16.5t-11 -7.5q-59 -3 -83 -33.5t-24 -106.5q2 0 2 -8v-792q0 -5 -0.5 -9t-1.5 -8q0 -66 9.5 -95t29 -35.5t66.5 -6.5h190q55 0 72.5 27t17.5 106v811q0 83 -21 112
t-87 38q-6 0 -12.5 7.5t-6.5 16.5q0 13 12 19q6 1 11 1.5t16 0.5q30 0 100 -4t78 -4q11 1 64.5 4.5t93.5 3.5q39 0 45 -2q12 -6 12 -19q0 -9 -6 -16.5t-12 -7.5q-66 -9 -86.5 -38t-20.5 -112v-790q0 -6 -0.5 -10.5t-1.5 -10.5q0 -55 8 -82.5t27 -39t57 -11.5h195
q45 0 63 6.5t25.5 33.5t7.5 93v821q0 51 -9.5 80.5t-32.5 43.5t-62 16q-7 0 -13 8t-6 16q0 12 7 15q3 6 40 6q32 0 90 -4t52 -4q5 0 7.5 -0.5t4.5 -1.5q21 0 53 1.5t64 2.5t51 1.5t51 0.5h41q17 -3 17 -13q0 -6 -9 -13t-18 -7q-87 -9 -116 -37t-29 -111q2 0 2 -8v-792
q0 -3 -0.5 -5.5t-1.5 -5.5q0 -51 9 -79t26 -40t48.5 -19.5t75.5 -16.5q19 -3 19 -27v-8q0 -4 -0.5 -7t-1.5 -7q1 -8 1.5 -14.5t0.5 -16.5q0 -18 7 -67t7 -74q0 -29 -18 -29q-11 1 -17 11t-9.5 25t-6.5 23q-25 72 -78 105.5t-115 41t-157 9.5q-39 1 -75 1.5t-97 0.5h-52
q-21 0 -56.5 1.5t-68.5 2.5t-51 1.5t-45 0.5z" />
    <glyph glyph-name="Ugrave" unicode="&#x429;" horiz-adv-x="1896" 
d="M948 6q-24 0 -42 -0.5t-52 -1.5t-70 -2.5t-59 -1.5h-18q-156 6 -324 6q-24 0 -40.5 -0.5t-48.5 -1.5t-65.5 -2.5t-56.5 -1.5h-27q-24 0 -24 16q0 5 7 12t17 7q89 12 117.5 40.5t28.5 112.5v811q0 83 -28.5 111t-115.5 37q-8 0 -17 7t-9 13q0 10 16 13q8 1 15.5 1.5
t23.5 0.5q33 0 53 -0.5t51 -1.5t64 -2.5t53 -1.5h13q-4 0 52 4t87 4q40 0 43 -6q4 -2 4 -15q0 -9 -5 -16.5t-11 -7.5q-59 -3 -83 -33.5t-24 -106.5q2 0 2 -8v-792q0 -5 -0.5 -9t-1.5 -8q0 -66 9.5 -95t29 -35.5t66.5 -6.5h190q55 0 72.5 27t17.5 106v811q0 83 -21 112
t-87 38q-6 0 -12.5 7.5t-6.5 16.5q0 13 12 19q6 1 11 1.5t16 0.5q30 0 100 -4t78 -4q11 1 64.5 4.5t93.5 3.5q39 0 45 -2q12 -6 12 -19q0 -9 -6 -16.5t-12 -7.5q-66 -9 -86.5 -38t-20.5 -112v-790q0 -6 -0.5 -10.5t-1.5 -10.5q0 -55 8 -82.5t27 -39t57 -11.5h195
q45 0 63 6.5t25.5 33.5t7.5 93v821q0 51 -9.5 80.5t-32.5 43.5t-62 16q-7 0 -13 8t-6 16q0 12 7 15q3 6 40 6q32 0 90 -4t52 -4q5 0 7.5 -0.5t4.5 -1.5q21 0 53 1.5t64 2.5t51 1.5t51 0.5h41q17 -3 17 -13q0 -6 -9 -13t-18 -7q-87 -9 -116 -37t-29 -111q2 0 2 -8v-792
q0 -3 -0.5 -5.5t-1.5 -5.5q0 -51 9 -79t26 -40t48.5 -19.5t75.5 -16.5q19 -3 19 -27v-8q0 -4 -0.5 -7t-1.5 -7q1 -8 1.5 -14.5t0.5 -16.5q0 -18 7 -67t7 -74q0 -29 -18 -29q-11 1 -17 11t-9.5 25t-6.5 23q-25 72 -78 105.5t-115 41t-157 9.5q-39 1 -75 1.5t-97 0.5h-52
q-21 0 -56.5 1.5t-68.5 2.5t-51 1.5t-45 0.5z" />
    <glyph glyph-name="Uacute" unicode="&#xda;" horiz-adv-x="1460" 
d="M623 1182q19 1 38.5 1.5t73.5 0.5q111 0 119 -10q2 -3 2 -11q0 -7 -14 -11.5t-21 -4.5q-79 -7 -107 -41.5t-28 -120.5v-291q0 -53 47 -53q11 1 20 1.5t25 0.5q18 1 32.5 1.5t37.5 0.5q151 0 265.5 -37t172.5 -100q35 -38 53.5 -90.5t18.5 -108.5q0 -74 -25 -125
q-34 -73 -106.5 -115t-163 -56.5t-203.5 -14.5q-54 0 -151 4t-134 4h-8q-6 0 -83 -4t-111 -4q-11 1 -19.5 1.5t-15.5 0.5q-14 7 -14 14t14.5 15t23.5 8q78 6 108 40t30 111v893q0 39 -29 49.5t-78 10.5q-24 1 -44.5 1.5t-49.5 0.5q-88 0 -147 -35q-32 -18 -46 -44t-20 -57.5
t-16 -74.5q0 -10 -11 -10q-5 0 -10.5 10.5t-5.5 19.5v199q0 23 12.5 32t38.5 9q25 0 41.5 -0.5t36.5 -1.5q192 -10 317 -10q33 1 60.5 1.5t73.5 0.5zM795 604h-47q-62 0 -62 -53v-346l-2 -6q0 -158 193 -158l4 -2q124 0 197 78.5t73 201.5q0 147 -86.5 216t-226.5 69h-43z
" />
    <glyph glyph-name="Uacute" unicode="&#x42a;" horiz-adv-x="1460" 
d="M623 1182q19 1 38.5 1.5t73.5 0.5q111 0 119 -10q2 -3 2 -11q0 -7 -14 -11.5t-21 -4.5q-79 -7 -107 -41.5t-28 -120.5v-291q0 -53 47 -53q11 1 20 1.5t25 0.5q18 1 32.5 1.5t37.5 0.5q151 0 265.5 -37t172.5 -100q35 -38 53.5 -90.5t18.5 -108.5q0 -74 -25 -125
q-34 -73 -106.5 -115t-163 -56.5t-203.5 -14.5q-54 0 -151 4t-134 4h-8q-6 0 -83 -4t-111 -4q-11 1 -19.5 1.5t-15.5 0.5q-14 7 -14 14t14.5 15t23.5 8q78 6 108 40t30 111v893q0 39 -29 49.5t-78 10.5q-24 1 -44.5 1.5t-49.5 0.5q-88 0 -147 -35q-32 -18 -46 -44t-20 -57.5
t-16 -74.5q0 -10 -11 -10q-5 0 -10.5 10.5t-5.5 19.5v199q0 23 12.5 32t38.5 9q25 0 41.5 -0.5t36.5 -1.5q192 -10 317 -10q33 1 60.5 1.5t73.5 0.5zM795 604h-47q-62 0 -62 -53v-346l-2 -6q0 -158 193 -158l4 -2q124 0 197 78.5t73 201.5q0 147 -86.5 216t-226.5 69h-43z
" />
    <glyph glyph-name="Ucircumflex" unicode="&#xdb;" horiz-adv-x="1802" 
d="M287 991q0 73 -21 109.5t-86 42.5q-28 3 -42.5 10t-14.5 14q0 23 55 23h15q44 -2 100 -6t88 -4q7 1 13.5 1.5t17.5 0.5q18 1 37.5 1.5t74.5 0.5q111 0 119 -10v-11q0 -7 -14 -11.5t-19 -4.5q-79 -7 -107 -42t-28 -120v-291q0 -53 47 -53q11 1 20 1.5t23 0.5q19 1 34 1.5
t38 0.5q151 0 265.5 -37t172.5 -100q35 -38 53.5 -90.5t18.5 -108.5q0 -68 -25 -125q-34 -73 -106.5 -115t-163 -56.5t-203.5 -14.5q-38 1 -82.5 2t-81.5 2t-59.5 1.5t-63.5 0.5q-1 1 -2 1.5t-4 0.5q-6 0 -84 -4t-112 -4q-10 1 -18 1.5t-15 0.5q-14 7 -14 14t13 15t24 8
q78 6 107.5 39.5t29.5 111.5v803zM475 551v-346l-2 -6q0 -158 193 -158l2 -2q81 0 143 36t95.5 100.5t33.5 143.5q0 98 -41.5 162.5t-112.5 93.5t-159 29h-90q-62 0 -62 -53zM1337 199v800q0 57 -12.5 87t-43.5 42.5t-89 20.5q-5 0 -16 7t-11 11q0 10 13 13q6 1 12.5 1.5
t23.5 0.5q36 0 58.5 -0.5t56.5 -1.5t63 -2.5t38 -1.5q13 0 30.5 0.5t41.5 1.5t54.5 1.5t67.5 0.5q55 0 62 -2q4 -8 4 -15q0 -6 -9 -11t-18 -5q-85 -9 -114 -37t-29 -111v-811q0 -49 8.5 -78t26 -41t55.5 -20.5t67 -15.5q13 0 13 -17q0 -16 -15 -16h-37q-23 0 -58 1.5
t-66 2.5t-47 1.5t-37 0.5q-24 0 -41 -0.5t-49 -1.5t-67.5 -2.5t-58.5 -1.5h-24q-10 0 -17.5 5t-7.5 11q0 5 8 12t17 7q85 10 116 41t31 114v9z" />
    <glyph glyph-name="Ucircumflex" unicode="&#x42b;" horiz-adv-x="1802" 
d="M287 991q0 73 -21 109.5t-86 42.5q-28 3 -42.5 10t-14.5 14q0 23 55 23h15q44 -2 100 -6t88 -4q7 1 13.5 1.5t17.5 0.5q18 1 37.5 1.5t74.5 0.5q111 0 119 -10v-11q0 -7 -14 -11.5t-19 -4.5q-79 -7 -107 -42t-28 -120v-291q0 -53 47 -53q11 1 20 1.5t23 0.5q19 1 34 1.5
t38 0.5q151 0 265.5 -37t172.5 -100q35 -38 53.5 -90.5t18.5 -108.5q0 -68 -25 -125q-34 -73 -106.5 -115t-163 -56.5t-203.5 -14.5q-38 1 -82.5 2t-81.5 2t-59.5 1.5t-63.5 0.5q-1 1 -2 1.5t-4 0.5q-6 0 -84 -4t-112 -4q-10 1 -18 1.5t-15 0.5q-14 7 -14 14t13 15t24 8
q78 6 107.5 39.5t29.5 111.5v803zM475 551v-346l-2 -6q0 -158 193 -158l2 -2q81 0 143 36t95.5 100.5t33.5 143.5q0 98 -41.5 162.5t-112.5 93.5t-159 29h-90q-62 0 -62 -53zM1337 199v800q0 57 -12.5 87t-43.5 42.5t-89 20.5q-5 0 -16 7t-11 11q0 10 13 13q6 1 12.5 1.5
t23.5 0.5q36 0 58.5 -0.5t56.5 -1.5t63 -2.5t38 -1.5q13 0 30.5 0.5t41.5 1.5t54.5 1.5t67.5 0.5q55 0 62 -2q4 -8 4 -15q0 -6 -9 -11t-18 -5q-85 -9 -114 -37t-29 -111v-811q0 -49 8.5 -78t26 -41t55.5 -20.5t67 -15.5q13 0 13 -17q0 -16 -15 -16h-37q-23 0 -58 1.5
t-66 2.5t-47 1.5t-37 0.5q-24 0 -41 -0.5t-49 -1.5t-67.5 -2.5t-58.5 -1.5h-24q-10 0 -17.5 5t-7.5 11q0 5 8 12t17 7q85 10 116 41t31 114v9z" />
    <glyph glyph-name="Udieresis" unicode="&#xdc;" horiz-adv-x="1251" 
d="M287 991q0 73 -21 109.5t-86 42.5q-27 1 -42 9t-15 15q0 8 16 15.5t39 7.5h15q44 -2 100 -6t88 -4q7 1 13.5 1.5t17.5 0.5q18 1 37.5 1.5t74.5 0.5q111 0 119 -10v-11q0 -7 -14 -11.5t-19 -4.5q-79 -7 -107 -42t-28 -120v-291q0 -53 47 -53q11 1 20 1.5t23 0.5
q19 1 34 1.5t38 0.5q151 0 265.5 -37t172.5 -100q35 -38 53.5 -90.5t18.5 -108.5q0 -68 -25 -125q-34 -73 -106.5 -115t-163 -56.5t-203.5 -14.5q-55 0 -153 4t-134 4h-6q-6 0 -84 -4t-112 -4q-10 1 -18 1.5t-15 0.5q-14 7 -14 14t13 15t24 8q78 6 107.5 39.5t29.5 111.5
v803zM666 41l2 -2q81 0 143 36t95.5 100.5t33.5 143.5q0 98 -41.5 162.5t-112.5 93.5t-159 29h-45q-3 0 -5 -0.5t-4 -1.5h-36q-31 0 -46.5 -10t-15.5 -41v-346l-2 -6q0 -158 193 -158z" />
    <glyph glyph-name="Udieresis" unicode="&#x42c;" horiz-adv-x="1251" 
d="M287 991q0 73 -21 109.5t-86 42.5q-27 1 -42 9t-15 15q0 8 16 15.5t39 7.5h15q44 -2 100 -6t88 -4q7 1 13.5 1.5t17.5 0.5q18 1 37.5 1.5t74.5 0.5q111 0 119 -10v-11q0 -7 -14 -11.5t-19 -4.5q-79 -7 -107 -42t-28 -120v-291q0 -53 47 -53q11 1 20 1.5t23 0.5
q19 1 34 1.5t38 0.5q151 0 265.5 -37t172.5 -100q35 -38 53.5 -90.5t18.5 -108.5q0 -68 -25 -125q-34 -73 -106.5 -115t-163 -56.5t-203.5 -14.5q-55 0 -153 4t-134 4h-6q-6 0 -84 -4t-112 -4q-10 1 -18 1.5t-15 0.5q-14 7 -14 14t13 15t24 8q78 6 107.5 39.5t29.5 111.5
v803zM666 41l2 -2q81 0 143 36t95.5 100.5t33.5 143.5q0 98 -41.5 162.5t-112.5 93.5t-159 29h-45q-3 0 -5 -0.5t-4 -1.5h-36q-31 0 -46.5 -10t-15.5 -41v-346l-2 -6q0 -158 193 -158z" />
    <glyph glyph-name="Yacute" unicode="&#xdd;" horiz-adv-x="1309" 
d="M999 584h-524v57h522q-6 91 -24 164q-30 123 -92 204.5t-141.5 120.5t-166.5 41q-111 0 -205 -58t-135 -157q-2 -5 -14.5 -45t-20 -57.5t-16.5 -17.5q-20 0 -20 26q1 7 1.5 12t0.5 11l8 258q0 11 5.5 25t15.5 14q4 0 12 -4q4 -4 14 -34t25 -30l4 2q26 6 63 25t56 26
q103 39 223 39q39 0 117 -8q113 -16 209 -74.5t163 -146t102.5 -193t35.5 -221.5q0 -9 -1 -26t-2 -31q-7 -117 -56 -216.5t-132 -171.5t-189.5 -108.5t-224.5 -36.5h-4q-155 3 -280 66q-22 15 -46.5 30.5t-43.5 20.5h-15q-31 0 -39 -45q0 -9 -6.5 -14.5t-13.5 -5.5t-13 6
t-6 14v350q0 6 6.5 12.5t10.5 6.5q11 0 14 -13q9 -19 21.5 -62t19.5 -60q45 -109 94 -158q50 -50 120.5 -77.5t146.5 -27.5q133 0 235 80q111 91 154 240q32 113 32 248z" />
    <glyph glyph-name="Yacute" unicode="&#x42d;" horiz-adv-x="1309" 
d="M999 584h-524v57h522q-6 91 -24 164q-30 123 -92 204.5t-141.5 120.5t-166.5 41q-111 0 -205 -58t-135 -157q-2 -5 -14.5 -45t-20 -57.5t-16.5 -17.5q-20 0 -20 26q1 7 1.5 12t0.5 11l8 258q0 11 5.5 25t15.5 14q4 0 12 -4q4 -4 14 -34t25 -30l4 2q26 6 63 25t56 26
q103 39 223 39q39 0 117 -8q113 -16 209 -74.5t163 -146t102.5 -193t35.5 -221.5q0 -9 -1 -26t-2 -31q-7 -117 -56 -216.5t-132 -171.5t-189.5 -108.5t-224.5 -36.5h-4q-155 3 -280 66q-22 15 -46.5 30.5t-43.5 20.5h-15q-31 0 -39 -45q0 -9 -6.5 -14.5t-13.5 -5.5t-13 6
t-6 14v350q0 6 6.5 12.5t10.5 6.5q11 0 14 -13q9 -19 21.5 -62t19.5 -60q45 -109 94 -158q50 -50 120.5 -77.5t146.5 -27.5q133 0 235 80q111 91 154 240q32 113 32 248z" />
    <glyph glyph-name="Thorn" unicode="&#xde;" horiz-adv-x="1860" 
d="M596 584h-121v-385q0 -3 -0.5 -5.5t-1.5 -5.5q0 -51 9 -79t26 -40t48.5 -19.5t74.5 -16.5q14 0 14 -17q0 -16 -16 -16h-37q-23 0 -58.5 1.5t-66 2.5t-46.5 1.5t-38 0.5q-24 0 -40.5 -0.5t-48.5 -1.5t-65.5 -2.5t-56.5 -1.5h-27q-24 0 -24 16q0 5 7 12t17 7
q89 12 117.5 40.5t28.5 112.5v811q0 83 -28.5 111t-115.5 37q-8 0 -17 7t-9 13q0 10 16 13h37q34 0 54 -0.5t51.5 -1.5t64 -2.5t51.5 -1.5q4 1 7 1.5t8 0.5q-5 0 57 2t102 2q68 0 74 -6v-11q0 -7 -14 -11.5t-19 -4.5q-76 -6 -106.5 -38.5t-30.5 -109.5q1 -2 1.5 -3.5
t0.5 -4.5v-350h125q12 123 63 227t130.5 180t181 118t209.5 42q23 0 63 -4q109 -12 202 -62.5t161.5 -130t106.5 -186t38 -225.5v-10q-3 -178 -80 -318.5t-209 -219.5t-290 -79q-114 0 -219.5 44.5t-188 127t-128.5 193t-46 240.5l1.5 3t0.5 3zM1182 8q64 1 122 29
t104.5 77.5t78.5 114.5q69 150 69 363q0 110 -19.5 210t-61.5 181.5t-113.5 133t-169.5 54.5h-14q-121 0 -205.5 -85t-126 -218t-41.5 -268q1 -1 1.5 -2.5t0.5 -3.5q0 -142 39 -275.5t123.5 -222t212.5 -88.5z" />
    <glyph glyph-name="Thorn" unicode="&#x42e;" horiz-adv-x="1860" 
d="M596 584h-121v-385q0 -3 -0.5 -5.5t-1.5 -5.5q0 -51 9 -79t26 -40t48.5 -19.5t74.5 -16.5q14 0 14 -17q0 -16 -16 -16h-37q-23 0 -58.5 1.5t-66 2.5t-46.5 1.5t-38 0.5q-24 0 -40.5 -0.5t-48.5 -1.5t-65.5 -2.5t-56.5 -1.5h-27q-24 0 -24 16q0 5 7 12t17 7
q89 12 117.5 40.5t28.5 112.5v811q0 83 -28.5 111t-115.5 37q-8 0 -17 7t-9 13q0 10 16 13h37q34 0 54 -0.5t51.5 -1.5t64 -2.5t51.5 -1.5q4 1 7 1.5t8 0.5q-5 0 57 2t102 2q68 0 74 -6v-11q0 -7 -14 -11.5t-19 -4.5q-76 -6 -106.5 -38.5t-30.5 -109.5q1 -2 1.5 -3.5
t0.5 -4.5v-350h125q12 123 63 227t130.5 180t181 118t209.5 42q23 0 63 -4q109 -12 202 -62.5t161.5 -130t106.5 -186t38 -225.5v-10q-3 -178 -80 -318.5t-209 -219.5t-290 -79q-114 0 -219.5 44.5t-188 127t-128.5 193t-46 240.5l1.5 3t0.5 3zM1182 8q64 1 122 29
t104.5 77.5t78.5 114.5q69 150 69 363q0 110 -19.5 210t-61.5 181.5t-113.5 133t-169.5 54.5h-14q-121 0 -205.5 -85t-126 -218t-41.5 -268q1 -1 1.5 -2.5t0.5 -3.5q0 -142 39 -275.5t123.5 -222t212.5 -88.5z" />
    <glyph glyph-name="germandbls" unicode="&#xdf;" horiz-adv-x="1327" 
d="M872 199v309q0 39 -34 39q-19 0 -44.5 -13.5t-37.5 -29.5l-381 -477q-25 -27 -76 -27h-113q-51 0 -75 -2q-2 0 -15 -2t-20 -2q-17 0 -23 6l-8 8q0 7 16.5 15.5t26.5 11.5q83 30 135 92l383 448q-59 10 -108.5 25t-93.5 43t-74 70q-54 77 -54 172q0 76 41 153
q54 94 154.5 122t245.5 28q79 0 204 -5t154 -5q22 1 41 1.5t47 0.5h19q45 0 45 -15q0 -16 -64 -22q-62 -4 -85 -39.5t-23 -99.5q1 -3 1.5 -6t0.5 -7v-792q0 -2 -0.5 -4t-1.5 -5q0 -56 14 -87t44.5 -45.5t88.5 -22.5q25 0 25 -19q0 -16 -23 -16h-28q-23 0 -57 1.5t-65 2.5
t-48 1.5t-41 0.5q-21 0 -37 -0.5l-48 -1.5t-67 -2.5t-59 -1.5h-35q-19 0 -19 16q0 6 4.5 11.5t12.5 5.5q40 9 73 16.5t50 19t24.5 38t7.5 81.5v11zM872 1083v2q0 66 -79 66h-27q-143 -6 -216 -75t-73 -214q0 -101 35 -159.5t101.5 -84t164.5 -30.5q10 0 25 -2t20 -2
q25 0 37 10.5t12 40.5v448z" />
    <glyph glyph-name="germandbls" unicode="&#x42f;" horiz-adv-x="1327" 
d="M872 199v309q0 39 -34 39q-19 0 -44.5 -13.5t-37.5 -29.5l-381 -477q-25 -27 -76 -27h-113q-51 0 -75 -2q-2 0 -15 -2t-20 -2q-17 0 -23 6l-8 8q0 7 16.5 15.5t26.5 11.5q83 30 135 92l383 448q-59 10 -108.5 25t-93.5 43t-74 70q-54 77 -54 172q0 76 41 153
q54 94 154.5 122t245.5 28q79 0 204 -5t154 -5q22 1 41 1.5t47 0.5h19q45 0 45 -15q0 -16 -64 -22q-62 -4 -85 -39.5t-23 -99.5q1 -3 1.5 -6t0.5 -7v-792q0 -2 -0.5 -4t-1.5 -5q0 -56 14 -87t44.5 -45.5t88.5 -22.5q25 0 25 -19q0 -16 -23 -16h-28q-23 0 -57 1.5t-65 2.5
t-48 1.5t-41 0.5q-21 0 -37 -0.5l-48 -1.5t-67 -2.5t-59 -1.5h-35q-19 0 -19 16q0 6 4.5 11.5t12.5 5.5q40 9 73 16.5t50 19t24.5 38t7.5 81.5v11zM872 1083v2q0 66 -79 66h-27q-143 -6 -216 -75t-73 -214q0 -101 35 -159.5t101.5 -84t164.5 -30.5q10 0 25 -2t20 -2
q25 0 37 10.5t12 40.5v448z" />
    <glyph glyph-name="agrave" unicode="&#xe0;" horiz-adv-x="967" 
d="M565 98q-62 -56 -138 -86.5t-159 -31.5h-8q-45 0 -84 15t-63.5 46t-28.5 78q0 7 -0.5 11t-1.5 9q0 73 55 129.5t133 91.5q131 61 299 123q1 23 1.5 43.5t0.5 59.5q0 93 -28 127q-42 47 -142 47q-12 0 -19 -0.5t-15 -1.5q-76 -9 -93 -34t-29 -77t-48 -61q-22 -4 -27 -4
q-27 0 -42 17t-15 44q0 52 47 88q42 33 107 49.5t134 16.5q56 0 107.5 -8.5t91.5 -20.5q119 -43 119 -176v-447q0 -37 16 -67.5t43 -30.5q9 0 37 14q23 19 39 19q12 0 12 -12v-2q-4 -36 -47 -61t-98 -25t-98 29t-58 89zM569 199v245q-97 -35 -175.5 -78t-119.5 -102
q-28 -42 -28 -94q0 -73 51 -107q29 -18 68 -18q70 0 137 47t67 107z" />
    <glyph glyph-name="agrave" unicode="&#x430;" horiz-adv-x="967" 
d="M565 98q-62 -56 -138 -86.5t-159 -31.5h-8q-45 0 -84 15t-63.5 46t-28.5 78q0 7 -0.5 11t-1.5 9q0 73 55 129.5t133 91.5q131 61 299 123q1 23 1.5 43.5t0.5 59.5q0 93 -28 127q-42 47 -142 47q-12 0 -19 -0.5t-15 -1.5q-76 -9 -93 -34t-29 -77t-48 -61q-22 -4 -27 -4
q-27 0 -42 17t-15 44q0 52 47 88q42 33 107 49.5t134 16.5q56 0 107.5 -8.5t91.5 -20.5q119 -43 119 -176v-447q0 -37 16 -67.5t43 -30.5q9 0 37 14q23 19 39 19q12 0 12 -12v-2q-4 -36 -47 -61t-98 -25t-98 29t-58 89zM569 199v245q-97 -35 -175.5 -78t-119.5 -102
q-28 -42 -28 -94q0 -73 51 -107q29 -18 68 -18q70 0 137 47t67 107z" />
    <glyph glyph-name="aacute" unicode="&#xe1;" horiz-adv-x="1024" 
d="M752 428q-8 174 -72 250q-31 39 -80.5 61.5t-99.5 22.5q-19 0 -51 -4q-69 -20 -114 -78t-64 -135t-19 -162q0 -43 14 -139q16 -69 47.5 -121.5t78 -82.5t106.5 -30q34 0 82 15q96 31 134 128t38 222v53zM82 375q0 167 21 295t72.5 224t143.5 155t230 77q216 28 266 86h31
q-36 -177 -242 -206q-204 -28 -305 -82t-133.5 -145.5t-32.5 -260.5q64 132 156 205.5t225 73.5q106 0 201 -55t152 -147t57 -202q0 -86 -32.5 -161t-92 -133.5t-137.5 -90t-162 -31.5q-113 0 -209.5 53t-152.5 145.5t-56 199.5z" />
    <glyph glyph-name="aacute" unicode="&#x431;" horiz-adv-x="1024" 
d="M752 428q-8 174 -72 250q-31 39 -80.5 61.5t-99.5 22.5q-19 0 -51 -4q-69 -20 -114 -78t-64 -135t-19 -162q0 -43 14 -139q16 -69 47.5 -121.5t78 -82.5t106.5 -30q34 0 82 15q96 31 134 128t38 222v53zM82 375q0 167 21 295t72.5 224t143.5 155t230 77q216 28 266 86h31
q-36 -177 -242 -206q-204 -28 -305 -82t-133.5 -145.5t-32.5 -260.5q64 132 156 205.5t225 73.5q106 0 201 -55t152 -147t57 -202q0 -86 -32.5 -161t-92 -133.5t-137.5 -90t-162 -31.5q-113 0 -209.5 53t-152.5 145.5t-56 199.5z" />
    <glyph glyph-name="acircumflex" unicode="&#xe2;" horiz-adv-x="1004" 
d="M324 778h90q165 0 245.5 -20.5t120.5 -73.5q25 -37 25 -86q0 -58 -35 -98q-23 -23 -50.5 -36t-66 -21t-61.5 -13q163 -18 248 -94q29 -26 43 -61t14 -74q0 -44 -18 -80q-40 -70 -135.5 -96.5t-227.5 -26.5q-44 0 -121 4t-104 4q-6 0 -73 -4t-97 -4q-8 1 -14.5 1.5
t-10.5 0.5q-12 4 -12 14q0 2 4 10t8 9q24 9 53.5 15.5t40.5 13.5t17 27.5t6 62.5v475q0 50 -9.5 72t-51.5 32q-8 2 -24.5 5.5t-29 9.5t-12.5 14q0 6 6 12q5 8 35 8q14 0 22 -0.5t18.5 -1.5t18.5 -2.5t11 -1.5q6 0 10 -0.5t8 -1.5q14 1 29.5 2t29 2t23 1.5t27.5 0.5zM369 133
l-2 -4q0 -54 36 -76t107 -22l4 -2q98 0 159.5 50.5t61.5 129.5q0 107 -58 149.5t-171 42.5h-53q-58 -3 -71 -6t-13 -33v-229zM371 465q0 -33 32 -33q9 1 17 1.5t20 0.5q68 2 114.5 16.5t73.5 54t27 109.5q0 79 -43.5 105t-132.5 26h-37q-38 0 -54.5 -8t-16.5 -39v-233z" />
    <glyph glyph-name="acircumflex" unicode="&#x432;" horiz-adv-x="1004" 
d="M324 778h90q165 0 245.5 -20.5t120.5 -73.5q25 -37 25 -86q0 -58 -35 -98q-23 -23 -50.5 -36t-66 -21t-61.5 -13q163 -18 248 -94q29 -26 43 -61t14 -74q0 -44 -18 -80q-40 -70 -135.5 -96.5t-227.5 -26.5q-44 0 -121 4t-104 4q-6 0 -73 -4t-97 -4q-8 1 -14.5 1.5
t-10.5 0.5q-12 4 -12 14q0 2 4 10t8 9q24 9 53.5 15.5t40.5 13.5t17 27.5t6 62.5v475q0 50 -9.5 72t-51.5 32q-8 2 -24.5 5.5t-29 9.5t-12.5 14q0 6 6 12q5 8 35 8q14 0 22 -0.5t18.5 -1.5t18.5 -2.5t11 -1.5q6 0 10 -0.5t8 -1.5q14 1 29.5 2t29 2t23 1.5t27.5 0.5zM369 133
l-2 -4q0 -54 36 -76t107 -22l4 -2q98 0 159.5 50.5t61.5 129.5q0 107 -58 149.5t-171 42.5h-53q-58 -3 -71 -6t-13 -33v-229zM371 465q0 -33 32 -33q9 1 17 1.5t20 0.5q68 2 114.5 16.5t73.5 54t27 109.5q0 79 -43.5 105t-132.5 26h-37q-38 0 -54.5 -8t-16.5 -39v-233z" />
    <glyph glyph-name="atilde" unicode="&#xe3;" horiz-adv-x="836" 
d="M369 690v-538q0 -3 -0.5 -5.5t-1.5 -5.5q0 -49 11 -66.5t49.5 -26.5t57.5 -15q11 -3 11 -17q0 -13 -11 -16q-6 0 -12 -0.5t-14 -1.5q-26 0 -94 4t-74 4t-73 -4t-97 -4q-8 1 -14.5 1.5t-10.5 0.5q-12 4 -12 14q0 2 4 10t8 9q24 9 53.5 15.5t40.5 13.5t17 27.5t6 62.5v477
q0 35 -3 53t-15 29.5t-43 19.5q-8 2 -24.5 5.5t-29 9.5t-12.5 14q0 6 6 12q5 8 35 8q14 0 22 -0.5t18.5 -1.5t18.5 -2.5t11 -1.5q9 0 14.5 -0.5t11.5 -1.5q16 0 49 2t50 2h360q43 0 47 -26q4 -28 6 -64t4 -57v-15q0 -22 -12 -22h-6q-8 0 -14 6.5t-9 16.5t-4.5 20t-3.5 16
q-23 57 -63 71.5t-117 14.5h-117q-24 0 -24 -47z" />
    <glyph glyph-name="atilde" unicode="&#x433;" horiz-adv-x="836" 
d="M369 690v-538q0 -3 -0.5 -5.5t-1.5 -5.5q0 -49 11 -66.5t49.5 -26.5t57.5 -15q11 -3 11 -17q0 -13 -11 -16q-6 0 -12 -0.5t-14 -1.5q-26 0 -94 4t-74 4t-73 -4t-97 -4q-8 1 -14.5 1.5t-10.5 0.5q-12 4 -12 14q0 2 4 10t8 9q24 9 53.5 15.5t40.5 13.5t17 27.5t6 62.5v477
q0 35 -3 53t-15 29.5t-43 19.5q-8 2 -24.5 5.5t-29 9.5t-12.5 14q0 6 6 12q5 8 35 8q14 0 22 -0.5t18.5 -1.5t18.5 -2.5t11 -1.5q9 0 14.5 -0.5t11.5 -1.5q16 0 49 2t50 2h360q43 0 47 -26q4 -28 6 -64t4 -57v-15q0 -22 -12 -22h-6q-8 0 -14 6.5t-9 16.5t-4.5 20t-3.5 16
q-23 57 -63 71.5t-117 14.5h-117q-24 0 -24 -47z" />
    <glyph glyph-name="adieresis" unicode="&#xe4;" horiz-adv-x="1042" 
d="M252 182q28 48 49 148.5t35 310.5v4q0 32 -15.5 56t-48.5 30q-5 1 -16 1.5t-20.5 3.5t-12.5 5q-4 0 -4 4q0 8 8.5 16.5t12.5 8.5h20q40 0 64 -0.5t51 -1.5h59q52 0 95.5 -0.5t78 -1.5t58 -1.5t39.5 -0.5q22 1 44 1.5t72 0.5q48 0 58 -4q4 -4 4 -8q0 -8 -13 -17.5
t-24 -9.5q-25 0 -34 -16.5t-9 -67.5v-514q0 -6 -0.5 -10t-1.5 -8q0 -37 9.5 -50t32.5 -17.5t62 -10.5q6 -1 11.5 -12t5.5 -17v-35q0 -16 6 -59t6 -55q0 -25 -19 -31h-2q-9 0 -22 51q-46 125 -229 125h-312q-79 0 -144 -30t-91 -99q-2 -6 -5 -18.5t-8.5 -22.5t-15.5 -10
q-4 0 -10 11.5t-6 18.5l2 5q8 48 8 112q1 6 1.5 11.5t0.5 15.5v6q0 23 14 29q90 13 156 153zM643 643v16q0 46 -9.5 59t-43.5 13h-139q-46 0 -59 -16t-15 -58q-10 -168 -32.5 -305t-47.5 -198q-30 -75 -68 -115h371q24 0 33.5 13.5t9.5 62.5v528z" />
    <glyph glyph-name="adieresis" unicode="&#x434;" horiz-adv-x="1042" 
d="M252 182q28 48 49 148.5t35 310.5v4q0 32 -15.5 56t-48.5 30q-5 1 -16 1.5t-20.5 3.5t-12.5 5q-4 0 -4 4q0 8 8.5 16.5t12.5 8.5h20q40 0 64 -0.5t51 -1.5h59q52 0 95.5 -0.5t78 -1.5t58 -1.5t39.5 -0.5q22 1 44 1.5t72 0.5q48 0 58 -4q4 -4 4 -8q0 -8 -13 -17.5
t-24 -9.5q-25 0 -34 -16.5t-9 -67.5v-514q0 -6 -0.5 -10t-1.5 -8q0 -37 9.5 -50t32.5 -17.5t62 -10.5q6 -1 11.5 -12t5.5 -17v-35q0 -16 6 -59t6 -55q0 -25 -19 -31h-2q-9 0 -22 51q-46 125 -229 125h-312q-79 0 -144 -30t-91 -99q-2 -6 -5 -18.5t-8.5 -22.5t-15.5 -10
q-4 0 -10 11.5t-6 18.5l2 5q8 48 8 112q1 6 1.5 11.5t0.5 15.5v6q0 23 14 29q90 13 156 153zM643 643v16q0 46 -9.5 59t-43.5 13h-139q-46 0 -59 -16t-15 -58q-10 -168 -32.5 -305t-47.5 -198q-30 -75 -68 -115h371q24 0 33.5 13.5t9.5 62.5v528z" />
    <glyph glyph-name="aring" unicode="&#xe5;" horiz-adv-x="928" 
d="M266 483q-6 -42 -6 -84q0 -106 40 -188t106.5 -126t140.5 -44q102 0 184 76q10 12 22 25.5t25 13.5q3 0 5.5 -0.5t4.5 -1.5q11 -6 11 -19q0 -18 -26 -47t-44 -43q-94 -70 -235 -70q-150 0 -263 82q-73 56 -110 137.5t-37 170.5q0 93 38.5 181t106.5 150q108 99 271 99
q71 0 137 -24.5t114.5 -73.5t69.5 -122q10 -50 10 -57q0 -35 -47 -35h-518zM276 535h361q31 0 31 40q0 32 -19 80.5t-37 63.5q-48 39 -116 39q-62 0 -109 -29q-90 -53 -111 -194z" />
    <glyph glyph-name="aring" unicode="&#x435;" horiz-adv-x="928" 
d="M266 483q-6 -42 -6 -84q0 -106 40 -188t106.5 -126t140.5 -44q102 0 184 76q10 12 22 25.5t25 13.5q3 0 5.5 -0.5t4.5 -1.5q11 -6 11 -19q0 -18 -26 -47t-44 -43q-94 -70 -235 -70q-150 0 -263 82q-73 56 -110 137.5t-37 170.5q0 93 38.5 181t106.5 150q108 99 271 99
q71 0 137 -24.5t114.5 -73.5t69.5 -122q10 -50 10 -57q0 -35 -47 -35h-518zM276 535h361q31 0 31 40q0 32 -19 80.5t-37 63.5q-48 39 -116 39q-62 0 -109 -29q-90 -53 -111 -194z" />
    <glyph glyph-name="ae" unicode="&#xe6;" horiz-adv-x="1481" 
d="M854 778q4 -2 4 -12q0 -6 -2 -12t-4 -9q-45 -7 -59.5 -27.5t-14.5 -68.5l-2 -268q5 4 56.5 58t91 99t74 95t34.5 74q0 10 -4 14q-6 9 -28 12.5t-40 6.5t-22 14q0 2 -0.5 3.5t-1.5 2.5q0 8 7.5 13t14.5 5h5q18 0 56 -4t56 -4q5 1 9.5 1.5t11.5 0.5q-3 0 33 4t59 4
q53 0 53 -16v-6q0 -13 -30 -19.5t-31 -7.5q-39 -13 -67 -40t-77 -83l-133 -147l330 -338q11 -12 32.5 -33t39 -32t38.5 -15q10 -2 17.5 -9.5t7.5 -15.5q0 -9 -10 -12q-18 -2 -31 -4t-22 -2q-10 0 -28 1.5l-36 3t-27 1.5q-6 0 -23 -2t-24 -2q-26 0 -41 14l-274 295
q-39 45 -70 45h-4v-204q0 -3 -0.5 -5.5t-1.5 -5.5q0 -49 11 -66.5t50 -26.5t58 -15q10 -3 10 -17q0 -13 -10 -16q-6 0 -12.5 -0.5t-14.5 -1.5q-26 0 -93 4t-75 4q-6 0 -73 -4t-97 -4q-7 1 -12.5 1.5t-11.5 0.5q-10 3 -10 16q0 14 10 17q14 5 54.5 14.5t51.5 26.5t11 67v215
h-7q-28 0 -67 -45l-275 -295q-14 -14 -43 -14q-7 0 -23 2t-22 2q-7 0 -26 -1.5l-38 -3t-28 -1.5t-51 6q-12 3 -12 12q0 7 8 15t18 10q33 7 51 22.5t60 57.5l330 338l-136 147q-38 48 -70 79t-71 44l-31.5 7t-31.5 20l2 6q0 16 51 16q25 0 60 -4t34 -4q6 0 10 -0.5t9 -1.5
q17 0 56 4t58 4l2 -2q25 0 25 -14q0 -2 -0.5 -4t-1.5 -4q-4 -11 -22 -14t-40 -6.5t-28 -12.5q-6 -6 -6 -14q0 -24 34 -72.5t74.5 -94t92.5 -99t57 -58.5v268q0 47 -14.5 67t-61.5 27q-2 3 -5 10t-3 11q0 9 6 12q4 2 37 2q42 0 64 -0.5t46 -1.5q25 1 48.5 1.5t68.5 0.5
q39 0 43 -2z" />
    <glyph glyph-name="ae" unicode="&#x436;" horiz-adv-x="1481" 
d="M854 778q4 -2 4 -12q0 -6 -2 -12t-4 -9q-45 -7 -59.5 -27.5t-14.5 -68.5l-2 -268q5 4 56.5 58t91 99t74 95t34.5 74q0 10 -4 14q-6 9 -28 12.5t-40 6.5t-22 14q0 2 -0.5 3.5t-1.5 2.5q0 8 7.5 13t14.5 5h5q18 0 56 -4t56 -4q5 1 9.5 1.5t11.5 0.5q-3 0 33 4t59 4
q53 0 53 -16v-6q0 -13 -30 -19.5t-31 -7.5q-39 -13 -67 -40t-77 -83l-133 -147l330 -338q11 -12 32.5 -33t39 -32t38.5 -15q10 -2 17.5 -9.5t7.5 -15.5q0 -9 -10 -12q-18 -2 -31 -4t-22 -2q-10 0 -28 1.5l-36 3t-27 1.5q-6 0 -23 -2t-24 -2q-26 0 -41 14l-274 295
q-39 45 -70 45h-4v-204q0 -3 -0.5 -5.5t-1.5 -5.5q0 -49 11 -66.5t50 -26.5t58 -15q10 -3 10 -17q0 -13 -10 -16q-6 0 -12.5 -0.5t-14.5 -1.5q-26 0 -93 4t-75 4q-6 0 -73 -4t-97 -4q-7 1 -12.5 1.5t-11.5 0.5q-10 3 -10 16q0 14 10 17q14 5 54.5 14.5t51.5 26.5t11 67v215
h-7q-28 0 -67 -45l-275 -295q-14 -14 -43 -14q-7 0 -23 2t-22 2q-7 0 -26 -1.5l-38 -3t-28 -1.5t-51 6q-12 3 -12 12q0 7 8 15t18 10q33 7 51 22.5t60 57.5l330 338l-136 147q-38 48 -70 79t-71 44l-31.5 7t-31.5 20l2 6q0 16 51 16q25 0 60 -4t34 -4q6 0 10 -0.5t9 -1.5
q17 0 56 4t58 4l2 -2q25 0 25 -14q0 -2 -0.5 -4t-1.5 -4q-4 -11 -22 -14t-40 -6.5t-28 -12.5q-6 -6 -6 -14q0 -24 34 -72.5t74.5 -94t92.5 -99t57 -58.5v268q0 47 -14.5 67t-61.5 27q-2 3 -5 10t-3 11q0 9 6 12q4 2 37 2q42 0 64 -0.5t46 -1.5q25 1 48.5 1.5t68.5 0.5
q39 0 43 -2z" />
    <glyph glyph-name="ccedilla" unicode="&#xe7;" horiz-adv-x="836" 
d="M485 799q114 -23 185 -109q28 -40 28 -98q0 -56 -30 -92q-31 -32 -69 -44.5t-114 -27.5q73 -8 116 -25.5t79 -56.5q45 -51 45 -129q0 -57 -20 -94q-42 -72 -133 -107.5t-205 -35.5q-20 1 -37 1.5t-43 0.5q-56 7 -108 32.5t-73 69.5q-6 18 -6 22q0 23 23 23q9 0 39 -30.5
t67 -51t101 -20.5q6 1 11 1.5t11 0.5q94 6 152 53t65 123v31q0 77 -36.5 118t-98.5 41q-15 0 -47 -4q-3 0 -5.5 -0.5t-6.5 -1.5q-25 0 -25 23q0 9 6.5 15.5t16.5 6.5q100 6 140 46.5t40 133.5q0 74 -56.5 119t-119.5 45h-12q-43 -6 -78 -43q-11 -9 -24.5 -42.5t-26.5 -51.5
t-39 -18q-3 1 -5.5 1.5t-7.5 0.5q-18 3 -31.5 18.5t-13.5 34.5q0 37 31 61q75 68 231 68q44 0 84 -8z" />
    <glyph glyph-name="ccedilla" unicode="&#x437;" horiz-adv-x="836" 
d="M485 799q114 -23 185 -109q28 -40 28 -98q0 -56 -30 -92q-31 -32 -69 -44.5t-114 -27.5q73 -8 116 -25.5t79 -56.5q45 -51 45 -129q0 -57 -20 -94q-42 -72 -133 -107.5t-205 -35.5q-20 1 -37 1.5t-43 0.5q-56 7 -108 32.5t-73 69.5q-6 18 -6 22q0 23 23 23q9 0 39 -30.5
t67 -51t101 -20.5q6 1 11 1.5t11 0.5q94 6 152 53t65 123v31q0 77 -36.5 118t-98.5 41q-15 0 -47 -4q-3 0 -5.5 -0.5t-6.5 -1.5q-25 0 -25 23q0 9 6.5 15.5t16.5 6.5q100 6 140 46.5t40 133.5q0 74 -56.5 119t-119.5 45h-12q-43 -6 -78 -43q-11 -9 -24.5 -42.5t-26.5 -51.5
t-39 -18q-3 1 -5.5 1.5t-7.5 0.5q-18 3 -31.5 18.5t-13.5 34.5q0 37 31 61q75 68 231 68q44 0 84 -8z" />
    <glyph glyph-name="egrave" unicode="&#xe8;" horiz-adv-x="1139" 
d="M758 553l-389 -387v-14q0 -3 -0.5 -5.5t-1.5 -5.5q0 -49 11 -66.5t49.5 -26.5t57.5 -15q11 -3 11 -17q0 -13 -11 -16q-6 0 -12 -0.5t-14 -1.5q-26 0 -94 4t-74 4t-73 -4t-97 -4q-8 1 -14.5 1.5t-10.5 0.5q-12 4 -12 14q0 2 4 10t8 9q24 9 53.5 15.5t40.5 13.5t17 27.5
t6 62.5v469q0 56 -10 74.5t-33 24.5t-74 21q-12 4 -12 17q0 10 12 14q5 1 9 1.5t16 0.5q30 0 97 -4t73 -4t74 4t94 4q11 0 16 -0.5t10 -1.5q11 -3 11 -14q0 -14 -11 -17q-50 -14 -73 -20t-34 -24t-11 -68q2 0 2 -8v-404l389 387v25q0 49 -11 67.5t-56.5 30.5t-49.5 14
q-12 3 -12 17q0 11 12 14q5 1 9.5 1.5t15.5 0.5q26 0 93 -4t75 -4q9 0 76 4t94 4q11 0 16 -0.5t10 -1.5q8 -3 8 -14q0 -14 -10 -17q-51 -15 -73.5 -21t-33 -24.5t-10.5 -74.5v-469q0 -57 10.5 -75.5t49.5 -28t57 -15.5q10 -2 10 -19q0 -11 -8 -14q-6 0 -12 -0.5t-14 -1.5
q-27 0 -94 4t-76 4q-8 0 -75 -4t-93 -4q-8 1 -14 1.5t-11 0.5q-12 3 -12 16q0 14 12 17q19 6 57.5 15t49 26t10.5 67v412z" />
    <glyph glyph-name="egrave" unicode="&#x438;" horiz-adv-x="1139" 
d="M758 553l-389 -387v-14q0 -3 -0.5 -5.5t-1.5 -5.5q0 -49 11 -66.5t49.5 -26.5t57.5 -15q11 -3 11 -17q0 -13 -11 -16q-6 0 -12 -0.5t-14 -1.5q-26 0 -94 4t-74 4t-73 -4t-97 -4q-8 1 -14.5 1.5t-10.5 0.5q-12 4 -12 14q0 2 4 10t8 9q24 9 53.5 15.5t40.5 13.5t17 27.5
t6 62.5v469q0 56 -10 74.5t-33 24.5t-74 21q-12 4 -12 17q0 10 12 14q5 1 9 1.5t16 0.5q30 0 97 -4t73 -4t74 4t94 4q11 0 16 -0.5t10 -1.5q11 -3 11 -14q0 -14 -11 -17q-50 -14 -73 -20t-34 -24t-11 -68q2 0 2 -8v-404l389 387v25q0 49 -11 67.5t-56.5 30.5t-49.5 14
q-12 3 -12 17q0 11 12 14q5 1 9.5 1.5t15.5 0.5q26 0 93 -4t75 -4q9 0 76 4t94 4q11 0 16 -0.5t10 -1.5q8 -3 8 -14q0 -14 -10 -17q-51 -15 -73.5 -21t-33 -24.5t-10.5 -74.5v-469q0 -57 10.5 -75.5t49.5 -28t57 -15.5q10 -2 10 -19q0 -11 -8 -14q-6 0 -12 -0.5t-14 -1.5
q-27 0 -94 4t-76 4q-8 0 -75 -4t-93 -4q-8 1 -14 1.5t-11 0.5q-12 3 -12 16q0 14 12 17q19 6 57.5 15t49 26t10.5 67v412z" />
    <glyph glyph-name="eacute" unicode="&#xe9;" horiz-adv-x="1139" 
d="M758 553l-389 -387v-14q0 -3 -0.5 -5.5t-1.5 -5.5q0 -49 11 -66.5t49.5 -26.5t57.5 -15q11 -3 11 -17q0 -13 -11 -16q-6 0 -12 -0.5t-14 -1.5q-26 0 -94 4t-74 4t-73 -4t-97 -4q-8 1 -14.5 1.5t-10.5 0.5q-12 4 -12 14q0 2 4 10t8 9q24 9 53.5 15.5t40.5 13.5t17 27.5
t6 62.5v469q0 56 -10 74.5t-33 24.5t-74 21q-12 4 -12 17q0 10 12 14q5 1 9 1.5t16 0.5q30 0 97 -4t73 -4t74 4t94 4q11 0 16 -0.5t10 -1.5q11 -3 11 -14q0 -14 -11 -17q-50 -14 -73 -20t-34 -24t-11 -68q2 0 2 -8v-404l389 387v25q0 49 -11 67.5t-56.5 30.5t-49.5 14
q-12 3 -12 17q0 11 12 14q5 1 9.5 1.5t15.5 0.5q26 0 93 -4t75 -4q9 0 76 4t94 4q11 0 16 -0.5t10 -1.5q8 -3 8 -14q0 -14 -10 -17q-51 -15 -73.5 -21t-33 -24.5t-10.5 -74.5v-469q0 -57 10.5 -75.5t49.5 -28t57 -15.5q10 -2 10 -19q0 -11 -8 -14q-6 0 -12 -0.5t-14 -1.5
q-27 0 -94 4t-76 4q-8 0 -75 -4t-93 -4q-8 1 -14 1.5t-11 0.5q-12 3 -12 16q0 14 12 17q19 6 57.5 15t49 26t10.5 67v412zM557 954q54 0 80 40t33 85q4 20 14 29.5t35 9.5q29 0 29 -53t-56.5 -103.5t-136.5 -50.5t-133 50t-53 104q0 53 30 53q23 0 32.5 -8.5t14.5 -30.5
q10 -46 36.5 -85.5t74.5 -39.5z" />
    <glyph glyph-name="eacute" unicode="&#x439;" horiz-adv-x="1139" 
d="M758 553l-389 -387v-14q0 -3 -0.5 -5.5t-1.5 -5.5q0 -49 11 -66.5t49.5 -26.5t57.5 -15q11 -3 11 -17q0 -13 -11 -16q-6 0 -12 -0.5t-14 -1.5q-26 0 -94 4t-74 4t-73 -4t-97 -4q-8 1 -14.5 1.5t-10.5 0.5q-12 4 -12 14q0 2 4 10t8 9q24 9 53.5 15.5t40.5 13.5t17 27.5
t6 62.5v469q0 56 -10 74.5t-33 24.5t-74 21q-12 4 -12 17q0 10 12 14q5 1 9 1.5t16 0.5q30 0 97 -4t73 -4t74 4t94 4q11 0 16 -0.5t10 -1.5q11 -3 11 -14q0 -14 -11 -17q-50 -14 -73 -20t-34 -24t-11 -68q2 0 2 -8v-404l389 387v25q0 49 -11 67.5t-56.5 30.5t-49.5 14
q-12 3 -12 17q0 11 12 14q5 1 9.5 1.5t15.5 0.5q26 0 93 -4t75 -4q9 0 76 4t94 4q11 0 16 -0.5t10 -1.5q8 -3 8 -14q0 -14 -10 -17q-51 -15 -73.5 -21t-33 -24.5t-10.5 -74.5v-469q0 -57 10.5 -75.5t49.5 -28t57 -15.5q10 -2 10 -19q0 -11 -8 -14q-6 0 -12 -0.5t-14 -1.5
q-27 0 -94 4t-76 4q-8 0 -75 -4t-93 -4q-8 1 -14 1.5t-11 0.5q-12 3 -12 16q0 14 12 17q19 6 57.5 15t49 26t10.5 67v412zM557 954q54 0 80 40t33 85q4 20 14 29.5t35 9.5q29 0 29 -53t-56.5 -103.5t-136.5 -50.5t-133 50t-53 104q0 53 30 53q23 0 32.5 -8.5t14.5 -30.5
q10 -46 36.5 -85.5t74.5 -39.5z" />
    <glyph glyph-name="ecircumflex" unicode="&#xea;" horiz-adv-x="1063" 
d="M217 645q0 33 -3.5 47t-15 22.5t-44.5 16.5q-8 2 -24.5 5.5t-29 9.5t-12.5 14q0 6 6 12q3 8 35 8q14 0 22 -0.5t18.5 -1.5t18.5 -2.5t11 -1.5q8 0 12.5 -0.5t9.5 -1.5q10 1 21.5 2t20 2t16 1.5t22.5 0.5q24 1 46 1.5t63 0.5q34 0 39 -2q4 -4 4 -12q0 -4 -2.5 -11
t-4.5 -10q-47 -8 -62 -28t-15 -66v-258q7 7 76.5 77t124.5 138t55 99q0 12 -2 14q-7 9 -29.5 12.5t-40 6t-21.5 14.5q0 2 -2 5l-2 3q0 14 25 14l4 2q19 0 57 -4t56 -4q5 1 9.5 1.5t10.5 0.5q-3 0 33 4t59 4q54 0 54 -16v-6q0 -10 -11 -14.5t-24.5 -7t-26.5 -5.5
q-39 -13 -66.5 -40t-76.5 -83l-133 -147l329 -338q44 -44 61.5 -58.5t49.5 -21.5q9 -2 17 -10t8 -15q0 -10 -11 -12q-16 -2 -29.5 -4t-23.5 -2q-9 0 -28 1.5t-37 3t-27 1.5q-6 0 -22 -2t-23 -2q-26 0 -43 14l-273 295q-20 22 -34.5 33.5t-34.5 11.5h-4v-204q0 -3 -0.5 -5.5
t-1.5 -5.5q0 -49 11 -66.5t52 -27t55 -14.5q11 -3 11 -17q0 -13 -11 -16q-6 0 -12 -0.5t-14 -1.5q-27 0 -94 4t-74 4q-6 0 -75 -4t-97 -4q-7 1 -13 1.5t-12 0.5q-10 5 -10 14q0 2 4 10t8 9q24 9 53.5 15.5t41 14t17 27.5t5.5 62v493z" />
    <glyph glyph-name="ecircumflex" unicode="&#x43a;" horiz-adv-x="1063" 
d="M217 645q0 33 -3.5 47t-15 22.5t-44.5 16.5q-8 2 -24.5 5.5t-29 9.5t-12.5 14q0 6 6 12q3 8 35 8q14 0 22 -0.5t18.5 -1.5t18.5 -2.5t11 -1.5q8 0 12.5 -0.5t9.5 -1.5q10 1 21.5 2t20 2t16 1.5t22.5 0.5q24 1 46 1.5t63 0.5q34 0 39 -2q4 -4 4 -12q0 -4 -2.5 -11
t-4.5 -10q-47 -8 -62 -28t-15 -66v-258q7 7 76.5 77t124.5 138t55 99q0 12 -2 14q-7 9 -29.5 12.5t-40 6t-21.5 14.5q0 2 -2 5l-2 3q0 14 25 14l4 2q19 0 57 -4t56 -4q5 1 9.5 1.5t10.5 0.5q-3 0 33 4t59 4q54 0 54 -16v-6q0 -10 -11 -14.5t-24.5 -7t-26.5 -5.5
q-39 -13 -66.5 -40t-76.5 -83l-133 -147l329 -338q44 -44 61.5 -58.5t49.5 -21.5q9 -2 17 -10t8 -15q0 -10 -11 -12q-16 -2 -29.5 -4t-23.5 -2q-9 0 -28 1.5t-37 3t-27 1.5q-6 0 -22 -2t-23 -2q-26 0 -43 14l-273 295q-20 22 -34.5 33.5t-34.5 11.5h-4v-204q0 -3 -0.5 -5.5
t-1.5 -5.5q0 -49 11 -66.5t52 -27t55 -14.5q11 -3 11 -17q0 -13 -11 -16q-6 0 -12 -0.5t-14 -1.5q-27 0 -94 4t-74 4q-6 0 -75 -4t-97 -4q-7 1 -13 1.5t-12 0.5q-10 5 -10 14q0 2 4 10t8 9q24 9 53.5 15.5t41 14t17 27.5t5.5 62v493z" />
    <glyph glyph-name="edieresis" unicode="&#xeb;" horiz-adv-x="1081" 
d="M301 147q37 48 62 108.5t39.5 145t19.5 217.5v11q0 47 -13.5 65t-62 30.5t-53.5 14.5q-10 3 -10 15q0 3 4 10t8 8q4 2 39 2q26 0 78 -2t57 -2h274q3 0 74 2t109 2q47 0 53 -2q8 -3 8 -14q0 -14 -10 -17q-51 -15 -73.5 -21t-33 -24.5t-10.5 -74.5v-469q0 -57 10.5 -75.5
t49.5 -28t57 -15.5q10 -2 10 -19q0 -11 -8 -14q-6 0 -12.5 -0.5t-14.5 -1.5q-26 0 -94 4t-76 4q-7 0 -74 -4t-94 -4q-7 1 -13 1.5t-11 0.5q-10 2 -10 16t10 17q19 6 57.5 15t49 26t10.5 67v480q0 57 -4.5 79t-13.5 27.5t-30 5.5h-124q-39 0 -55 -21.5t-19 -90.5
q-11 -192 -45 -321t-78 -208q-28 -47 -72.5 -78.5t-93.5 -31.5q-42 0 -63 21.5t-21 55.5q0 18 11.5 35t28 27t32.5 10q21 0 46 -8t34 -8q34 0 61 32z" />
    <glyph glyph-name="edieresis" unicode="&#x43b;" horiz-adv-x="1081" 
d="M301 147q37 48 62 108.5t39.5 145t19.5 217.5v11q0 47 -13.5 65t-62 30.5t-53.5 14.5q-10 3 -10 15q0 3 4 10t8 8q4 2 39 2q26 0 78 -2t57 -2h274q3 0 74 2t109 2q47 0 53 -2q8 -3 8 -14q0 -14 -10 -17q-51 -15 -73.5 -21t-33 -24.5t-10.5 -74.5v-469q0 -57 10.5 -75.5
t49.5 -28t57 -15.5q10 -2 10 -19q0 -11 -8 -14q-6 0 -12.5 -0.5t-14.5 -1.5q-26 0 -94 4t-76 4q-7 0 -74 -4t-94 -4q-7 1 -13 1.5t-11 0.5q-10 2 -10 16t10 17q19 6 57.5 15t49 26t10.5 67v480q0 57 -4.5 79t-13.5 27.5t-30 5.5h-124q-39 0 -55 -21.5t-19 -90.5
q-11 -192 -45 -321t-78 -208q-28 -47 -72.5 -78.5t-93.5 -31.5q-42 0 -63 21.5t-21 55.5q0 18 11.5 35t28 27t32.5 10q21 0 46 -8t34 -8q34 0 61 32z" />
    <glyph glyph-name="igrave" unicode="&#xec;" horiz-adv-x="1290" 
d="M324 778h6q40 0 51 -33l262 -550l270 563q9 16 27 18h23q38 0 61.5 -0.5t50.5 -1.5q12 1 24.5 1.5t41.5 0.5q51 0 51 -12v-2q0 -16 -45.5 -20.5t-59.5 -16.5q-28 -31 -28 -94v-500q0 -56 10.5 -72.5t45.5 -20.5t48 -9q6 -3 6 -15q0 -14 -24 -14h-6q-27 2 -166 2
q-40 0 -78 -0.5t-82 -1.5h-25q-12 0 -12 8q0 6 6.5 14.5t12.5 8.5q71 8 90.5 24t19.5 76v522l-301 -630q-7 -19 -24 -19q-14 0 -17 12l-309 654v-523q0 -68 39 -100q26 -18 47 -18h6q19 0 29 -4q8 -4 8 -19q0 -2 -4 -6q-4 -2 -35 -2q-19 0 -51 2t-35 2q-17 0 -56 -2t-59 -2
q-30 0 -41 2q-10 0 -10 10q0 19 14 23t44.5 5t42.5 17q8 12 11.5 22t5.5 24.5t2.5 24.5t0.5 21v551q0 31 -104 43q-31 3 -31 21q0 13 16 16q4 0 11 -0.5t16 -1.5h160q12 1 21.5 1.5t21.5 0.5z" />
    <glyph glyph-name="igrave" unicode="&#x43c;" horiz-adv-x="1290" 
d="M324 778h6q40 0 51 -33l262 -550l270 563q9 16 27 18h23q38 0 61.5 -0.5t50.5 -1.5q12 1 24.5 1.5t41.5 0.5q51 0 51 -12v-2q0 -16 -45.5 -20.5t-59.5 -16.5q-28 -31 -28 -94v-500q0 -56 10.5 -72.5t45.5 -20.5t48 -9q6 -3 6 -15q0 -14 -24 -14h-6q-27 2 -166 2
q-40 0 -78 -0.5t-82 -1.5h-25q-12 0 -12 8q0 6 6.5 14.5t12.5 8.5q71 8 90.5 24t19.5 76v522l-301 -630q-7 -19 -24 -19q-14 0 -17 12l-309 654v-523q0 -68 39 -100q26 -18 47 -18h6q19 0 29 -4q8 -4 8 -19q0 -2 -4 -6q-4 -2 -35 -2q-19 0 -51 2t-35 2q-17 0 -56 -2t-59 -2
q-30 0 -41 2q-10 0 -10 10q0 19 14 23t44.5 5t42.5 17q8 12 11.5 22t5.5 24.5t2.5 24.5t0.5 21v551q0 31 -104 43q-31 3 -31 21q0 13 16 16q4 0 11 -0.5t16 -1.5h160q12 1 21.5 1.5t21.5 0.5z" />
    <glyph glyph-name="iacute" unicode="&#xed;" horiz-adv-x="1139" 
d="M758 371h-389v-219q0 -3 -0.5 -5.5t-1.5 -5.5q0 -49 11 -66.5t49.5 -26.5t57.5 -15q11 -3 11 -17q0 -13 -11 -16q-6 0 -12 -0.5t-14 -1.5q-26 0 -94 4t-74 4t-73 -4t-97 -4q-8 1 -14.5 1.5t-10.5 0.5q-12 4 -12 14q0 2 4 10t8 9q24 9 53.5 15.5t40.5 13.5t17 27.5t6 62.5
v469q0 56 -10 74.5t-33 24.5t-74 21q-12 4 -12 17q0 10 12 14q5 1 9 1.5t16 0.5q30 0 97 -4t73 -4t74 4t94 4q11 0 16 -0.5t10 -1.5q11 -3 11 -14q0 -14 -11 -17q-50 -14 -73 -20t-34 -24t-11 -68q2 0 2 -8v-201h389v209q0 49 -11 67.5t-56.5 30.5t-49.5 14q-12 3 -12 17
q0 11 12 14q5 1 9.5 1.5t15.5 0.5q26 0 93 -4t75 -4q9 0 76 4t94 4q11 0 16 -0.5t10 -1.5q8 -3 8 -14q0 -14 -10 -17q-51 -15 -73.5 -21t-33 -24.5t-10.5 -74.5v-469q0 -57 10.5 -75.5t49.5 -28t57 -15.5q10 -2 10 -19q0 -11 -8 -14q-6 0 -12 -0.5t-14 -1.5q-27 0 -94 4
t-76 4q-8 0 -75 -4t-93 -4q-8 1 -14 1.5t-11 0.5q-12 3 -12 16q0 14 12 17q19 6 57.5 15t49 26t10.5 67v230z" />
    <glyph glyph-name="iacute" unicode="&#x43d;" horiz-adv-x="1139" 
d="M758 371h-389v-219q0 -3 -0.5 -5.5t-1.5 -5.5q0 -49 11 -66.5t49.5 -26.5t57.5 -15q11 -3 11 -17q0 -13 -11 -16q-6 0 -12 -0.5t-14 -1.5q-26 0 -94 4t-74 4t-73 -4t-97 -4q-8 1 -14.5 1.5t-10.5 0.5q-12 4 -12 14q0 2 4 10t8 9q24 9 53.5 15.5t40.5 13.5t17 27.5t6 62.5
v469q0 56 -10 74.5t-33 24.5t-74 21q-12 4 -12 17q0 10 12 14q5 1 9 1.5t16 0.5q30 0 97 -4t73 -4t74 4t94 4q11 0 16 -0.5t10 -1.5q11 -3 11 -14q0 -14 -11 -17q-50 -14 -73 -20t-34 -24t-11 -68q2 0 2 -8v-201h389v209q0 49 -11 67.5t-56.5 30.5t-49.5 14q-12 3 -12 17
q0 11 12 14q5 1 9.5 1.5t15.5 0.5q26 0 93 -4t75 -4q9 0 76 4t94 4q11 0 16 -0.5t10 -1.5q8 -3 8 -14q0 -14 -10 -17q-51 -15 -73.5 -21t-33 -24.5t-10.5 -74.5v-469q0 -57 10.5 -75.5t49.5 -28t57 -15.5q10 -2 10 -19q0 -11 -8 -14q-6 0 -12 -0.5t-14 -1.5q-27 0 -94 4
t-76 4q-8 0 -75 -4t-93 -4q-8 1 -14 1.5t-11 0.5q-12 3 -12 16q0 14 12 17q19 6 57.5 15t49 26t10.5 67v230z" />
    <glyph glyph-name="icircumflex" unicode="&#xee;" horiz-adv-x="1024" 
d="M82 387q1 116 60.5 210t158 147t213.5 53q79 0 155.5 -33t132 -87t89 -128.5t33.5 -155.5q0 -85 -33 -161t-92 -134t-136.5 -89.5t-160.5 -31.5h-2q-86 2 -162.5 32.5t-134 85t-89.5 128.5t-32 160v4zM449 758q-69 -20 -114 -78t-64 -135t-19 -162q0 -43 14 -139
q16 -69 47.5 -121.5t78 -82.5t106.5 -30q34 0 82 15q96 31 134 128t38 222v53q-8 174 -72 250q-31 39 -80.5 61.5t-99.5 22.5q-19 0 -51 -4z" />
    <glyph glyph-name="icircumflex" unicode="&#x43e;" horiz-adv-x="1024" 
d="M82 387q1 116 60.5 210t158 147t213.5 53q79 0 155.5 -33t132 -87t89 -128.5t33.5 -155.5q0 -85 -33 -161t-92 -134t-136.5 -89.5t-160.5 -31.5h-2q-86 2 -162.5 32.5t-134 85t-89.5 128.5t-32 160v4zM449 758q-69 -20 -114 -78t-64 -135t-19 -162q0 -43 14 -139
q16 -69 47.5 -121.5t78 -82.5t106.5 -30q34 0 82 15q96 31 134 128t38 222v53q-8 174 -72 250q-31 39 -80.5 61.5t-99.5 22.5q-19 0 -51 -4z" />
    <glyph glyph-name="idieresis" unicode="&#xef;" horiz-adv-x="1139" 
d="M758 621q0 77 -15 94.5t-67 17.5h-236q-34 0 -47 -5.5t-18.5 -27.5t-5.5 -79v-469q0 -3 -0.5 -5.5t-1.5 -5.5q0 -49 11 -66.5t49.5 -26.5t57.5 -15q11 -3 11 -17q0 -13 -11 -16q-6 0 -12 -0.5t-14 -1.5q-26 0 -94 4t-74 4t-73 -4t-97 -4q-8 1 -14.5 1.5t-10.5 0.5
q-12 4 -12 14q0 2 4 10t8 9q24 9 53.5 15.5t40.5 13.5t17 27.5t6 62.5v469q0 56 -10 74.5t-33 24.5t-74 21q-12 4 -12 17q0 10 12 14q5 1 9 1.5t16 0.5q30 0 97 -4t73 -4q10 0 122 2t148 2q8 0 133 -2t140 -2q9 0 76 4t94 4q11 0 16 -0.5t10 -1.5q8 -3 8 -14q0 -14 -10 -17
q-51 -15 -73.5 -21t-33 -24.5t-10.5 -74.5v-469q0 -57 10.5 -75.5t49.5 -28t57 -15.5q10 -2 10 -19q0 -11 -8 -14q-6 0 -12 -0.5t-14 -1.5q-27 0 -94 4t-76 4q-8 0 -75 -4t-93 -4q-8 1 -14 1.5t-11 0.5q-12 3 -12 16q0 14 12 17q19 6 57.5 15t49 26t10.5 67v480z" />
    <glyph glyph-name="idieresis" unicode="&#x43f;" horiz-adv-x="1139" 
d="M758 621q0 77 -15 94.5t-67 17.5h-236q-34 0 -47 -5.5t-18.5 -27.5t-5.5 -79v-469q0 -3 -0.5 -5.5t-1.5 -5.5q0 -49 11 -66.5t49.5 -26.5t57.5 -15q11 -3 11 -17q0 -13 -11 -16q-6 0 -12 -0.5t-14 -1.5q-26 0 -94 4t-74 4t-73 -4t-97 -4q-8 1 -14.5 1.5t-10.5 0.5
q-12 4 -12 14q0 2 4 10t8 9q24 9 53.5 15.5t40.5 13.5t17 27.5t6 62.5v469q0 56 -10 74.5t-33 24.5t-74 21q-12 4 -12 17q0 10 12 14q5 1 9 1.5t16 0.5q30 0 97 -4t73 -4q10 0 122 2t148 2q8 0 133 -2t140 -2q9 0 76 4t94 4q11 0 16 -0.5t10 -1.5q8 -3 8 -14q0 -14 -10 -17
q-51 -15 -73.5 -21t-33 -24.5t-10.5 -74.5v-469q0 -57 10.5 -75.5t49.5 -28t57 -15.5q10 -2 10 -19q0 -11 -8 -14q-6 0 -12 -0.5t-14 -1.5q-27 0 -94 4t-76 4q-8 0 -75 -4t-93 -4q-8 1 -14 1.5t-11 0.5q-12 3 -12 16q0 14 12 17q19 6 57.5 15t49 26t10.5 67v480z" />
    <glyph glyph-name="eth" unicode="&#xf0;" horiz-adv-x="1100" 
d="M350 373q0 -22 -0.5 -37t-1.5 -33q0 -139 53 -194q32 -32 76 -52t90 -20q42 0 80.5 15t72 45t52.5 63q49 80 49 227q0 93 -22 173.5t-76.5 134t-147.5 53.5q-104 0 -174 -76q-53 -66 -53 -215q1 -21 1.5 -39t0.5 -45zM358 90v-426q0 -46 9.5 -68.5t25 -28.5t42 -10
t42.5 -14q8 -3 8 -12q0 -6 -6 -13t-14 -7h-21q-27 0 -82 6t-81 6q-20 0 -79 -6t-85 -6q-8 1 -14.5 1.5t-16.5 0.5q-5 0 -10.5 6.5t-5.5 11.5q0 7 10 12q17 9 53 15.5t51 25.5t15 80v940q0 119 -78 121q-19 2 -34 8.5t-15 11.5q0 13 28 19q63 12 125.5 33.5t73.5 21.5
q23 0 31 -30t16 -125q103 135 270 135q96 0 183.5 -50.5t141.5 -143t54 -212.5q0 -122 -56.5 -215.5t-147 -144.5t-189.5 -51q-67 0 -131 27.5t-113 80.5z" />
    <glyph glyph-name="eth" unicode="&#x440;" horiz-adv-x="1100" 
d="M350 373q0 -22 -0.5 -37t-1.5 -33q0 -139 53 -194q32 -32 76 -52t90 -20q42 0 80.5 15t72 45t52.5 63q49 80 49 227q0 93 -22 173.5t-76.5 134t-147.5 53.5q-104 0 -174 -76q-53 -66 -53 -215q1 -21 1.5 -39t0.5 -45zM358 90v-426q0 -46 9.5 -68.5t25 -28.5t42 -10
t42.5 -14q8 -3 8 -12q0 -6 -6 -13t-14 -7h-21q-27 0 -82 6t-81 6q-20 0 -79 -6t-85 -6q-8 1 -14.5 1.5t-16.5 0.5q-5 0 -10.5 6.5t-5.5 11.5q0 7 10 12q17 9 53 15.5t51 25.5t15 80v940q0 119 -78 121q-19 2 -34 8.5t-15 11.5q0 13 28 19q63 12 125.5 33.5t73.5 21.5
q23 0 31 -30t16 -125q103 135 270 135q96 0 183.5 -50.5t141.5 -143t54 -212.5q0 -122 -56.5 -215.5t-147 -144.5t-189.5 -51q-67 0 -131 27.5t-113 80.5z" />
    <glyph glyph-name="ntilde" unicode="&#xf1;" horiz-adv-x="852" 
d="M70 377q3 89 40 170.5t102.5 141t147.5 85.5q67 23 154 23q138 0 201 -58q28 -24 28 -61q0 -20 -12 -35t-33 -18q-5 0 -8.5 -0.5t-7.5 -1.5q-24 0 -38 15.5t-28 47t-24 43.5q-20 29 -88 29h-15q-74 -3 -129 -51t-84 -125q-32 -100 -32 -199q0 -133 57 -234t174 -116
q28 -4 45 -4q62 0 97.5 20t64.5 50t39 30q22 0 22 -23q0 -10 -4 -22q-37 -76 -182 -102q-73 -5 -84 -5q-112 0 -204 45.5t-145.5 133t-53.5 206.5v15z" />
    <glyph glyph-name="ntilde" unicode="&#x441;" horiz-adv-x="852" 
d="M70 377q3 89 40 170.5t102.5 141t147.5 85.5q67 23 154 23q138 0 201 -58q28 -24 28 -61q0 -20 -12 -35t-33 -18q-5 0 -8.5 -0.5t-7.5 -1.5q-24 0 -38 15.5t-28 47t-24 43.5q-20 29 -88 29h-15q-74 -3 -129 -51t-84 -125q-32 -100 -32 -199q0 -133 57 -234t174 -116
q28 -4 45 -4q62 0 97.5 20t64.5 50t39 30q22 0 22 -23q0 -10 -4 -22q-37 -76 -182 -102q-73 -5 -84 -5q-112 0 -204 45.5t-145.5 133t-53.5 206.5v15z" />
    <glyph glyph-name="ograve" unicode="&#xf2;" horiz-adv-x="987" 
d="M182 776h639q41 0 45 -26q4 -28 5.5 -54.5t5.5 -66.5v-15q0 -22 -13 -22h-6q-10 0 -15.5 9t-9 25.5t-6.5 24.5q-33 86 -180 86q-35 0 -51 -23t-16 -93v-469q0 -41 5.5 -62t16 -27.5t40 -13.5t52.5 -16q5 -1 9 -7.5t4 -11.5q0 -10 -11 -14q-4 0 -10.5 -0.5t-15.5 -1.5
q-27 0 -94 4t-74 4q-9 0 -76 -4t-94 -4q-8 1 -14.5 1.5t-12.5 0.5q-10 3 -10 14q0 16 12 19q24 9 53.5 15.5t41 14t17 27.5t5.5 62v469q0 71 -17 93.5t-53 22.5q-144 0 -180 -86q-7 -31 -11.5 -45t-21.5 -14h-4q-14 0 -14 22q1 4 1.5 7.5t0.5 7.5q2 21 4 51t6 70q4 26 47 26
z" />
    <glyph glyph-name="ograve" unicode="&#x442;" horiz-adv-x="987" 
d="M182 776h639q41 0 45 -26q4 -28 5.5 -54.5t5.5 -66.5v-15q0 -22 -13 -22h-6q-10 0 -15.5 9t-9 25.5t-6.5 24.5q-33 86 -180 86q-35 0 -51 -23t-16 -93v-469q0 -41 5.5 -62t16 -27.5t40 -13.5t52.5 -16q5 -1 9 -7.5t4 -11.5q0 -10 -11 -14q-4 0 -10.5 -0.5t-15.5 -1.5
q-27 0 -94 4t-74 4q-9 0 -76 -4t-94 -4q-8 1 -14.5 1.5t-12.5 0.5q-10 3 -10 14q0 16 12 19q24 9 53.5 15.5t41 14t17 27.5t5.5 62v469q0 71 -17 93.5t-53 22.5q-144 0 -180 -86q-7 -31 -11.5 -45t-21.5 -14h-4q-14 0 -14 22q1 4 1.5 7.5t0.5 7.5q2 21 4 51t6 70q4 26 47 26
z" />
    <glyph glyph-name="oacute" unicode="&#xf3;" horiz-adv-x="967" 
d="M520 178l166 406q25 67 25 92q0 24 -15 40.5t-47 20.5q-45 6 -45 21q0 7 9.5 12.5t27.5 5.5h10q34 -2 59 -4t40 -2q27 0 71 4h15q32 0 32 -16q0 -11 -11 -16t-30 -11q-30 -11 -44 -38t-35 -79l-228 -548q-77 -193 -156.5 -366.5t-130.5 -188.5q-17 -5 -24 -5
q-22 0 -35.5 17.5t-13.5 38.5q0 19 8 32q10 22 29 31.5t40.5 20t44 33t46.5 69.5q66 125 98 221q8 26 8 37q0 33 -18 74l-232 541q-23 57 -45 83t-42 28.5t-31 4.5t-17 15q0 2 -0.5 3t-1.5 1q0 10 13.5 16t23.5 6h12q18 0 57 -4t58 -4h37q32 0 98 4h37q59 0 59 -16
q0 -4 -8 -10.5t-12 -6.5q-48 -9 -70 -20t-22 -39q0 -9 12 -49z" />
    <glyph glyph-name="oacute" unicode="&#x443;" horiz-adv-x="967" 
d="M520 178l166 406q25 67 25 92q0 24 -15 40.5t-47 20.5q-45 6 -45 21q0 7 9.5 12.5t27.5 5.5h10q34 -2 59 -4t40 -2q27 0 71 4h15q32 0 32 -16q0 -11 -11 -16t-30 -11q-30 -11 -44 -38t-35 -79l-228 -548q-77 -193 -156.5 -366.5t-130.5 -188.5q-17 -5 -24 -5
q-22 0 -35.5 17.5t-13.5 38.5q0 19 8 32q10 22 29 31.5t40.5 20t44 33t46.5 69.5q66 125 98 221q8 26 8 37q0 33 -18 74l-232 541q-23 57 -45 83t-42 28.5t-31 4.5t-17 15q0 2 -0.5 3t-1.5 1q0 10 13.5 16t23.5 6h12q18 0 57 -4t58 -4h37q32 0 98 4h37q59 0 59 -16
q0 -4 -8 -10.5t-12 -6.5q-48 -9 -70 -20t-22 -39q0 -9 12 -49z" />
    <glyph glyph-name="ocircumflex" unicode="&#xf4;" horiz-adv-x="1536" 
d="M668 373v80q0 155 -50 219q-28 37 -71 56.5t-88 19.5q-86 0 -138 -54t-72 -135t-20 -172q0 -148 45 -227q31 -57 81.5 -90t109.5 -33q45 0 86 20t70 52q28 33 37.5 83t9.5 117v64zM866 672q-51 -66 -51 -219q1 -20 1.5 -37.5t0.5 -42.5q0 -20 -0.5 -33.5t-1.5 -30.5
q0 -142 49 -200q65 -72 156 -72q59 0 110 33t80 90q45 77 45 227q0 65 -11 129t-36.5 116t-70 84t-111.5 32q-96 0 -160 -76zM551 -487q-16 0 -16 18q0 4 8 12q16 9 54.5 15.5t53.5 25.5t15 80v428q-45 -54 -107.5 -81t-126.5 -27q-67 0 -134.5 29t-121 82.5t-85.5 129.5
t-32 168q0 119 51 214.5t134 147.5t172 52q69 0 135.5 -34t114.5 -99v422q0 87 -62 96q-67 0 -67 22q1 3 1.5 5t0.5 4q4 11 69.5 19.5t130.5 17.5q42 10 56 10q26 0 26 -51v-543q47 66 111.5 98.5t134.5 32.5q89 0 173 -52t134.5 -147t50.5 -215q0 -92 -32 -168.5
t-85 -129.5t-121 -82t-136 -29q-140 0 -230 108v-428q0 -47 10 -69t25.5 -28t42.5 -10t43 -14q6 -2 6 -12q0 -6 -5 -13t-13 -7h-21q-25 0 -82 6t-84 6q-20 0 -79 -6t-84 -6q-8 1 -14 1.5t-15 0.5z" />
    <glyph glyph-name="ocircumflex" unicode="&#x444;" horiz-adv-x="1536" 
d="M668 373v80q0 155 -50 219q-28 37 -71 56.5t-88 19.5q-86 0 -138 -54t-72 -135t-20 -172q0 -148 45 -227q31 -57 81.5 -90t109.5 -33q45 0 86 20t70 52q28 33 37.5 83t9.5 117v64zM866 672q-51 -66 -51 -219q1 -20 1.5 -37.5t0.5 -42.5q0 -20 -0.5 -33.5t-1.5 -30.5
q0 -142 49 -200q65 -72 156 -72q59 0 110 33t80 90q45 77 45 227q0 65 -11 129t-36.5 116t-70 84t-111.5 32q-96 0 -160 -76zM551 -487q-16 0 -16 18q0 4 8 12q16 9 54.5 15.5t53.5 25.5t15 80v428q-45 -54 -107.5 -81t-126.5 -27q-67 0 -134.5 29t-121 82.5t-85.5 129.5
t-32 168q0 119 51 214.5t134 147.5t172 52q69 0 135.5 -34t114.5 -99v422q0 87 -62 96q-67 0 -67 22q1 3 1.5 5t0.5 4q4 11 69.5 19.5t130.5 17.5q42 10 56 10q26 0 26 -51v-543q47 66 111.5 98.5t134.5 32.5q89 0 173 -52t134.5 -147t50.5 -215q0 -92 -32 -168.5
t-85 -129.5t-121 -82t-136 -29q-140 0 -230 108v-428q0 -47 10 -69t25.5 -28t42.5 -10t43 -14q6 -2 6 -12q0 -6 -5 -13t-13 -7h-21q-25 0 -82 6t-84 6q-20 0 -79 -6t-84 -6q-8 1 -14 1.5t-15 0.5z" />
    <glyph glyph-name="otilde" unicode="&#xf5;" horiz-adv-x="1063" 
d="M422 360l-262 320q-36 51 -78 59q-7 0 -22 5.5t-15 13.5q0 6 4 10q13 10 33 10q4 0 15.5 -1.5t22 -3t13.5 -1.5q24 0 38.5 -0.5t31.5 -1.5q28 0 70 2t98 4q7 1 12.5 1.5t15.5 0.5q11 0 23 -4q3 -2 6.5 -6.5t3.5 -9.5q0 -10 -8 -10q-13 -3 -38 -8t-39.5 -12t-14.5 -21
q0 -10 16 -29l168 -213l115 143q45 55 45 86q0 35 -51 41q-50 6 -50 23q0 14 39 14q3 1 5.5 1.5t5.5 0.5q68 -4 106 -4q54 0 107 6h28q31 0 31 -14v-2q0 -17 -37 -17q-66 -13 -141 -100l-176 -215l243 -291q42 -44 69.5 -65.5t64.5 -30.5q41 -7 43 -25v-2q0 -14 -37 -14
q-53 1 -98.5 1.5t-118.5 0.5h-54q-11 0 -37 -2t-38 -2q-23 0 -29 2q-14 3 -14 14q0 7 6 13q14 9 60 14t46 22q0 22 -31 58l-165 203l-148 -187q-22 -25 -22 -47q0 -19 18.5 -31.5t48 -21.5t33.5 -12q6 -7 6 -13q0 -12 -61 -12q-24 1 -43 1.5t-29 0.5l2 2h-35q-25 0 -74 -2
t-73 -2h-6q-17 0 -17 10l2 4q3 12 17 18t31.5 9.5t33.5 7.5q33 14 60 41t63 72z" />
    <glyph glyph-name="otilde" unicode="&#x445;" horiz-adv-x="1063" 
d="M422 360l-262 320q-36 51 -78 59q-7 0 -22 5.5t-15 13.5q0 6 4 10q13 10 33 10q4 0 15.5 -1.5t22 -3t13.5 -1.5q24 0 38.5 -0.5t31.5 -1.5q28 0 70 2t98 4q7 1 12.5 1.5t15.5 0.5q11 0 23 -4q3 -2 6.5 -6.5t3.5 -9.5q0 -10 -8 -10q-13 -3 -38 -8t-39.5 -12t-14.5 -21
q0 -10 16 -29l168 -213l115 143q45 55 45 86q0 35 -51 41q-50 6 -50 23q0 14 39 14q3 1 5.5 1.5t5.5 0.5q68 -4 106 -4q54 0 107 6h28q31 0 31 -14v-2q0 -17 -37 -17q-66 -13 -141 -100l-176 -215l243 -291q42 -44 69.5 -65.5t64.5 -30.5q41 -7 43 -25v-2q0 -14 -37 -14
q-53 1 -98.5 1.5t-118.5 0.5h-54q-11 0 -37 -2t-38 -2q-23 0 -29 2q-14 3 -14 14q0 7 6 13q14 9 60 14t46 22q0 22 -31 58l-165 203l-148 -187q-22 -25 -22 -47q0 -19 18.5 -31.5t48 -21.5t33.5 -12q6 -7 6 -13q0 -12 -61 -12q-24 1 -43 1.5t-29 0.5l2 2h-35q-25 0 -74 -2
t-73 -2h-6q-17 0 -17 10l2 4q3 12 17 18t31.5 9.5t33.5 7.5q33 14 60 41t63 72z" />
    <glyph glyph-name="odieresis" unicode="&#xf6;" horiz-adv-x="1139" 
d="M1032 -31q0 -5 5 -49t5 -63q0 -8 -5 -18t-13 -11q-9 0 -15.5 17.5t-9.5 33.5q-43 121 -237 121h-201q-16 0 -61 1.5t-91.5 2.5t-69.5 1.5t-48 0.5q-6 0 -73 -4t-97 -4q-8 1 -14.5 1.5t-10.5 0.5q-12 4 -12 14q0 2 4 10t8 9q24 9 53.5 15.5t40.5 13.5t17 27.5t6 62.5v469
q0 56 -10 74.5t-33 24.5t-74 21q-12 4 -12 17q0 10 12 14q5 1 9 1.5t16 0.5q30 0 97 -4t73 -4t74 4t94 4q11 0 16 -0.5t10 -1.5q11 -3 11 -14q0 -14 -11 -17q-50 -14 -73 -20t-34 -24t-11 -68q2 0 2 -8v-469q0 -47 7.5 -72t21 -33t38.5 -8h242q35 0 51 8t22.5 31.5t6.5 73.5
v477q0 49 -11 67.5t-56.5 30.5t-49.5 14q-12 3 -12 17q0 11 12 14q5 1 9.5 1.5t15.5 0.5q26 0 93 -4t75 -4q9 0 76 4t94 4q11 0 16 -0.5t10 -1.5q8 -3 8 -14q0 -14 -10 -17q-51 -15 -73.5 -21t-33 -24.5t-10.5 -74.5v-488q0 -4 -0.5 -6.5t-1.5 -5.5q0 -36 23.5 -53t81.5 -31
q8 -2 13 -14t5 -19v-4q0 -2 -0.5 -4t-1.5 -4q1 -6 1.5 -11t0.5 -12z" />
    <glyph glyph-name="odieresis" unicode="&#x446;" horiz-adv-x="1139" 
d="M1032 -31q0 -5 5 -49t5 -63q0 -8 -5 -18t-13 -11q-9 0 -15.5 17.5t-9.5 33.5q-43 121 -237 121h-201q-16 0 -61 1.5t-91.5 2.5t-69.5 1.5t-48 0.5q-6 0 -73 -4t-97 -4q-8 1 -14.5 1.5t-10.5 0.5q-12 4 -12 14q0 2 4 10t8 9q24 9 53.5 15.5t40.5 13.5t17 27.5t6 62.5v469
q0 56 -10 74.5t-33 24.5t-74 21q-12 4 -12 17q0 10 12 14q5 1 9 1.5t16 0.5q30 0 97 -4t73 -4t74 4t94 4q11 0 16 -0.5t10 -1.5q11 -3 11 -14q0 -14 -11 -17q-50 -14 -73 -20t-34 -24t-11 -68q2 0 2 -8v-469q0 -47 7.5 -72t21 -33t38.5 -8h242q35 0 51 8t22.5 31.5t6.5 73.5
v477q0 49 -11 67.5t-56.5 30.5t-49.5 14q-12 3 -12 17q0 11 12 14q5 1 9.5 1.5t15.5 0.5q26 0 93 -4t75 -4q9 0 76 4t94 4q11 0 16 -0.5t10 -1.5q8 -3 8 -14q0 -14 -10 -17q-51 -15 -73.5 -21t-33 -24.5t-10.5 -74.5v-488q0 -4 -0.5 -6.5t-1.5 -5.5q0 -36 23.5 -53t81.5 -31
q8 -2 13 -14t5 -19v-4q0 -2 -0.5 -4t-1.5 -4q1 -6 1.5 -11t0.5 -12z" />
    <glyph glyph-name="divide" unicode="&#xf7;" horiz-adv-x="1100" 
d="M723 408q-148 -111 -299 -111q-48 0 -90 14q-54 19 -87.5 64.5t-33.5 99.5v146q0 56 -10 74.5t-33 24.5t-74 21q-12 4 -12 17q0 10 12 14q5 1 9 1.5t16 0.5q30 0 97 -4t73 -4t74 4t94 4q11 0 16 -0.5t10 -1.5q11 -3 11 -14q0 -14 -11 -17q-36 -11 -58.5 -17.5
t-33.5 -14.5t-17.5 -28t-6.5 -60v-146q0 -37 16 -63t45 -37q49 -17 84 -17q85 0 209 99v164q0 40 -6 60t-17.5 28t-34.5 14.5t-59 17.5q-10 3 -10 17q0 11 10 14q5 1 10 1.5t15 0.5q29 0 96 -4t74 -4q6 0 74 4t96 4q11 0 16 -0.5t10 -1.5q3 -1 6 -5.5t3 -8.5q0 -13 -11 -17
q-51 -15 -73.5 -21t-32.5 -24.5t-10 -74.5v-469q0 -57 10 -75.5t49 -28t57 -15.5q11 -4 11 -19q0 -9 -9 -14q-6 0 -12 -0.5t-14 -1.5q-28 0 -96 4t-74 4q-7 0 -74 -4t-96 -4q-7 1 -13 1.5t-12 0.5q-10 3 -10 16q0 14 10 17q24 9 51.5 15t40.5 13.5t19 28.5t6 62v256z" />
    <glyph glyph-name="divide" unicode="&#x447;" horiz-adv-x="1100" 
d="M723 408q-148 -111 -299 -111q-48 0 -90 14q-54 19 -87.5 64.5t-33.5 99.5v146q0 56 -10 74.5t-33 24.5t-74 21q-12 4 -12 17q0 10 12 14q5 1 9 1.5t16 0.5q30 0 97 -4t73 -4t74 4t94 4q11 0 16 -0.5t10 -1.5q11 -3 11 -14q0 -14 -11 -17q-36 -11 -58.5 -17.5
t-33.5 -14.5t-17.5 -28t-6.5 -60v-146q0 -37 16 -63t45 -37q49 -17 84 -17q85 0 209 99v164q0 40 -6 60t-17.5 28t-34.5 14.5t-59 17.5q-10 3 -10 17q0 11 10 14q5 1 10 1.5t15 0.5q29 0 96 -4t74 -4q6 0 74 4t96 4q11 0 16 -0.5t10 -1.5q3 -1 6 -5.5t3 -8.5q0 -13 -11 -17
q-51 -15 -73.5 -21t-32.5 -24.5t-10 -74.5v-469q0 -57 10 -75.5t49 -28t57 -15.5q11 -4 11 -19q0 -9 -9 -14q-6 0 -12 -0.5t-14 -1.5q-28 0 -96 4t-74 4q-7 0 -74 -4t-96 -4q-7 1 -13 1.5t-12 0.5q-10 3 -10 16q0 14 10 17q24 9 51.5 15t40.5 13.5t19 28.5t6 62v256z" />
    <glyph glyph-name="oslash" unicode="&#xf8;" horiz-adv-x="1632" 
d="M213 621q0 56 -10 74.5t-33 24.5t-74 21q-12 4 -12 17q0 10 12 14q5 1 9 1.5t16 0.5q30 0 97 -4t73 -4t74 4t94 4q11 0 16 -0.5t10 -1.5q11 -3 11 -14q0 -14 -11 -17q-50 -14 -73 -20t-34 -24t-11 -68q2 0 2 -8v-469q0 -67 12 -90t39 -23h268q25 0 34 21t9 92v469
q0 43 -6 63.5t-17 27.5t-40.5 13.5t-53.5 15.5q-12 3 -12 17q0 11 10 14q5 1 10 1.5t15 0.5q27 0 95 -4t75 -4t74 4t94 4q11 0 16 -0.5t10 -1.5q11 -3 11 -14q0 -14 -13 -17q-46 -14 -69 -20t-34 -24t-11 -68v-486q0 -106 53 -106l6 2h238q29 0 46 20.5t17 92.5v477
q0 49 -11 67.5t-34.5 24.5t-71.5 20q-10 3 -10 17q0 11 10 14q6 1 10.5 1.5t14.5 0.5q28 0 96 -4t74 -4t74 4t96 4q12 0 17 -0.5t10 -1.5q8 -4 8 -14q0 -14 -10 -17q-51 -15 -73.5 -21t-33 -24.5t-10.5 -74.5v-469q0 -57 10.5 -75.5t49.5 -28t57 -15.5q5 -2 7.5 -8.5
t2.5 -10.5q0 -10 -8 -14q-6 0 -12.5 -0.5t-14.5 -1.5q-28 0 -96 4t-74 4q-19 0 -33.5 -0.5t-46 -1.5t-72 -2.5t-73.5 -1.5q-8 0 -55 1.5t-100.5 2.5t-81 1.5t-54.5 0.5q-3 0 -83 -2t-102.5 -3t-66.5 -1q-8 0 -50 1.5t-90.5 2.5t-73 1.5t-50.5 0.5q-6 0 -73 -4t-97 -4
q-8 1 -14.5 1.5t-10.5 0.5q-12 4 -12 14q0 2 4 10t8 9q24 9 53.5 15.5t40.5 13.5t17 27.5t6 62.5v469z" />
    <glyph glyph-name="oslash" unicode="&#x448;" horiz-adv-x="1632" 
d="M213 621q0 56 -10 74.5t-33 24.5t-74 21q-12 4 -12 17q0 10 12 14q5 1 9 1.5t16 0.5q30 0 97 -4t73 -4t74 4t94 4q11 0 16 -0.5t10 -1.5q11 -3 11 -14q0 -14 -11 -17q-50 -14 -73 -20t-34 -24t-11 -68q2 0 2 -8v-469q0 -67 12 -90t39 -23h268q25 0 34 21t9 92v469
q0 43 -6 63.5t-17 27.5t-40.5 13.5t-53.5 15.5q-12 3 -12 17q0 11 10 14q5 1 10 1.5t15 0.5q27 0 95 -4t75 -4t74 4t94 4q11 0 16 -0.5t10 -1.5q11 -3 11 -14q0 -14 -13 -17q-46 -14 -69 -20t-34 -24t-11 -68v-486q0 -106 53 -106l6 2h238q29 0 46 20.5t17 92.5v477
q0 49 -11 67.5t-34.5 24.5t-71.5 20q-10 3 -10 17q0 11 10 14q6 1 10.5 1.5t14.5 0.5q28 0 96 -4t74 -4t74 4t96 4q12 0 17 -0.5t10 -1.5q8 -4 8 -14q0 -14 -10 -17q-51 -15 -73.5 -21t-33 -24.5t-10.5 -74.5v-469q0 -57 10.5 -75.5t49.5 -28t57 -15.5q5 -2 7.5 -8.5
t2.5 -10.5q0 -10 -8 -14q-6 0 -12.5 -0.5t-14.5 -1.5q-28 0 -96 4t-74 4q-19 0 -33.5 -0.5t-46 -1.5t-72 -2.5t-73.5 -1.5q-8 0 -55 1.5t-100.5 2.5t-81 1.5t-54.5 0.5q-3 0 -83 -2t-102.5 -3t-66.5 -1q-8 0 -50 1.5t-90.5 2.5t-73 1.5t-50.5 0.5q-6 0 -73 -4t-97 -4
q-8 1 -14.5 1.5t-10.5 0.5q-12 4 -12 14q0 2 4 10t8 9q24 9 53.5 15.5t40.5 13.5t17 27.5t6 62.5v469z" />
    <glyph glyph-name="ugrave" unicode="&#xf9;" horiz-adv-x="1632" 
d="M213 621q0 56 -10 74.5t-33 24.5t-74 21q-12 4 -12 17q0 10 12 14q5 1 9 1.5t16 0.5q30 0 97 -4t73 -4t74 4t94 4q11 0 16 -0.5t10 -1.5q11 -3 11 -14q0 -14 -11 -17q-50 -14 -73 -20t-34 -24t-11 -68q2 0 2 -8v-469q0 -67 12 -90t39 -23h268q25 0 34 21t9 92v469
q0 43 -6 63.5t-17 27.5t-40.5 13.5t-53.5 15.5q-12 3 -12 17q0 11 10 14q5 1 10 1.5t15 0.5q27 0 95 -4t75 -4q6 0 74 4t94 4q11 0 16 -0.5t10 -1.5q11 -3 11 -14q0 -14 -13 -17q-46 -14 -69 -20t-34 -24t-11 -68v-486q0 -106 53 -106l6 2h238q29 0 46 20.5t17 92.5v477
q0 49 -11 67.5t-34.5 24.5t-71.5 20q-10 3 -10 17q0 11 10 14q6 1 10.5 1.5t14.5 0.5q28 0 96 -4t74 -4t74 4t96 4q12 0 17 -0.5t10 -1.5q8 -4 8 -14q0 -14 -10 -17q-51 -15 -73.5 -21t-33 -24.5t-10.5 -74.5v-469q0 -56 8 -73t47 -27t51 -15q8 -1 12.5 -12t4.5 -21v-4
l-2 -4q0 -2 2 -10t2 -13q0 -16 4 -61t4 -57q0 -26 -16 -31h-2q-8 0 -18.5 21.5t-12.5 33.5q-46 125 -223 125q-6 0 -59 -2t-105 -2q-8 0 -55 1.5t-100.5 2.5t-81 1.5t-54.5 0.5q-3 0 -83 -2t-102.5 -3t-66.5 -1q-8 0 -50 1.5t-90.5 2.5t-73 1.5t-50.5 0.5q-6 0 -73 -4
t-97 -4q-8 1 -14.5 1.5t-10.5 0.5q-12 4 -12 14q0 2 4 10t8 9q24 9 53.5 15.5t40.5 13.5t17 27.5t6 62.5v469z" />
    <glyph glyph-name="ugrave" unicode="&#x449;" horiz-adv-x="1632" 
d="M213 621q0 56 -10 74.5t-33 24.5t-74 21q-12 4 -12 17q0 10 12 14q5 1 9 1.5t16 0.5q30 0 97 -4t73 -4t74 4t94 4q11 0 16 -0.5t10 -1.5q11 -3 11 -14q0 -14 -11 -17q-50 -14 -73 -20t-34 -24t-11 -68q2 0 2 -8v-469q0 -67 12 -90t39 -23h268q25 0 34 21t9 92v469
q0 43 -6 63.5t-17 27.5t-40.5 13.5t-53.5 15.5q-12 3 -12 17q0 11 10 14q5 1 10 1.5t15 0.5q27 0 95 -4t75 -4q6 0 74 4t94 4q11 0 16 -0.5t10 -1.5q11 -3 11 -14q0 -14 -13 -17q-46 -14 -69 -20t-34 -24t-11 -68v-486q0 -106 53 -106l6 2h238q29 0 46 20.5t17 92.5v477
q0 49 -11 67.5t-34.5 24.5t-71.5 20q-10 3 -10 17q0 11 10 14q6 1 10.5 1.5t14.5 0.5q28 0 96 -4t74 -4t74 4t96 4q12 0 17 -0.5t10 -1.5q8 -4 8 -14q0 -14 -10 -17q-51 -15 -73.5 -21t-33 -24.5t-10.5 -74.5v-469q0 -56 8 -73t47 -27t51 -15q8 -1 12.5 -12t4.5 -21v-4
l-2 -4q0 -2 2 -10t2 -13q0 -16 4 -61t4 -57q0 -26 -16 -31h-2q-8 0 -18.5 21.5t-12.5 33.5q-46 125 -223 125q-6 0 -59 -2t-105 -2q-8 0 -55 1.5t-100.5 2.5t-81 1.5t-54.5 0.5q-3 0 -83 -2t-102.5 -3t-66.5 -1q-8 0 -50 1.5t-90.5 2.5t-73 1.5t-50.5 0.5q-6 0 -73 -4
t-97 -4q-8 1 -14.5 1.5t-10.5 0.5q-12 4 -12 14q0 2 4 10t8 9q24 9 53.5 15.5t40.5 13.5t17 27.5t6 62.5v469z" />
    <glyph glyph-name="uacute" unicode="&#xfa;" horiz-adv-x="1194" 
d="M406 627q0 52 -4.5 75.5t-14 31t-33.5 9.5h-10q-50 0 -99.5 -20t-70.5 -72q-7 -31 -11.5 -45t-21.5 -14h-4q-14 0 -14 22q1 4 1.5 7.5t0.5 7.5q2 21 4 51t6 70q4 26 47 26q54 0 174 -3.5t129 -4.5q9 0 31 1.5t46.5 2.5t41 1.5t43.5 0.5q14 0 20 -0.5t11 -1.5
q10 -3 10 -14q0 -14 -10 -17q-12 -4 -53.5 -17t-51.5 -30.5t-10 -64.5v-164q0 -33 33 -33q9 1 16.5 1.5t20.5 0.5h51q237 0 342 -78q32 -23 48 -63.5t16 -83.5q0 -50 -19 -88q-38 -70 -134 -96.5t-228 -26.5q-45 0 -122 4t-104 4q-6 0 -74 -4t-96 -4q-8 1 -14 1.5t-12 0.5
q-11 5 -11 14q0 2 5 10t8 9q24 9 53.5 15.5t41 14t17 27.5t5.5 62v475zM645 401h-29q-55 0 -55 -39v-229l-2 -4q0 -54 36 -76t107 -22l5 -2q97 0 159 50t62 130q0 68 -42 110.5t-103.5 62t-127.5 19.5h-10z" />
    <glyph glyph-name="uacute" unicode="&#x44a;" horiz-adv-x="1194" 
d="M406 627q0 52 -4.5 75.5t-14 31t-33.5 9.5h-10q-50 0 -99.5 -20t-70.5 -72q-7 -31 -11.5 -45t-21.5 -14h-4q-14 0 -14 22q1 4 1.5 7.5t0.5 7.5q2 21 4 51t6 70q4 26 47 26q54 0 174 -3.5t129 -4.5q9 0 31 1.5t46.5 2.5t41 1.5t43.5 0.5q14 0 20 -0.5t11 -1.5
q10 -3 10 -14q0 -14 -10 -17q-12 -4 -53.5 -17t-51.5 -30.5t-10 -64.5v-164q0 -33 33 -33q9 1 16.5 1.5t20.5 0.5h51q237 0 342 -78q32 -23 48 -63.5t16 -83.5q0 -50 -19 -88q-38 -70 -134 -96.5t-228 -26.5q-45 0 -122 4t-104 4q-6 0 -74 -4t-96 -4q-8 1 -14 1.5t-12 0.5
q-11 5 -11 14q0 2 5 10t8 9q24 9 53.5 15.5t41 14t17 27.5t5.5 62v475zM645 401h-29q-55 0 -55 -39v-229l-2 -4q0 -54 36 -76t107 -22l5 -2q97 0 159 50t62 130q0 68 -42 110.5t-103.5 62t-127.5 19.5h-10z" />
    <glyph glyph-name="ucircumflex" unicode="&#xfb;" horiz-adv-x="1405" 
d="M510 31l4 -2q98 0 159.5 50.5t61.5 129.5q0 68 -41.5 110.5t-102.5 62t-126 19.5h-41q-55 0 -55 -39v-229l-2 -4q0 -54 36 -76t107 -22zM213 152v475q0 50 -9.5 72t-51.5 32q-8 2 -24.5 5.5t-29 9.5t-12.5 14q0 6 6 12q5 8 35 8q14 0 22 -0.5t18.5 -1.5t18.5 -2.5
t11 -1.5q28 -2 45.5 -3.5t21.5 -2t29 -0.5q8 0 29.5 1.5t47 2.5t42 1.5t43.5 0.5q14 0 19.5 -0.5t10.5 -1.5q11 -3 11 -14q0 -14 -11 -17q-23 -9 -50.5 -16.5t-39.5 -15.5t-18 -26t-6 -54v-164q0 -33 32 -33q9 1 17 1.5t20 0.5h62q234 0 332 -72q30 -22 46.5 -65t16.5 -88
q0 -52 -18 -88q-40 -70 -135.5 -96.5t-227.5 -26.5q-44 0 -121 4t-104 4q-6 0 -73 -4t-97 -4q-8 1 -14.5 1.5t-10.5 0.5q-12 4 -12 14q0 2 4 10t8 9q24 9 53.5 15.5t40.5 13.5t17 27.5t6 62.5zM895 741q-10 2 -10 17q0 11 10 14q5 1 9.5 1.5t15.5 0.5q26 0 93 -4t74 -4
q8 0 76 4t94 4q11 0 16.5 -0.5t10.5 -1.5q8 -3 8 -14q0 -14 -10 -17q-51 -15 -73.5 -21t-33 -24.5t-10.5 -74.5v-469q0 -57 10.5 -75.5t49.5 -28t57 -15.5q10 -2 10 -19q0 -11 -8 -14q-6 0 -12.5 -0.5t-14.5 -1.5q-26 0 -94 4t-76 4q-7 0 -74 -4t-93 -4q-8 1 -14 1.5
t-11 0.5q-10 2 -10 16t10 17q19 6 57.5 15t49 26t10.5 67v480q0 40 -5.5 59.5t-17.5 28t-35 15t-59 17.5z" />
    <glyph glyph-name="ucircumflex" unicode="&#x44b;" horiz-adv-x="1405" 
d="M510 31l4 -2q98 0 159.5 50.5t61.5 129.5q0 68 -41.5 110.5t-102.5 62t-126 19.5h-41q-55 0 -55 -39v-229l-2 -4q0 -54 36 -76t107 -22zM213 152v475q0 50 -9.5 72t-51.5 32q-8 2 -24.5 5.5t-29 9.5t-12.5 14q0 6 6 12q5 8 35 8q14 0 22 -0.5t18.5 -1.5t18.5 -2.5
t11 -1.5q28 -2 45.5 -3.5t21.5 -2t29 -0.5q8 0 29.5 1.5t47 2.5t42 1.5t43.5 0.5q14 0 19.5 -0.5t10.5 -1.5q11 -3 11 -14q0 -14 -11 -17q-23 -9 -50.5 -16.5t-39.5 -15.5t-18 -26t-6 -54v-164q0 -33 32 -33q9 1 17 1.5t20 0.5h62q234 0 332 -72q30 -22 46.5 -65t16.5 -88
q0 -52 -18 -88q-40 -70 -135.5 -96.5t-227.5 -26.5q-44 0 -121 4t-104 4q-6 0 -73 -4t-97 -4q-8 1 -14.5 1.5t-10.5 0.5q-12 4 -12 14q0 2 4 10t8 9q24 9 53.5 15.5t40.5 13.5t17 27.5t6 62.5zM895 741q-10 2 -10 17q0 11 10 14q5 1 9.5 1.5t15.5 0.5q26 0 93 -4t74 -4
q8 0 76 4t94 4q11 0 16.5 -0.5t10.5 -1.5q8 -3 8 -14q0 -14 -10 -17q-51 -15 -73.5 -21t-33 -24.5t-10.5 -74.5v-469q0 -57 10.5 -75.5t49.5 -28t57 -15.5q10 -2 10 -19q0 -11 -8 -14q-6 0 -12.5 -0.5t-14.5 -1.5q-26 0 -94 4t-76 4q-7 0 -74 -4t-93 -4q-8 1 -14 1.5
t-11 0.5q-10 2 -10 16t10 17q19 6 57.5 15t49 26t10.5 67v480q0 40 -5.5 59.5t-17.5 28t-35 15t-59 17.5z" />
    <glyph glyph-name="udieresis" unicode="&#xfc;" horiz-adv-x="1004" 
d="M510 31l4 -2q98 0 159.5 50.5t61.5 129.5q0 68 -41.5 110.5t-102.5 62t-126 19.5h-41q-55 0 -55 -39v-229l-2 -4q0 -54 36 -76t107 -22zM213 627q0 50 -9.5 72t-51.5 32q-8 2 -24.5 5.5t-29 9.5t-12.5 14q0 6 6 12q5 8 35 8q14 0 22 -0.5t18.5 -1.5t18.5 -2.5t11 -1.5
q28 -2 45.5 -3.5t21.5 -2t29 -0.5q8 0 29.5 1.5t47 2.5t42 1.5t43.5 0.5q14 0 19.5 -0.5t10.5 -1.5q11 -3 11 -14q0 -14 -11 -17q-23 -9 -50.5 -16.5t-39.5 -15.5t-18 -26t-6 -54v-164q0 -33 32 -33q9 1 17 1.5t20 0.5h60q216 0 334 -72q65 -39 65 -145q0 -59 -20 -96
q-40 -70 -135.5 -96.5t-227.5 -26.5q-44 0 -121 4t-104 4q-6 0 -73 -4t-97 -4q-8 1 -14.5 1.5t-10.5 0.5q-12 4 -12 14q0 2 4 10t8 9q24 9 53.5 15.5t40.5 13.5t17 27.5t6 62.5v475z" />
    <glyph glyph-name="udieresis" unicode="&#x44c;" horiz-adv-x="1004" 
d="M510 31l4 -2q98 0 159.5 50.5t61.5 129.5q0 68 -41.5 110.5t-102.5 62t-126 19.5h-41q-55 0 -55 -39v-229l-2 -4q0 -54 36 -76t107 -22zM213 627q0 50 -9.5 72t-51.5 32q-8 2 -24.5 5.5t-29 9.5t-12.5 14q0 6 6 12q5 8 35 8q14 0 22 -0.5t18.5 -1.5t18.5 -2.5t11 -1.5
q28 -2 45.5 -3.5t21.5 -2t29 -0.5q8 0 29.5 1.5t47 2.5t42 1.5t43.5 0.5q14 0 19.5 -0.5t10.5 -1.5q11 -3 11 -14q0 -14 -11 -17q-23 -9 -50.5 -16.5t-39.5 -15.5t-18 -26t-6 -54v-164q0 -33 32 -33q9 1 17 1.5t20 0.5h60q216 0 334 -72q65 -39 65 -145q0 -59 -20 -96
q-40 -70 -135.5 -96.5t-227.5 -26.5q-44 0 -121 4t-104 4q-6 0 -73 -4t-97 -4q-8 1 -14.5 1.5t-10.5 0.5q-12 4 -12 14q0 2 4 10t8 9q24 9 53.5 15.5t40.5 13.5t17 27.5t6 62.5v475z" />
    <glyph glyph-name="yacute" unicode="&#xfd;" horiz-adv-x="891" 
d="M604 420q-7 95 -31 162q-52 156 -170 176q-5 1 -10 1.5t-14 0.5q-56 0 -80 -31q-9 -12 -22.5 -43t-29 -47t-38.5 -16q-3 1 -6 1.5t-8 0.5q-20 3 -34 18.5t-14 34.5q0 37 31 61q33 30 87 44t110 14q77 0 135 -21q106 -45 186 -158t84 -241v-15q0 -119 -54 -206.5
t-146 -133t-205 -45.5q-9 0 -82 5q-145 26 -182 102q-5 15 -5 22q0 23 23 23q10 0 38.5 -30t63.5 -50t97 -20q17 0 47 4q89 10 144 75.5t75 165.5q10 48 10 97h-260v49h260z" />
    <glyph glyph-name="yacute" unicode="&#x44d;" horiz-adv-x="891" 
d="M604 420q-7 95 -31 162q-52 156 -170 176q-5 1 -10 1.5t-14 0.5q-56 0 -80 -31q-9 -12 -22.5 -43t-29 -47t-38.5 -16q-3 1 -6 1.5t-8 0.5q-20 3 -34 18.5t-14 34.5q0 37 31 61q33 30 87 44t110 14q77 0 135 -21q106 -45 186 -158t84 -241v-15q0 -119 -54 -206.5
t-146 -133t-205 -45.5q-9 0 -82 5q-145 26 -182 102q-5 15 -5 22q0 23 23 23q10 0 38.5 -30t63.5 -50t97 -20q17 0 47 4q89 10 144 75.5t75 165.5q10 48 10 97h-260v49h260z" />
    <glyph glyph-name="thorn" unicode="&#xfe;" horiz-adv-x="1421" 
d="M369 371v-219q0 -3 -0.5 -5.5t-1.5 -5.5q0 -49 11 -66.5t49.5 -26.5t57.5 -15q11 -3 11 -17q0 -13 -11 -16q-6 0 -12 -0.5t-14 -1.5q-26 0 -94 4t-74 4t-73 -4t-97 -4q-8 1 -14.5 1.5t-10.5 0.5q-12 4 -12 14q0 2 4 10t8 9q24 9 53.5 15.5t40.5 13.5t17 27.5t6 62.5v469
q0 56 -10 74.5t-33 24.5t-74 21q-12 4 -12 17q0 10 12 14q5 1 9 1.5t16 0.5q30 0 97 -4t73 -4t74 4t94 4q11 0 16 -0.5t10 -1.5q11 -3 11 -14q0 -14 -11 -17q-50 -14 -73 -20t-34 -24t-11 -68q2 0 2 -8v-201h118q3 42 15 82q25 86 86 153.5t145 104.5t182 37q81 0 156.5 -33
t132 -87t90 -128.5t33.5 -155.5q0 -85 -33 -161t-92 -134t-137 -89.5t-162 -31.5h-2q-90 2 -166.5 33t-133 87t-87.5 134q-30 65 -33 140h-112zM850 758q-68 -20 -112 -77.5t-63.5 -137.5t-19.5 -160q0 -50 13 -139q22 -103 83 -168.5t148 -65.5q34 0 82 15q68 22 105 76.5
t52 124t15 149.5v53q-4 173 -72 250q-32 40 -80.5 62t-99.5 22q-19 0 -51 -4z" />
    <glyph glyph-name="thorn" unicode="&#x44e;" horiz-adv-x="1421" 
d="M369 371v-219q0 -3 -0.5 -5.5t-1.5 -5.5q0 -49 11 -66.5t49.5 -26.5t57.5 -15q11 -3 11 -17q0 -13 -11 -16q-6 0 -12 -0.5t-14 -1.5q-26 0 -94 4t-74 4t-73 -4t-97 -4q-8 1 -14.5 1.5t-10.5 0.5q-12 4 -12 14q0 2 4 10t8 9q24 9 53.5 15.5t40.5 13.5t17 27.5t6 62.5v469
q0 56 -10 74.5t-33 24.5t-74 21q-12 4 -12 17q0 10 12 14q5 1 9 1.5t16 0.5q30 0 97 -4t73 -4t74 4t94 4q11 0 16 -0.5t10 -1.5q11 -3 11 -14q0 -14 -11 -17q-50 -14 -73 -20t-34 -24t-11 -68q2 0 2 -8v-201h118q3 42 15 82q25 86 86 153.5t145 104.5t182 37q81 0 156.5 -33
t132 -87t90 -128.5t33.5 -155.5q0 -85 -33 -161t-92 -134t-137 -89.5t-162 -31.5h-2q-90 2 -166.5 33t-133 87t-87.5 134q-30 65 -33 140h-112zM850 758q-68 -20 -112 -77.5t-63.5 -137.5t-19.5 -160q0 -50 13 -139q22 -103 83 -168.5t148 -65.5q34 0 82 15q68 22 105 76.5
t52 124t15 149.5v53q-4 173 -72 250q-32 40 -80.5 62t-99.5 22q-19 0 -51 -4z" />
    <glyph glyph-name="ydieresis" unicode="&#xff;" horiz-adv-x="1139" 
d="M758 420v201q0 69 -24 89.5t-99 22.5h-12q-90 0 -139 -16t-68 -51t-19 -97q0 -51 23.5 -84.5t58 -49t66.5 -15.5h213zM834 766q9 0 76 4t94 4q11 0 16 -0.5t10 -1.5q8 -3 8 -14q0 -14 -10 -17q-51 -15 -73.5 -21t-33 -24.5t-10.5 -74.5v-469q0 -57 10.5 -75.5t49.5 -28
t57 -15.5q10 -2 10 -19q0 -11 -8 -14q-6 0 -12 -0.5t-14 -1.5q-27 0 -94 4t-76 4q-8 0 -75 -4t-93 -4q-8 1 -14 1.5t-11 0.5q-12 3 -12 16q0 14 12 17q19 6 57.5 15t49 26t10.5 67v236h-109q-23 0 -42.5 -17.5t-55.5 -64.5l-191 -244q-13 -16 -36 -32.5t-37 -16.5
q-7 0 -64 -2t-86 -2q-37 0 -41 2q-6 0 -6 8q0 1 2.5 11l3.5 14q69 19 88 43l265 311q-88 0 -149.5 54.5t-61.5 129.5q0 201 378 201h21q25 0 43.5 -0.5t51.5 -1.5t62.5 -2.5t39.5 -1.5z" />
    <glyph glyph-name="ydieresis" unicode="&#x44f;" horiz-adv-x="1139" 
d="M758 420v201q0 69 -24 89.5t-99 22.5h-12q-90 0 -139 -16t-68 -51t-19 -97q0 -51 23.5 -84.5t58 -49t66.5 -15.5h213zM834 766q9 0 76 4t94 4q11 0 16 -0.5t10 -1.5q8 -3 8 -14q0 -14 -10 -17q-51 -15 -73.5 -21t-33 -24.5t-10.5 -74.5v-469q0 -57 10.5 -75.5t49.5 -28
t57 -15.5q10 -2 10 -19q0 -11 -8 -14q-6 0 -12 -0.5t-14 -1.5q-27 0 -94 4t-76 4q-8 0 -75 -4t-93 -4q-8 1 -14 1.5t-11 0.5q-12 3 -12 16q0 14 12 17q19 6 57.5 15t49 26t10.5 67v236h-109q-23 0 -42.5 -17.5t-55.5 -64.5l-191 -244q-13 -16 -36 -32.5t-37 -16.5
q-7 0 -64 -2t-86 -2q-37 0 -41 2q-6 0 -6 8q0 1 2.5 11l3.5 14q69 19 88 43l265 311q-88 0 -149.5 54.5t-61.5 129.5q0 201 378 201h21q25 0 43.5 -0.5t51.5 -1.5t62.5 -2.5t39.5 -1.5z" />
    <glyph glyph-name="OE" unicode="&#x152;" 
 />
    <glyph glyph-name="oe" unicode="&#x153;" 
 />
    <glyph glyph-name="Scaron" unicode="&#x160;" 
 />
    <glyph glyph-name="scaron" unicode="&#x161;" 
 />
    <glyph glyph-name="Ydieresis" unicode="&#x178;" horiz-adv-x="1139" 
d="M758 420v201q0 69 -24 89.5t-99 22.5h-12q-90 0 -139 -16t-68 -51t-19 -97q0 -51 23.5 -84.5t58 -49t66.5 -15.5h213zM834 766q9 0 76 4t94 4q11 0 16 -0.5t10 -1.5q8 -3 8 -14q0 -14 -10 -17q-51 -15 -73.5 -21t-33 -24.5t-10.5 -74.5v-469q0 -57 10.5 -75.5t49.5 -28
t57 -15.5q10 -2 10 -19q0 -11 -8 -14q-6 0 -12 -0.5t-14 -1.5q-27 0 -94 4t-76 4q-8 0 -75 -4t-93 -4q-8 1 -14 1.5t-11 0.5q-12 3 -12 16q0 14 12 17q19 6 57.5 15t49 26t10.5 67v236h-109q-23 0 -42.5 -17.5t-55.5 -64.5l-191 -244q-13 -16 -36 -32.5t-37 -16.5
q-7 0 -64 -2t-86 -2q-37 0 -41 2q-6 0 -6 8q0 1 2.5 11l3.5 14q69 19 88 43l265 311q-88 0 -149.5 54.5t-61.5 129.5q0 201 378 201h21q25 0 43.5 -0.5t51.5 -1.5t62.5 -2.5t39.5 -1.5z" />
    <glyph glyph-name="florin" unicode="&#x192;" 
 />
    <glyph glyph-name="emdash" unicode="&#x2013;" horiz-adv-x="1063" 
d="M954 496v-103h-911v103h911z" />
    <glyph glyph-name="endash" unicode="&#x2014;" horiz-adv-x="1176" 
d="M1079 403v-81h-1061v81h1061z" />
    <glyph glyph-name="quoteleft" unicode="&#x2018;" horiz-adv-x="455" 
d="M340 1239v-33q-65 -45 -104 -96.5t-39 -118.5q0 -23 12 -63q11 0 29 2t26 2q41 0 68.5 -30t27.5 -73q0 -42 -30 -70t-72 -28q-71 0 -113.5 61t-42.5 136q0 68 31.5 133t86 112t120.5 66z" />
    <glyph glyph-name="quoteright" unicode="&#x2019;" horiz-adv-x="473" 
d="M129 739v31q145 103 145 215q0 15 -14 64q-19 0 -30 -0.5t-25 -1.5q-39 0 -67.5 30t-28.5 72q0 41 30 68.5t72 27.5q70 0 113 -60.5t43 -135.5q0 -67 -31.5 -132t-86 -112t-120.5 -66z" />
    <glyph glyph-name="quotesinglbase" unicode="&#x201a;" 
 />
    <glyph glyph-name="quotedblleft" unicode="&#x201c;" horiz-adv-x="739" 
d="M623 1239v-33q-44 -31 -74.5 -61t-51 -68.5t-20.5 -85.5q0 -20 15 -63q10 0 28 2t27 2q41 0 68.5 -30t27.5 -73q0 -42 -30 -70t-72 -28q-72 0 -114 60.5t-42 136.5q0 72 31.5 135t85.5 109.5t121 66.5zM340 1239v-33q-65 -45 -104 -96.5t-39 -118.5q0 -23 12 -63
q11 0 29 2t26 2q41 0 68.5 -30t27.5 -73q0 -42 -30 -70t-72 -28q-71 0 -113.5 61t-42.5 136q0 68 31.5 133t86 112t120.5 66z" />
    <glyph glyph-name="quotedblright" unicode="&#x201d;" horiz-adv-x="776" 
d="M440 739v31q69 48 107.5 98t38.5 117q0 29 -15 64q-18 0 -29.5 -0.5t-25.5 -1.5q-39 0 -66.5 30t-27.5 72q0 41 29.5 68.5t72.5 27.5q72 0 114 -60.5t42 -135.5q0 -105 -68.5 -192.5t-171.5 -117.5zM129 739v31q145 103 145 215q0 15 -14 64q-19 0 -30 -0.5t-25 -1.5
q-39 0 -67.5 30t-28.5 72q0 41 30 68.5t72 27.5q70 0 113 -60.5t43 -135.5q0 -67 -31.5 -132t-86 -112t-120.5 -66z" />
    <glyph glyph-name="quotedblbase" unicode="&#x201e;" 
 />
    <glyph glyph-name="dagger" unicode="&#x2020;" 
 />
    <glyph glyph-name="daggerdbl" unicode="&#x2021;" 
 />
    <glyph glyph-name="ellipsis" unicode="&#x2026;" 
 />
    <glyph glyph-name="perthousand" unicode="&#x2030;" 
 />
    <glyph glyph-name="guilsinglleft" unicode="&#x2039;" horiz-adv-x="1366" 
d="M1262 985v-108l-861 -351l861 -350v-110l-1014 415v88z" />
    <glyph glyph-name="guilsinglright" unicode="&#x203a;" horiz-adv-x="1366" 
d="M248 985l1014 -416v-88l-1014 -415v110l860 350l-860 351v108z" />
    <glyph glyph-name="trademark" unicode="&#x2122;" 
 />
    <glyph glyph-name="periodcentered" unicode="&#x2219;" horiz-adv-x="569" 
d="M346 324q-45 0 -79 32.5t-34 77.5q0 43 34 78t79 35q46 0 78.5 -34.5t32.5 -78.5q0 -46 -33 -78t-78 -32z" />
  </font>
</defs>
</svg>
